<svg viewBox="0 0 54 54" fill="none" xmlns="http://www.w3.org/2000/svg">
<path d="M27.9933 0.249226C27.4867 0.249226 27.1067 0.122559 26.6 0.122559C11.9067 0.122559 0 12.0292 0 26.7226C0 30.7759 0.886667 34.5759 2.53333 37.9959C2.53333 38.1226 2.66 38.2492 2.66 38.2492L2.78666 38.3759C6.71333 46.4826 14.6933 52.3092 24.0667 53.1959C24.1933 53.1959 24.1933 53.1959 24.32 53.1959C24.8267 53.1959 25.46 53.3226 25.9667 53.3226C26.0933 53.3226 26.3467 53.3226 26.4733 53.3226H26.6C41.2933 53.3226 53.2 41.4159 53.2 26.7226C53.2 12.6626 42.0533 1.00923 27.9933 0.249226ZM38.76 13.9292C38.76 20.6426 33.3133 26.0892 26.6 26.0892C19 26.0892 12.92 32.1692 12.92 39.7692C12.92 43.3159 14.3133 46.6092 16.4667 49.0159C15.58 48.3826 14.9467 47.8759 14.3133 47.2426C11.6533 44.5826 10.0067 40.9092 10.0067 37.4892C10.0067 30.3959 14.44 26.3426 23.56 25.0759C31.54 23.9359 35.4667 20.0092 35.4667 13.4226C35.4667 10.0026 33.9467 6.83589 31.0333 4.55589C29.5133 3.28922 27.6133 2.40256 25.7133 1.89589C25.9667 1.89589 26.22 1.89589 26.6 1.89589C33.3133 1.76922 38.76 7.21589 38.76 13.9292ZM3.92667 37.4892C3.54667 36.2226 1.9 30.6492 4.05333 26.5959C5.06666 24.5692 6.84 23.1759 9.24667 22.5426C10.1333 22.2892 11.02 22.0359 11.9067 21.7826C19.5067 19.6292 23.6867 18.3626 23.8133 12.5359C23.94 9.62256 22.1667 7.08922 19.1267 5.82256C18.4933 5.56922 17.6067 5.31589 16.8467 5.18922C19.6333 4.68256 22.42 4.93589 24.5733 6.07589C27.1067 7.34256 28.3733 9.62256 28.3733 12.6626C28.3733 16.8426 26.3467 19.3759 21.66 20.6426C21.1533 20.7692 20.52 20.8959 19.8867 21.1492C12.6667 23.0492 3.67333 25.4559 4.43333 36.0959C4.56 37.4892 4.94 39.0092 5.57333 40.5292C5.06667 39.6426 4.43333 38.6292 3.92667 37.4892ZM5.57333 13.2959C8.48666 9.49589 11.9067 8.73589 14.06 9.24256C15.4533 9.62256 16.34 10.5092 16.5933 11.6492C16.8467 12.7892 16.72 13.8026 16.0867 14.4359C14.82 16.0826 11.78 16.5892 9.12 16.7159C6.20666 16.9692 3.92667 18.1092 2.40667 20.1359C3.16667 17.7292 4.18 15.4492 5.57333 13.2959ZM18.4933 3.16256C22.6733 2.27589 27.1067 3.16256 30.1467 5.69589C32.5533 7.59589 33.9467 10.3826 33.9467 13.2959C33.9467 19.1226 30.5267 22.4159 23.3067 23.4292C13.4267 24.8226 8.36 29.5092 8.36 37.3626C8.36 40.0226 9.24667 42.8092 10.7667 45.3426C7.98 42.5559 6.08 39.2626 5.95333 36.0959C5.32 26.7226 12.92 24.6959 20.2667 22.6692C20.9 22.5426 21.4067 22.4159 22.04 22.1626C27.36 20.6426 29.8933 17.6026 29.8933 12.6626C29.8933 9.11589 28.2467 6.20256 25.2067 4.68256C23.0533 3.54256 20.2667 3.16256 17.48 3.41589C17.86 3.28923 18.1133 3.28922 18.4933 3.16256ZM1.77333 28.3692C1.77333 26.0892 2.02667 23.1759 3.67333 21.1492C4.94 19.5026 6.84 18.4892 9.24667 18.3626C12.2867 18.1092 15.7067 17.6026 17.2267 15.4492C17.9867 14.3092 18.3667 13.0426 17.9867 11.3959C17.6067 9.62256 16.2133 8.22922 14.1867 7.72256C13.3 7.46922 12.2867 7.46922 11.1467 7.72256C13.9333 6.32922 16.5933 6.45589 18.4933 7.21589C20.9 8.22923 22.2933 10.2559 22.1667 12.5359C22.04 17.2226 18.8733 18.1092 11.4 20.2626C10.5133 20.5159 9.62667 20.7692 8.74 21.0226C5.82667 21.9092 3.8 23.5559 2.66 25.9626C2.28 26.7226 2.02667 27.4826 1.77333 28.3692ZM26.6 51.9292C26.4733 51.8026 26.4733 51.8026 26.6 51.9292C19.8867 51.8026 14.44 46.4826 14.44 39.7692C14.44 33.0559 19.8867 27.6092 26.6 27.6092C34.2 27.6092 40.28 21.5292 40.28 13.9292C40.28 9.74922 38.38 5.94922 35.34 3.41589C44.84 6.96256 51.68 16.0826 51.68 26.8492C51.68 40.6559 40.4067 51.9292 26.6 51.9292Z" fill="url(#paint0_linear)"/>
<defs>
<linearGradient id="paint0_linear" x1="-0.00886667" y1="26.8168" x2="53.1911" y2="26.8168" gradientUnits="userSpaceOnUse">
<stop stop-color="#45DCA3"/>
<stop offset="1" stop-color="#128D89"/>
</linearGradient>
</defs>
</svg>
