<svg viewBox="0 0 73 93" fill="none" xmlns="http://www.w3.org/2000/svg">
<g clip-path="url(#clip0_15_502)">
<path d="M66.1751 36.0203L12.3089 3.93739L10.6766 3.05311C10.2997 2.80051 9.92325 2.80051 9.54641 2.92663L9.42068 3.05311C9.04456 3.30607 8.79346 3.68479 8.79346 4.18999V48.1458C8.79346 49.2827 9.29567 50.2931 10.3001 50.7987L66.3004 84.1442C66.803 84.5233 67.4306 84.3968 67.9328 84.1442L68.0585 84.0181C68.5607 83.639 68.8119 83.2603 68.8119 82.6286V40.6936C68.9372 38.7992 67.9328 37.0307 66.1751 36.0203ZM66.9284 79.4709C66.9284 79.8496 66.803 80.1026 66.6773 80.3552C66.3004 81.113 65.1706 81.4917 64.2916 80.9865L12.1836 49.9144C11.3045 49.4092 10.6769 48.3984 10.6769 47.2619V7.72677C10.6769 6.84249 11.556 6.21116 12.3093 6.46376C12.435 6.46376 12.5604 6.59024 12.6861 6.59024L64.292 37.5362C65.9243 38.5466 66.9287 40.3152 66.9287 42.336L66.9284 79.4709Z" fill="url(#paint0_linear_15_502)"/>
<path d="M66.6774 80.2287C66.3009 80.9865 65.1707 81.3656 64.2917 80.8604L12.1836 49.7879C11.3046 49.2827 10.677 48.2723 10.677 47.1354V7.7268C10.677 6.84251 11.556 6.21119 12.3094 6.46379V46.125C12.3094 47.2619 12.8116 48.2723 13.816 48.7775L66.6774 80.2287Z" fill="url(#paint1_linear_15_502)"/>
<path d="M66.9288 42.3356V79.4709C66.9288 79.8496 66.8031 80.1022 66.6777 80.3548C66.6777 80.3548 56.8835 75.555 38.3007 64.6925C19.5921 53.8299 13.816 48.7775 13.816 48.7775C12.9369 48.2723 12.3093 47.2619 12.3093 46.125V6.33728C12.4351 6.33728 12.5604 6.4634 12.6862 6.4634L64.2924 37.4094C65.924 38.5463 66.9288 40.3148 66.9288 42.3356Z" fill="url(#paint2_linear_15_502)"/>
<path d="M72.4532 38.6731V80.6078C72.4532 81.2395 72.0767 81.7447 71.5745 82.1237L71.4487 82.2499H71.3234L68.0586 84.1446C68.5609 83.7658 68.812 83.3867 68.812 82.7551V40.8204C68.812 38.7992 67.8075 37.031 66.1752 36.0206L12.3094 3.93776L10.677 3.05348C10.3002 2.80087 9.92371 2.80087 9.54688 2.92736L12.8116 1.03267L12.937 0.906187C13.3138 0.653586 13.816 0.653586 14.1925 0.906187L69.691 33.9995C71.4487 35.0099 72.4532 36.7784 72.4532 38.6731Z" fill="url(#paint3_linear_15_502)"/>
<path fill-rule="evenodd" clip-rule="evenodd" d="M36.9113 85.2038C36.9703 85.2038 37.0474 85.1837 37.1064 85.1445L37.769 84.7518C37.9443 84.6339 38.0222 84.3982 37.9054 84.2218C37.7882 84.0453 37.5539 83.967 37.3786 84.0849L36.716 84.4776C36.5409 84.5955 36.4627 84.8312 36.5799 85.0069C36.6585 85.1251 36.7953 85.2038 36.9113 85.2038Z" fill="url(#paint4_linear_15_502)"/>
<path fill-rule="evenodd" clip-rule="evenodd" d="M10.2467 59.1967L3.47583 63.2041L10.2467 67.2102L17.0187 63.2041L10.2467 59.1967Z" fill="url(#paint5_linear_15_502)"/>
<path fill-rule="evenodd" clip-rule="evenodd" d="M3.25684 74.2582L10.1792 78.279V67.2069L3.25684 63.1862V74.2582Z" fill="url(#paint6_linear_15_502)"/>
<path fill-rule="evenodd" clip-rule="evenodd" d="M10.1792 78.2794L17.0823 74.2586V63.1865L10.1792 67.2073V78.2794Z" fill="url(#paint7_linear_15_502)"/>
<path fill-rule="evenodd" clip-rule="evenodd" d="M22.5858 56.5179L15.8242 60.7259L22.5858 64.9328L29.3671 60.7259L22.5858 56.5179Z" fill="url(#paint8_linear_15_502)"/>
<path fill-rule="evenodd" clip-rule="evenodd" d="M15.717 81.4773L22.6194 85.4787V64.7212L15.717 60.7198V81.4773Z" fill="url(#paint9_linear_15_502)"/>
<path fill-rule="evenodd" clip-rule="evenodd" d="M22.6194 85.4787L29.5417 81.4773V60.7198L22.6194 64.7212V85.4787Z" fill="url(#paint10_linear_15_502)"/>
<path fill-rule="evenodd" clip-rule="evenodd" d="M34.9342 42.5501L28.1726 46.7581L34.9342 50.965L41.7155 46.7581L34.9342 42.5501Z" fill="url(#paint11_linear_15_502)"/>
<path fill-rule="evenodd" clip-rule="evenodd" d="M28.0205 88.6953L34.9229 92.7168V50.7879L28.0205 46.7675V88.6953Z" fill="url(#paint12_linear_15_502)"/>
<path fill-rule="evenodd" clip-rule="evenodd" d="M28.0205 88.6953L34.9229 92.7168V50.7879L28.0205 46.7675V88.6953Z" fill="url(#paint13_linear_15_502)"/>
<path fill-rule="evenodd" clip-rule="evenodd" d="M34.9229 92.7168L41.8448 88.6953V46.7675L34.9229 50.7879V92.7168Z" fill="url(#paint14_linear_15_502)"/>
<path fill-rule="evenodd" clip-rule="evenodd" d="M40.4209 30.117L20.385 39.1029L1.85469 33.2036H1.76325L1.71753 34.1184L20.4311 40.0867L40.1941 31.2381L40.4209 30.117Z" fill="url(#paint15_linear_15_502)"/>
<path fill-rule="evenodd" clip-rule="evenodd" d="M38.5847 29.3804C38.5847 30.6262 39.5095 32.1198 40.6228 32.7548C41.7612 33.3663 42.6617 32.8672 42.6617 31.6445C42.6617 30.4217 41.7366 28.905 40.6228 28.2935C39.5081 27.637 38.5847 28.1354 38.5847 29.3804Z" fill="url(#paint16_linear_15_502)"/>
<path fill-rule="evenodd" clip-rule="evenodd" d="M17.7866 38.4435C17.7866 39.6892 18.7114 41.1829 19.8248 41.8179C20.9631 42.4294 21.8636 41.9303 21.8636 40.7076C21.8636 39.4848 20.9385 37.9681 19.8248 37.3565C18.71 36.6997 17.7866 37.1981 17.7866 38.4435Z" fill="url(#paint17_linear_15_502)"/>
<path fill-rule="evenodd" clip-rule="evenodd" d="M0.453125 33.0659C0.453125 34.3117 1.37789 35.8054 2.49126 36.4403C3.62962 37.0518 4.5301 36.5528 4.5301 35.33C4.5301 34.1072 3.60498 32.5905 2.49126 31.979C1.37646 31.3222 0.453125 31.8205 0.453125 33.0659Z" fill="url(#paint18_linear_15_502)"/>
</g>
<defs>
<linearGradient id="paint0_linear_15_502" x1="38.0644" y1="34.7033" x2="44.8471" y2="120.704" gradientUnits="userSpaceOnUse">
<stop stop-color="#45DCA3"/>
<stop offset="0.4749" stop-color="#128D89"/>
<stop offset="1" stop-color="#333336"/>
</linearGradient>
<linearGradient id="paint1_linear_15_502" x1="60.943" y1="124.942" x2="8.41365" y2="-17.2384" gradientUnits="userSpaceOnUse">
<stop stop-color="#45DCA3"/>
<stop offset="0.4749" stop-color="#128D89"/>
<stop offset="1" stop-color="#333336"/>
</linearGradient>
<linearGradient id="paint2_linear_15_502" x1="193.869" y1="-91.8045" x2="18.9734" y2="59.5024" gradientUnits="userSpaceOnUse">
<stop stop-color="#45DCA3"/>
<stop offset="0.4749" stop-color="#128D89"/>
<stop offset="1" stop-color="#333336"/>
</linearGradient>
<linearGradient id="paint3_linear_15_502" x1="-28.1137" y1="-28.9245" x2="96.3255" y2="82.5299" gradientUnits="userSpaceOnUse">
<stop stop-color="#45DCA3"/>
<stop offset="0.4749" stop-color="#128D89"/>
<stop offset="1" stop-color="#333336"/>
</linearGradient>
<linearGradient id="paint4_linear_15_502" x1="36.5244" y1="84.6165" x2="37.961" y2="84.6165" gradientUnits="userSpaceOnUse">
<stop stop-color="#45DCA3"/>
<stop offset="0.4749" stop-color="#128D89"/>
<stop offset="1" stop-color="#333336"/>
</linearGradient>
<linearGradient id="paint5_linear_15_502" x1="10.2185" y1="61.7255" x2="12.7039" y2="187.729" gradientUnits="userSpaceOnUse">
<stop stop-color="#45DCA3"/>
<stop offset="0.4749" stop-color="#128D89"/>
<stop offset="1" stop-color="#333336"/>
</linearGradient>
<linearGradient id="paint6_linear_15_502" x1="5.24496" y1="34.4258" x2="8.23591" y2="107.27" gradientUnits="userSpaceOnUse">
<stop stop-color="#45DCA3"/>
<stop offset="0.4749" stop-color="#128D89"/>
<stop offset="1" stop-color="#333336"/>
</linearGradient>
<linearGradient id="paint7_linear_15_502" x1="13.6309" y1="-7.74779" x2="13.6309" y2="93.6394" gradientUnits="userSpaceOnUse">
<stop stop-color="#45DCA3"/>
<stop offset="0.4749" stop-color="#128D89"/>
<stop offset="1" stop-color="#333336"/>
</linearGradient>
<linearGradient id="paint8_linear_15_502" x1="22.7924" y1="70.8198" x2="25.2777" y2="196.823" gradientUnits="userSpaceOnUse">
<stop stop-color="#45DCA3"/>
<stop offset="0.4749" stop-color="#128D89"/>
<stop offset="1" stop-color="#333336"/>
</linearGradient>
<linearGradient id="paint9_linear_15_502" x1="17.5609" y1="33.4841" x2="20.886" y2="114.468" gradientUnits="userSpaceOnUse">
<stop stop-color="#45DCA3"/>
<stop offset="0.4749" stop-color="#128D89"/>
<stop offset="1" stop-color="#333336"/>
</linearGradient>
<linearGradient id="paint10_linear_15_502" x1="26.0806" y1="-13.6343" x2="26.0806" y2="99.6514" gradientUnits="userSpaceOnUse">
<stop stop-color="#45DCA3"/>
<stop offset="0.4749" stop-color="#128D89"/>
<stop offset="1" stop-color="#333336"/>
</linearGradient>
<linearGradient id="paint11_linear_15_502" x1="35.534" y1="77.0362" x2="38.0194" y2="203.04" gradientUnits="userSpaceOnUse">
<stop stop-color="#45DCA3"/>
<stop offset="0.4749" stop-color="#128D89"/>
<stop offset="1" stop-color="#333336"/>
</linearGradient>
<linearGradient id="paint12_linear_15_502" x1="28.0204" y1="69.7422" x2="34.9226" y2="69.7422" gradientUnits="userSpaceOnUse">
<stop stop-color="#45DCA3"/>
<stop offset="0.4749" stop-color="#128D89"/>
<stop offset="1" stop-color="#333336"/>
</linearGradient>
<linearGradient id="paint13_linear_15_502" x1="29.5716" y1="22.9171" x2="33.7713" y2="125.198" gradientUnits="userSpaceOnUse">
<stop stop-color="#45DCA3"/>
<stop offset="0.4749" stop-color="#128D89"/>
<stop offset="1" stop-color="#333336"/>
</linearGradient>
<linearGradient id="paint14_linear_15_502" x1="38.3838" y1="-36.7402" x2="38.3838" y2="106.873" gradientUnits="userSpaceOnUse">
<stop stop-color="#45DCA3"/>
<stop offset="0.4749" stop-color="#128D89"/>
<stop offset="1" stop-color="#333336"/>
</linearGradient>
<linearGradient id="paint15_linear_15_502" x1="33.8189" y1="35.1115" x2="-14.3202" y2="34.9748" gradientUnits="userSpaceOnUse">
<stop stop-color="#45DCA3"/>
<stop offset="0.4749" stop-color="#128D89"/>
<stop offset="1" stop-color="#333336"/>
</linearGradient>
<linearGradient id="paint16_linear_15_502" x1="77.0641" y1="19.0184" x2="-88.0869" y2="70.4755" gradientUnits="userSpaceOnUse">
<stop stop-color="#45DCA3"/>
<stop offset="0.4749" stop-color="#128D89"/>
<stop offset="1" stop-color="#333336"/>
</linearGradient>
<linearGradient id="paint17_linear_15_502" x1="71.6142" y1="20.1606" x2="-112.231" y2="88.2518" gradientUnits="userSpaceOnUse">
<stop stop-color="#45DCA3"/>
<stop offset="0.4749" stop-color="#128D89"/>
<stop offset="1" stop-color="#333336"/>
</linearGradient>
<linearGradient id="paint18_linear_15_502" x1="96.119" y1="6.99825" x2="-71.746" y2="55.1812" gradientUnits="userSpaceOnUse">
<stop stop-color="#45DCA3"/>
<stop offset="0.4749" stop-color="#128D89"/>
<stop offset="1" stop-color="#333336"/>
</linearGradient>
<clipPath id="clip0_15_502">
<rect width="72" height="92" fill="white" transform="translate(0.453125 0.716797)"/>
</clipPath>
</defs>
</svg>
