<svg width="110" height="95" viewBox="0 0 110 95" fill="none" xmlns="http://www.w3.org/2000/svg">
<g clip-path="url(#clip0_15_525)">
<path d="M55.5283 51.9586L55.5431 51.7278L55.5283 51.9586Z" fill="url(#paint0_linear_15_525)"/>
<path d="M78.7457 65.6614C78.8528 65.3847 78.8975 65.1026 78.8835 64.8238C78.863 64.475 78.8418 64.1266 78.8193 63.7778C78.8214 63.7825 78.8214 63.7859 78.821 63.7884C78.7827 63.0798 78.3465 62.3903 77.5076 61.8688L43.985 41.7611C42.1869 40.6426 39.2285 40.7169 37.3725 41.9224L1.75932 65.0924C0.752913 65.7471 0.278835 66.6004 0.343463 67.4236C0.342187 67.4109 0.340487 67.399 0.340061 67.3888C0.360045 67.7372 0.381729 68.086 0.401713 68.4344C0.44253 69.1409 0.879192 69.8253 1.71595 70.3443L35.2407 90.451C37.0354 91.567 39.9925 91.4953 41.8489 90.2872C41.8489 90.2872 79.2236 65.9588 78.7457 65.6614Z" fill="url(#paint1_linear_15_525)"/>
<path d="M76.3061 67.8688L77.457 67.1219C77.7406 66.9369 77.9804 66.7379 78.1777 66.5258C78.4383 66.2521 78.6259 65.9593 78.7402 65.661C78.8474 65.3843 78.892 65.1022 78.878 64.8234C78.8576 64.4746 78.8363 64.1258 78.8138 63.7774C78.8159 63.7821 78.8159 63.7855 78.8155 63.7876C78.8151 63.7982 78.8142 63.8096 78.8172 63.8177C78.8185 63.833 78.8185 63.8478 78.8176 63.8606C78.8193 63.8712 78.8189 63.8801 78.8193 63.8881C78.8185 63.9034 78.8185 63.9183 78.8176 63.9331C78.8168 63.9425 78.8168 63.948 78.8172 63.9573C78.8146 64.0138 78.8108 64.0715 78.8027 64.127C78.8023 64.1351 78.8019 64.1423 78.8002 64.1512C78.7989 64.1661 78.7968 64.1809 78.7934 64.1971C78.793 64.2064 78.7913 64.2166 78.7883 64.2268C78.7853 64.2391 78.7832 64.2531 78.7798 64.2654C78.7789 64.2781 78.7751 64.2891 78.7717 64.3019C78.7687 64.3121 78.7666 64.3278 78.7636 64.3384C78.7606 64.3507 78.7585 64.3621 78.7555 64.3723C78.7513 64.3872 78.7479 64.4007 78.7436 64.413C78.7407 64.4232 78.7385 64.4368 78.7356 64.447C78.7313 64.4597 78.7262 64.4729 78.7241 64.4856C78.7219 64.4983 78.7164 64.5094 78.7126 64.5196C78.7105 64.5344 78.7028 64.5454 78.6981 64.5603C78.6952 64.5705 78.6913 64.5815 78.6858 64.5917C78.6816 64.604 78.676 64.6197 78.6718 64.632C78.6675 64.6422 78.6624 64.6536 78.6582 64.6659C78.6539 64.6782 78.6484 64.6918 78.6416 64.7041C78.6378 64.7143 78.6322 64.7279 78.628 64.7377C78.6212 64.75 78.6156 64.7635 78.6093 64.7737C78.605 64.786 78.5974 64.7992 78.5906 64.8115C78.5855 64.8217 78.5787 64.8348 78.5748 64.845C78.568 64.8573 78.5617 64.8709 78.5536 64.8832C78.5472 64.8942 78.5417 64.9065 78.5353 64.9163C78.5285 64.9311 78.5196 64.9443 78.5119 64.9566C78.5081 64.9664 78.5004 64.9753 78.4936 64.9889C78.4847 65.0033 78.4732 65.0186 78.4643 65.0351C78.4592 65.0419 78.4528 65.0495 78.4498 65.0584C78.4345 65.0818 78.4179 65.1051 78.4026 65.128C78.3975 65.1348 78.3963 65.1395 78.3912 65.1446C78.3771 65.1637 78.3656 65.1811 78.3529 65.2002C78.3465 65.2065 78.3393 65.2142 78.335 65.2231C78.3214 65.2371 78.31 65.2528 78.301 65.2668C78.2921 65.2778 78.2823 65.2855 78.2764 65.2944C78.2649 65.3084 78.2534 65.3215 78.2423 65.336C78.2423 65.3381 78.2419 65.3406 78.2398 65.3402C78.2313 65.3491 78.2258 65.3567 78.2173 65.3652C78.2058 65.3784 78.1947 65.3907 78.1858 65.4038C78.1769 65.4149 78.1684 65.4246 78.1586 65.4331C78.1471 65.4476 78.1335 65.4603 78.1224 65.4734C78.1139 65.4824 78.1037 65.4921 78.0952 65.5006C78.0816 65.5137 78.0701 65.5278 78.0565 65.5409C78.048 65.5494 78.037 65.5592 78.0272 65.5676C78.0136 65.5816 78 65.5948 77.9864 65.608C77.9779 65.6164 77.9681 65.6241 77.9592 65.6347C77.9434 65.6478 77.9303 65.6597 77.9162 65.6746C77.9056 65.6835 77.8967 65.692 77.8848 65.6992C77.8712 65.7123 77.8554 65.7238 77.8418 65.7369C77.8308 65.7476 77.8197 65.7552 77.8087 65.7637C77.7955 65.7764 77.7793 65.7883 77.7657 65.801C77.7551 65.8099 77.744 65.8193 77.733 65.8278C77.7172 65.8409 77.7011 65.8524 77.6866 65.8655C77.6756 65.874 77.6645 65.8825 77.6539 65.8897C77.6356 65.9024 77.6161 65.916 77.5982 65.9287C77.5893 65.9377 77.5799 65.9436 77.5714 65.9491C77.5506 65.964 77.5314 65.9775 77.511 65.9903C77.5021 65.9988 77.4923 66.0051 77.4842 66.0102C77.4528 66.0314 77.4239 66.0493 77.3958 66.0705L41.7826 89.2379C39.9262 90.446 36.9691 90.5181 35.1744 89.4017L1.64969 69.2949C1.62162 69.2792 1.59654 69.2627 1.57103 69.2449C1.55657 69.236 1.54084 69.2266 1.52681 69.2156C1.51575 69.2092 1.50555 69.2016 1.49449 69.1952C1.48004 69.1838 1.46473 69.1727 1.45028 69.1634C1.43922 69.157 1.42944 69.1494 1.42051 69.1409C1.40393 69.1316 1.39075 69.1205 1.37629 69.1091C1.36524 69.1027 1.35759 69.0951 1.34866 69.0887C1.33208 69.0773 1.31677 69.0658 1.30231 69.0522C1.29593 69.0471 1.28786 69.0408 1.27935 69.0344C1.2649 69.0229 1.24959 69.0094 1.23556 68.9983C1.22663 68.992 1.22153 68.9848 1.21472 68.9809C1.19942 68.9674 1.18496 68.9559 1.17093 68.9423C1.16455 68.936 1.15562 68.9287 1.1501 68.9249C1.13607 68.9113 1.12076 68.8978 1.10758 68.8842C1.10078 68.8791 1.0944 68.8732 1.08887 68.8681C1.07484 68.8545 1.06166 68.8409 1.04635 68.8273C1.03998 68.821 1.03572 68.8163 1.02892 68.8087C1.01489 68.7951 1.00171 68.7815 0.986402 68.7679C0.982151 68.7607 0.977899 68.7569 0.971096 68.7518C0.95834 68.7361 0.943884 68.7225 0.929003 68.7077C0.926877 68.7051 0.922625 68.7013 0.920499 68.6966C0.905193 68.6805 0.891162 68.6661 0.87628 68.6478H0.874154C0.79252 68.5524 0.722365 68.4569 0.658162 68.3567C0.656036 68.3521 0.65391 68.3495 0.651784 68.3461C0.641155 68.3304 0.633076 68.3147 0.623722 68.2995C0.619471 68.2922 0.615219 68.2863 0.613518 68.2816C0.60544 68.2659 0.596936 68.2528 0.588858 68.2375C0.584606 68.2303 0.580354 68.2244 0.576102 68.2171C0.568024 68.2014 0.561646 68.1887 0.553567 68.1751C0.549316 68.1666 0.545489 68.1594 0.541237 68.1514C0.535285 68.1382 0.528907 68.1251 0.522954 68.1123C0.518703 68.1038 0.514876 68.0945 0.510624 68.086C0.504672 68.0729 0.498719 68.0597 0.492341 68.047C0.488089 68.0385 0.484263 68.0292 0.480011 68.0207C0.476184 68.0075 0.470232 67.9948 0.466405 67.9842C0.462579 67.9736 0.458327 67.9642 0.4545 67.9536C0.450673 67.943 0.444721 67.9299 0.440894 67.9171C0.436642 67.9087 0.435367 67.8972 0.431115 67.8887C0.427288 67.876 0.423462 67.8649 0.419635 67.8509C0.415809 67.8403 0.414108 67.8289 0.410281 67.8183C0.406455 67.8077 0.402628 67.7958 0.400927 67.7831C0.397101 67.7724 0.3954 67.761 0.391573 67.7478C0.389872 67.7372 0.386046 67.7279 0.384345 67.7173C0.380518 67.7041 0.379243 67.6914 0.375416 67.6795C0.373716 67.6689 0.37244 67.6575 0.370739 67.6468C0.365212 67.6244 0.36181 67.6036 0.357559 67.5815C0.355858 67.5743 0.356283 67.5688 0.356283 67.5641C0.352882 67.5467 0.350331 67.5289 0.346929 67.5115C0.347354 67.5021 0.345654 67.4941 0.344803 67.4873C0.343528 67.472 0.340977 67.4572 0.339701 67.4419C0.338 67.4338 0.338425 67.4266 0.338851 67.4177C0.337575 67.405 0.335874 67.3931 0.335449 67.3829C0.355433 67.7317 0.377117 68.0801 0.397101 68.4289C0.437918 69.1354 0.874579 69.8198 1.71134 70.3388L35.2361 90.4455C37.0308 91.5615 39.9879 91.4894 41.8442 90.2817L76.3061 67.8688Z" fill="url(#paint2_linear_15_525)"/>
<path d="M72.2423 61.2017L43.7606 44.3071C42.1496 43.3053 39.499 43.3706 37.8362 44.4527L5.93307 65.2065C4.26976 66.2886 4.22767 67.9761 5.83868 68.9775L34.3199 85.8721C35.9267 86.871 38.5794 86.8061 40.2406 85.7236L72.1458 64.9702C73.8065 63.8869 73.849 62.2006 72.2423 61.2017Z" fill="url(#paint3_linear_15_525)"/>
<path d="M40.7946 54.0985C40.67 54.1804 40.6122 54.2865 40.6198 54.3883L40.6202 54.3815C40.6215 54.4091 40.6292 54.4363 40.6389 54.4621C40.6389 54.4621 40.6389 54.4621 40.6389 54.4643C40.6411 54.4689 40.6432 54.4727 40.6474 54.4774V54.4795C40.6491 54.4842 40.6513 54.488 40.6555 54.4927C40.6555 54.4927 40.6555 54.4948 40.6577 54.4952C40.6598 54.4999 40.6619 54.5037 40.664 54.5084C40.6662 54.5084 40.6662 54.5109 40.6657 54.5131C40.6704 54.5156 40.6725 54.5194 40.6768 54.5241C40.6768 54.5241 40.6768 54.5266 40.6789 54.5288C40.681 54.5313 40.6853 54.5351 40.6874 54.5398C40.6895 54.5398 40.6895 54.5423 40.6917 54.5423C40.6938 54.547 40.698 54.5508 40.7027 54.5534C40.7023 54.5555 40.7048 54.5559 40.7044 54.558C40.7091 54.5606 40.7134 54.5644 40.7163 54.5691L40.7189 54.5716C40.7231 54.5763 40.7274 54.578 40.7316 54.5826C40.7342 54.5826 40.7338 54.5852 40.7338 54.5852C40.7406 54.5903 40.7452 54.5916 40.7482 54.5966L40.7503 54.5992C40.7627 54.606 40.7737 54.6145 40.7861 54.6221L46.7599 58.3388C46.981 58.4767 47.3466 58.4691 47.5783 58.3188L53.7481 54.3056C53.7771 54.2843 53.8038 54.264 53.8285 54.2415C53.8349 54.2351 53.8396 54.2309 53.8447 54.2254V54.2228C53.8498 54.2186 53.8536 54.2118 53.8583 54.2088L53.8612 54.2046C53.8659 54.2003 53.8672 54.1957 53.8723 54.1914C53.8723 54.1893 53.8723 54.1893 53.8748 54.1872C53.8774 54.1829 53.8812 54.1783 53.8838 54.1727C53.8838 54.1727 53.8842 54.1706 53.8863 54.1706C53.8889 54.1638 53.8906 54.1604 53.8931 54.1562C53.8931 54.1541 53.8957 54.152 53.8957 54.152C53.8982 54.1477 53.9008 54.143 53.9025 54.1396C53.9025 54.1375 53.905 54.1354 53.905 54.1329C53.9076 54.1286 53.908 54.1239 53.9093 54.1206C53.9093 54.1184 53.9097 54.1159 53.9118 54.1163C53.9123 54.1095 53.9148 54.1061 53.914 54.1015C53.914 54.1015 53.9165 54.0993 53.9165 54.0972C53.9169 54.0925 53.9195 54.0883 53.9186 54.0824C53.9186 54.0824 53.9212 54.0802 53.9212 54.0781C53.9216 54.0735 53.922 54.0679 53.9225 54.0607C53.9254 54.0484 53.9254 54.0344 53.9237 54.0238C53.9178 53.9347 53.8642 53.8515 53.7622 53.7875L47.7884 50.0708C47.5626 49.9316 47.1969 49.938 46.9665 50.0882L40.7946 54.0985Z" fill="url(#paint4_linear_15_525)"/>
<path d="M28.6304 78.5066C28.6304 78.5066 28.6304 78.5087 28.63 78.5113C28.63 78.5134 28.6317 78.5193 28.6317 78.5193C28.6317 78.5215 28.6334 78.5274 28.6334 78.5274C28.6355 78.5299 28.6355 78.5321 28.6351 78.5346C28.6372 78.5393 28.6372 78.5418 28.6393 78.5431C28.6389 78.5478 28.641 78.5503 28.6432 78.5516C28.6432 78.5541 28.6449 78.5597 28.6449 78.5597C28.647 78.5622 28.647 78.5643 28.6491 78.5669C28.6512 78.5715 28.6534 78.5728 28.6529 78.5754C28.6551 78.58 28.6572 78.5813 28.6572 78.5838C28.6593 78.5864 28.6614 78.5889 28.6636 78.5923C28.6636 78.5944 28.6657 78.597 28.6678 78.5983C28.6699 78.6008 28.6721 78.6029 28.6721 78.6055C28.6742 78.6101 28.6785 78.6114 28.6806 78.6165C28.6806 78.6186 28.6827 78.6191 28.6848 78.6216C28.687 78.6263 28.6891 78.6288 28.6933 78.6326L28.6955 78.6352C28.6997 78.6403 28.704 78.6437 28.7082 78.6488C28.7308 78.6734 28.7584 78.6959 28.7907 78.7141L37.1991 83.9414C37.4223 84.0827 37.7884 84.0742 38.0201 83.924L44.1899 79.9107C44.1959 79.9065 44.2057 79.9001 44.2116 79.8959C44.2116 79.8937 44.2142 79.8937 44.2142 79.8937C44.2201 79.8895 44.2273 79.8831 44.2324 79.8789C44.2346 79.8789 44.235 79.8768 44.2371 79.8768C44.2422 79.8725 44.2482 79.8683 44.2529 79.864C44.2529 79.8619 44.2554 79.8619 44.2554 79.8598C44.2601 79.8556 44.2665 79.8513 44.2716 79.8449C44.2716 79.8449 44.2716 79.8449 44.2741 79.8428C44.2788 79.8386 44.2826 79.8339 44.2877 79.8288C44.2877 79.8288 44.2903 79.8288 44.2903 79.8267C44.2954 79.8225 44.2992 79.8157 44.3018 79.8123C44.3043 79.8123 44.3043 79.8101 44.3043 79.8101C44.309 79.8059 44.3132 79.7991 44.3158 79.7957C44.3183 79.7936 44.3183 79.7936 44.3183 79.7915C44.323 79.7872 44.3247 79.7804 44.3298 79.777V79.7749C44.3349 79.7707 44.3362 79.7639 44.3387 79.7584C44.3387 79.7584 44.3387 79.7584 44.3387 79.7563C44.3434 79.752 44.3451 79.7452 44.3477 79.7397C44.3502 79.7329 44.3519 79.7295 44.3545 79.7227C44.3545 79.7202 44.3545 79.7206 44.3545 79.7206C44.3575 79.7138 44.3587 79.7083 44.3592 79.7011C44.3638 79.6816 44.3672 79.6646 44.3672 79.6451V79.643C44.3677 79.6383 44.3681 79.6328 44.3685 79.6256C44.3626 79.5386 44.309 79.4533 44.2048 79.3888L35.7977 74.1581C35.5745 74.0202 35.2041 74.0274 34.9733 74.1797L28.8056 78.193C28.6814 78.2728 28.6236 78.3772 28.6308 78.4795L28.6313 78.4748C28.6274 78.4867 28.6291 78.4947 28.6304 78.5066Z" fill="url(#paint5_linear_15_525)"/>
<path d="M61.3529 58.5068L55.3799 54.7902C55.1567 54.6522 54.791 54.6599 54.5602 54.8101L48.3908 58.8234C48.2241 58.9303 48.1786 59.0818 48.2454 59.2095C48.2496 59.2146 48.2517 59.2201 48.256 59.2252L48.2556 59.2273C48.2598 59.2324 48.2645 59.2358 48.2666 59.2405C48.2662 59.2426 48.2683 59.243 48.2683 59.243C48.273 59.2481 48.2747 59.2515 48.2794 59.2566C48.279 59.2587 48.279 59.2587 48.2811 59.2613C48.2853 59.266 48.2875 59.2698 48.2921 59.2723C48.2943 59.2749 48.2943 59.2749 48.2943 59.2749C48.2985 59.28 48.3028 59.2834 48.307 59.2884C48.3096 59.2884 48.3091 59.291 48.3091 59.291C48.3159 59.2961 48.3202 59.2999 48.3244 59.3046C48.327 59.3046 48.327 59.3046 48.3266 59.3071C48.3334 59.3122 48.3376 59.316 48.3432 59.3207C48.3563 59.3296 48.3687 59.3385 48.3831 59.3474L54.3556 63.0616C54.5793 63.1995 54.945 63.1944 55.1754 63.0442L61.3452 59.0309C61.3673 59.0139 61.3877 59.0003 61.4052 58.9829C61.4077 58.9808 61.4077 58.9808 61.4098 58.9808C61.4149 58.974 61.4188 58.9698 61.426 58.9655V58.9634C61.4307 58.9592 61.4371 58.9528 61.4396 58.9494C61.4422 58.9473 61.4422 58.9473 61.4447 58.9452C61.4473 58.9409 61.4511 58.9363 61.4558 58.932C61.4558 58.9299 61.4583 58.9278 61.4583 58.9278C61.4634 58.9235 61.4647 58.9189 61.4672 58.9155C61.4698 58.9133 61.4719 58.9112 61.4723 58.9087C61.4749 58.904 61.4774 58.9019 61.4787 58.8976C61.4813 58.8955 61.4838 58.8934 61.4838 58.8887C61.4864 58.8866 61.4889 58.8845 61.4893 58.8798C61.4915 58.8777 61.4944 58.873 61.4957 58.8709C61.4957 58.8662 61.4957 58.8662 61.4983 58.8641C61.5008 58.8599 61.5013 58.8552 61.5025 58.8518C61.503 58.8497 61.5029 58.8497 61.5029 58.8471C61.5489 58.7271 61.4995 58.5959 61.3529 58.5068Z" fill="url(#paint6_linear_15_525)"/>
<path d="M68.9636 63.2381L62.9911 59.524C62.7653 59.3848 62.3996 59.3911 62.1692 59.5414L56.0015 63.5572C55.771 63.7049 55.7672 63.9399 55.9896 64.0778L61.9621 67.7945C62.1858 67.9324 62.5514 67.9248 62.7844 67.775L68.9517 63.7613C69.1821 63.6111 69.186 63.3785 68.9636 63.2381Z" fill="url(#paint7_linear_15_525)"/>
<path d="M31.9283 69.8287C31.9304 69.8312 31.9304 69.8334 31.93 69.8359C31.9321 69.8406 31.9342 69.8431 31.9342 69.8465C31.9364 69.8491 31.9381 69.8512 31.9381 69.8537C31.9402 69.8584 31.9402 69.8605 31.9423 69.8618C31.9444 69.8643 31.9466 69.8682 31.9487 69.8703C31.9483 69.8728 31.9508 69.8754 31.9504 69.8775C31.9525 69.88 31.9547 69.8847 31.9568 69.886C31.9589 69.8885 31.961 69.8919 31.961 69.8919C31.9632 69.8945 31.9653 69.8991 31.97 69.9008C31.9695 69.903 31.9717 69.9055 31.9742 69.9068C31.9763 69.9093 31.978 69.914 31.9806 69.9153C31.9827 69.9178 31.9848 69.9199 31.987 69.9212C31.9891 69.9237 31.9912 69.9284 31.9955 69.9301C31.998 69.9322 32.0001 69.9348 32.0023 69.9361C32.0044 69.9386 32.0065 69.9411 32.0112 69.9424C32.0133 69.945 32.0155 69.9475 32.0176 69.9488C32.0223 69.9513 32.024 69.9539 32.0261 69.9573C32.0308 69.9598 32.0329 69.9624 32.0376 69.9641C32.0397 69.9662 32.0418 69.9687 32.0439 69.9687C32.0482 69.9738 32.0529 69.9751 32.0563 69.9776C32.0584 69.9802 32.0605 69.9827 32.0626 69.984C32.0694 69.9866 32.075 69.9904 32.0818 69.9955L38.0552 73.7121C38.2762 73.8501 38.647 73.8403 38.8753 73.6901L45.0426 69.6789C45.049 69.6725 45.0583 69.6683 45.0622 69.6619C45.0668 69.6598 45.0681 69.6577 45.0707 69.6556C45.0753 69.6535 45.0792 69.6513 45.0838 69.6471C45.0864 69.645 45.0902 69.6407 45.0928 69.6386C45.0949 69.6365 45.0987 69.6344 45.1013 69.6322C45.1038 69.6276 45.1076 69.6233 45.1123 69.6212C45.1149 69.6191 45.117 69.617 45.1174 69.6148C45.1221 69.6102 45.1259 69.6059 45.1285 69.6038C45.131 69.6017 45.1332 69.5996 45.1336 69.597C45.1383 69.5928 45.1421 69.5907 45.1446 69.5864C45.1472 69.5843 45.1472 69.5817 45.1493 69.5822C45.1523 69.5754 45.1561 69.5711 45.1587 69.5677C45.1608 69.5677 45.1612 69.5656 45.1612 69.5656C45.1659 69.5614 45.1697 69.5546 45.1723 69.5512V69.5491C45.1774 69.5448 45.1791 69.538 45.1838 69.5325C45.205 69.4948 45.2169 69.4515 45.2182 69.4099C45.2186 69.4056 45.2186 69.4031 45.219 69.401C45.2195 69.3963 45.2195 69.3904 45.2195 69.3904C45.2139 69.3013 45.1604 69.2181 45.0592 69.154L39.0854 65.4373C38.86 65.2982 38.4918 65.3066 38.2614 65.4569L32.0962 69.468C31.9512 69.5626 31.8955 69.6883 31.9287 69.8058L31.9283 69.8079C31.9253 69.8194 31.9253 69.824 31.9283 69.8287Z" fill="url(#paint8_linear_15_525)"/>
<path d="M39.6113 74.5451C39.6126 74.5778 39.6224 74.6083 39.6364 74.6393C39.6385 74.6419 39.6385 74.6419 39.6385 74.644C39.6407 74.6465 39.6424 74.6512 39.6445 74.6546C39.6466 74.6571 39.6466 74.6571 39.6492 74.6597C39.6487 74.6618 39.6509 74.6669 39.653 74.6682C39.6551 74.6703 39.6572 74.6728 39.6594 74.6767C39.6615 74.6788 39.6615 74.6813 39.6636 74.6839C39.6658 74.686 39.6679 74.6898 39.6721 74.6924C39.6721 74.6945 39.6743 74.697 39.6764 74.697C39.6785 74.7021 39.6832 74.7055 39.6874 74.7106C39.6874 74.7106 39.6874 74.7106 39.6896 74.7131C39.6938 74.7178 39.6981 74.7216 39.7023 74.7267C39.7023 74.7267 39.7023 74.7267 39.7049 74.7267C39.7091 74.7327 39.7134 74.7378 39.7197 74.7428C39.7308 74.7513 39.7431 74.7602 39.7563 74.7704C39.7652 74.7755 39.7708 74.7793 39.7771 74.7844L45.751 78.5011C45.972 78.6386 46.3403 78.6293 46.5733 78.479L52.7384 74.4679C52.7758 74.4437 52.8102 74.4136 52.8341 74.3851C52.8362 74.3856 52.8362 74.3856 52.8362 74.3856C52.8409 74.3813 52.8451 74.3745 52.8498 74.369C52.8549 74.3622 52.8587 74.358 52.8638 74.3525C52.8638 74.3525 52.8638 74.3525 52.8638 74.3503C52.8685 74.3461 52.8702 74.3393 52.8732 74.3338C52.8753 74.3338 52.8753 74.3338 52.8753 74.3338C52.8804 74.327 52.8817 74.3215 52.8847 74.3168V74.3147C52.8898 74.3083 52.891 74.3037 52.894 74.2982C52.894 74.2982 52.894 74.2982 52.894 74.2956C52.8966 74.2888 52.8983 74.2854 52.9008 74.2791C52.9131 74.2472 52.9165 74.2141 52.9153 74.1819L52.9148 74.1887C52.9114 74.0996 52.8583 74.0117 52.7537 73.9477L46.7799 70.231C46.5541 70.0918 46.1859 70.1003 45.9555 70.2505L39.7903 74.2617C39.6636 74.3431 39.6058 74.4492 39.613 74.5536L39.6113 74.5451Z" fill="url(#paint9_linear_15_525)"/>
<path d="M15.7167 70.4049C15.7162 70.4143 15.7175 70.4245 15.7196 70.433C15.7196 70.4351 15.7196 70.4351 15.7192 70.4376C15.7362 70.5115 15.7881 70.5853 15.8795 70.6396L26.2357 77.0817C26.4589 77.2209 26.8237 77.212 27.0541 77.0618L33.2218 73.0485C33.2303 73.0421 33.2376 73.0379 33.2435 73.0337C33.2546 73.023 33.2682 73.0146 33.2788 73.0048L33.2814 73.0027C33.2865 72.9984 33.2899 72.9942 33.295 72.9895C33.2971 72.9895 33.2975 72.9874 33.3001 72.9853C33.3052 72.981 33.3086 72.9768 33.3115 72.9721C33.3137 72.9721 33.3141 72.97 33.3166 72.9679C33.3217 72.9636 33.323 72.959 33.3277 72.9547C33.3298 72.9547 33.3302 72.9526 33.3302 72.9526C33.3353 72.9458 33.3366 72.9437 33.3413 72.9395C33.3413 72.9373 33.3439 72.9352 33.3443 72.9327C33.349 72.9284 33.3507 72.9238 33.3532 72.9195C33.3553 72.9195 33.3558 72.9174 33.3583 72.9153C33.3609 72.911 33.3634 72.9064 33.3647 72.903C33.3647 72.9008 33.3672 72.9008 33.3672 72.8987C33.3698 72.8945 33.3723 72.8898 33.374 72.8864C33.374 72.8843 33.3766 72.8843 33.3766 72.8822C33.3791 72.8779 33.3804 72.8733 33.3808 72.8699C33.3834 72.8677 33.3834 72.8656 33.3838 72.8631C33.3864 72.8588 33.3889 72.8542 33.3881 72.8508C33.3906 72.8486 33.3906 72.8486 33.3906 72.8465C33.391 72.8419 33.3936 72.8376 33.3949 72.8342C33.3949 72.8321 33.3953 72.8274 33.3953 72.8249C33.3979 72.8206 33.3983 72.816 33.3983 72.8147C33.4008 72.7952 33.4042 72.7782 33.4021 72.7583C33.4021 72.7604 33.4017 72.7629 33.4017 72.7651C33.3983 72.6759 33.3447 72.5881 33.238 72.5236L22.8814 66.0815C22.6582 65.9436 22.2921 65.9533 22.0617 66.1035L15.8918 70.1168C15.7668 70.1983 15.7094 70.304 15.7167 70.4049Z" fill="url(#paint10_linear_15_525)"/>
<path d="M33.3943 72.8172C33.3943 72.8194 33.3939 72.824 33.3913 72.8274C33.3913 72.8295 33.3909 72.8342 33.3909 72.8367C33.3883 72.841 33.3858 72.8457 33.3866 72.8491C33.3866 72.8512 33.3866 72.8512 33.3841 72.8533C33.3837 72.858 33.3811 72.8622 33.3798 72.8656C33.3798 72.8677 33.3794 72.8703 33.3773 72.8724C33.3769 72.8771 33.3743 72.8813 33.373 72.8847C33.373 72.8868 33.3705 72.8868 33.3705 72.8894C33.3679 72.8936 33.3654 72.8983 33.3641 72.9017C33.3641 72.9038 33.3616 72.9038 33.3616 72.9059C33.359 72.9102 33.3565 72.9148 33.3548 72.9182C33.3522 72.9203 33.3522 72.9225 33.3497 72.9225C33.3471 72.9267 33.3441 72.9314 33.3407 72.9356C33.3407 72.9377 33.3382 72.9399 33.3382 72.9424C33.3331 72.9467 33.3318 72.9513 33.3267 72.9556C33.3267 72.9556 33.3267 72.9577 33.3241 72.9577C33.319 72.9619 33.3178 72.9666 33.3127 72.9708C33.3101 72.973 33.3101 72.9751 33.3076 72.9751C33.305 72.9793 33.3012 72.984 33.2965 72.9882C33.294 72.9904 33.294 72.9925 33.2914 72.9925C33.2863 72.9967 33.2829 73.0014 33.2778 73.0056L33.2752 73.0078C33.2642 73.0184 33.251 73.0269 33.24 73.0366C33.2327 73.0409 33.2268 73.0451 33.2183 73.0515L27.0506 77.0647C26.8201 77.215 26.4553 77.2234 26.2321 77.0847L15.8755 70.6426C15.7841 70.587 15.7301 70.5165 15.7152 70.4406C15.7152 70.4384 15.7152 70.4384 15.7157 70.4359C15.714 70.4278 15.7123 70.416 15.7131 70.4079C15.7131 70.4079 15.7131 70.4079 15.7131 70.41C15.7254 70.6264 15.7369 70.8433 15.7518 71.0575C15.7552 71.1467 15.8113 71.2298 15.9147 71.2943L26.2712 77.7339C26.4944 77.8731 26.8593 77.8642 27.0897 77.714L33.2574 73.7007C33.3815 73.6209 33.4415 73.5165 33.4368 73.4147C33.4241 73.1983 33.4105 72.984 33.3977 72.7697C33.3977 72.7676 33.3981 72.765 33.3981 72.7629C33.3998 72.7807 33.3977 72.7977 33.3943 72.8172Z" fill="url(#paint11_linear_15_525)"/>
<path d="M53.9186 54.0582C53.9182 54.065 53.9178 54.0709 53.9178 54.0756C53.9174 54.0777 53.9148 54.0798 53.9148 54.0798C53.9144 54.0866 53.9118 54.09 53.9127 54.0947C53.9127 54.0968 53.9101 54.0993 53.9101 54.0993C53.9101 54.104 53.9076 54.1083 53.9084 54.1142C53.9059 54.1142 53.9059 54.1163 53.9054 54.1184C53.9029 54.1231 53.9029 54.1273 53.9012 54.1307C53.9012 54.1329 53.8986 54.135 53.8986 54.1375C53.8961 54.1418 53.8944 54.1464 53.8918 54.1498C53.8918 54.1498 53.8897 54.152 53.8893 54.1541C53.8867 54.1583 53.8842 54.163 53.8825 54.1685C53.8804 54.1685 53.8804 54.1706 53.8804 54.1706C53.8774 54.1774 53.8736 54.1817 53.871 54.1851C53.8689 54.1872 53.8689 54.1872 53.8685 54.1893C53.8638 54.1935 53.8621 54.1982 53.8574 54.2025C53.8548 54.2046 53.8548 54.2046 53.8548 54.2067C53.8497 54.2109 53.8459 54.2177 53.8412 54.2207L53.8408 54.2228C53.8361 54.2296 53.8323 54.2339 53.8247 54.239C53.8004 54.2614 53.7736 54.2831 53.7443 54.303L47.5745 58.3163C47.344 58.4665 46.9771 58.4725 46.756 58.3363L40.7822 54.6196C40.7699 54.6132 40.7588 54.603 40.7469 54.5967C40.7469 54.5945 40.7469 54.5945 40.7448 54.5941C40.7405 54.589 40.7359 54.5877 40.7303 54.5827C40.7303 54.5827 40.7303 54.5801 40.7282 54.5801C40.724 54.5754 40.7193 54.5737 40.715 54.5687L40.7129 54.5661C40.7087 54.5614 40.704 54.5576 40.701 54.5551C40.701 54.553 40.6989 54.5525 40.6989 54.5504C40.6946 54.5479 40.6899 54.544 40.6882 54.5394C40.6857 54.5394 40.6857 54.5368 40.6836 54.5368C40.6814 54.5322 40.6772 54.5283 40.6751 54.5258C40.6729 54.5232 40.6729 54.5211 40.6729 54.5211C40.6687 54.516 40.6666 54.5126 40.6623 54.5101C40.6623 54.508 40.6623 54.5054 40.6602 54.5054C40.6581 54.5008 40.6559 54.4969 40.6538 54.4923C40.6517 54.4923 40.6521 54.4897 40.6521 54.4897C40.6474 54.4846 40.6457 54.4812 40.6436 54.4766V54.4745C40.6394 54.4694 40.6372 54.466 40.6351 54.4613C40.6355 54.4592 40.6355 54.4592 40.6355 54.4592C40.6257 54.4333 40.6181 54.4074 40.6164 54.3786L40.616 54.3853L40.6551 55.0303C40.661 55.1173 40.7142 55.2026 40.8196 55.2692L46.7939 58.9859C47.015 59.1213 47.3819 59.114 47.6123 58.9638L53.7821 54.9505C53.9042 54.8708 53.962 54.766 53.9569 54.6662L53.9178 54.0166C53.9229 54.0319 53.922 54.0459 53.9186 54.0582Z" fill="url(#paint12_linear_15_525)"/>
<path d="M44.4048 80.2773C44.3912 80.0609 44.3785 79.8441 44.3661 79.6277V79.6256C44.3657 79.6324 44.3653 79.6383 44.3649 79.643V79.6451C44.3636 79.6646 44.3615 79.682 44.3564 79.7011C44.3559 79.7079 44.3534 79.7134 44.3517 79.7202C44.3517 79.7202 44.3517 79.7202 44.3517 79.7223C44.3487 79.7291 44.3466 79.7325 44.3449 79.7393C44.3419 79.7461 44.3406 79.7516 44.3355 79.7558C44.3355 79.758 44.3355 79.7584 44.3355 79.7584C44.333 79.7652 44.3313 79.7707 44.3266 79.7749V79.7775C44.3215 79.7817 44.3202 79.7885 44.3151 79.7919C44.3151 79.794 44.3151 79.794 44.3126 79.7962C44.31 79.8004 44.3062 79.8072 44.3011 79.8106C44.3011 79.8106 44.3011 79.8127 44.2985 79.8127C44.296 79.817 44.2922 79.8237 44.287 79.8271C44.287 79.8293 44.2845 79.8293 44.2845 79.8293C44.2794 79.836 44.2756 79.8403 44.2709 79.8433C44.2683 79.8454 44.2683 79.8454 44.2683 79.8454C44.2632 79.8522 44.2573 79.8564 44.2522 79.8607C44.2522 79.8628 44.2496 79.8628 44.2496 79.8653C44.2445 79.8696 44.2386 79.8738 44.2339 79.8781C44.2318 79.8781 44.2313 79.8802 44.2292 79.8802C44.2241 79.8844 44.2182 79.8908 44.2109 79.895C44.2109 79.895 44.2088 79.895 44.2084 79.8972C44.2024 79.9014 44.1927 79.9078 44.1867 79.912L38.0169 83.9253C37.7864 84.0755 37.4195 84.084 37.1963 83.9427L28.7892 78.7141C28.7569 78.6959 28.7296 78.6734 28.7067 78.6488C28.7024 78.6441 28.6978 78.6403 28.6935 78.6352L28.6914 78.6327C28.6871 78.6276 28.685 78.6263 28.6829 78.6216C28.6808 78.6191 28.6786 78.6191 28.6786 78.617C28.6765 78.6123 28.6718 78.6106 28.6701 78.6059C28.6701 78.6038 28.668 78.6013 28.6659 78.5987C28.6637 78.5962 28.6616 78.5928 28.6616 78.5928C28.6595 78.5881 28.6574 78.5856 28.6552 78.5843C28.6552 78.5822 28.6531 78.5796 28.6514 78.5758C28.6514 78.5737 28.6493 78.5711 28.6472 78.5673C28.645 78.5648 28.645 78.5626 28.6429 78.5601C28.6429 78.558 28.6412 78.552 28.6412 78.552C28.6391 78.5495 28.637 78.5469 28.637 78.5435C28.6348 78.541 28.6348 78.5389 28.6327 78.5351C28.6327 78.5325 28.6331 78.5304 28.631 78.5278C28.631 78.5257 28.6293 78.5198 28.6293 78.5198C28.6293 78.5177 28.6276 78.5117 28.6276 78.5117C28.6276 78.5096 28.628 78.5071 28.628 78.5071C28.6263 78.4964 28.6246 78.4871 28.6242 78.4769L28.6238 78.4816C28.6365 78.698 28.648 78.9123 28.6603 79.1287C28.6663 79.2178 28.722 79.3035 28.8253 79.368L37.2329 84.5962C37.4561 84.7353 37.8217 84.729 38.0526 84.5788L44.2224 80.5655C44.3525 80.484 44.4099 80.3783 44.4048 80.2773Z" fill="url(#paint13_linear_15_525)"/>
<path d="M61.4954 58.8666C61.4928 58.8688 61.4928 58.8688 61.4924 58.8734C61.4903 58.8756 61.4873 58.8802 61.486 58.8824C61.486 58.887 61.4835 58.8891 61.4809 58.8913C61.4809 58.8959 61.4784 58.8981 61.4758 58.9002C61.4733 58.9048 61.4707 58.907 61.4694 58.9112C61.469 58.9138 61.4669 58.9159 61.4643 58.918C61.4618 58.9222 61.4592 58.9269 61.4554 58.9303C61.4554 58.9303 61.4529 58.9324 61.4529 58.9345C61.4478 58.9388 61.4444 58.943 61.4418 58.9477C61.4393 58.9498 61.4393 58.9498 61.4367 58.9519C61.4342 58.9562 61.4278 58.963 61.4231 58.9659V58.9681C61.4159 58.9723 61.412 58.9766 61.4069 58.9833C61.4044 58.9833 61.4044 58.9833 61.4023 58.9855C61.3836 59.0016 61.3644 59.0164 61.3423 59.0334L55.1725 63.0467C54.9421 63.1969 54.5751 63.202 54.3532 63.0641L48.3802 59.35C48.3658 59.3411 48.3526 59.3321 48.3403 59.3232C48.3339 59.3181 48.3292 59.3143 48.3237 59.3092C48.3241 59.3071 48.3241 59.3071 48.3216 59.3067C48.3173 59.3016 48.3131 59.2982 48.3063 59.2931C48.3063 59.2931 48.3067 59.291 48.3041 59.2906C48.2999 59.2855 48.2956 59.2821 48.2914 59.277C48.2914 59.277 48.2914 59.277 48.2892 59.2744C48.2846 59.2719 48.2824 59.2681 48.2782 59.2634C48.2761 59.2609 48.2761 59.2609 48.2761 59.2587C48.2718 59.2536 48.2697 59.2502 48.2654 59.2452C48.2654 59.2452 48.2633 59.2452 48.2633 59.2426C48.2616 59.2379 48.2569 59.2341 48.2527 59.229V59.2269C48.2484 59.2218 48.2467 59.2163 48.2425 59.2112C48.2259 59.1777 48.2144 59.1437 48.2131 59.1089L48.2518 59.7586C48.2578 59.8477 48.3114 59.933 48.4168 59.9975L54.3893 63.7137C54.613 63.8517 54.9786 63.844 55.2091 63.6942L61.3768 59.6809C61.5009 59.6012 61.5583 59.4989 61.5532 59.3971C61.5409 59.1807 61.5273 58.9638 61.5149 58.7449C61.5183 58.7822 61.5103 58.8162 61.4967 58.8497C61.4962 58.8518 61.4962 58.8518 61.4962 58.8543C61.4984 58.8577 61.4979 58.8624 61.4954 58.8666Z" fill="url(#paint14_linear_15_525)"/>
<path d="M62.7849 67.7749C62.5519 67.9247 62.1854 67.9311 61.9631 67.7945L55.9905 64.0782C55.8859 64.0137 55.8302 63.9284 55.8264 63.8393L55.863 64.4911C55.8685 64.5802 55.9246 64.6633 56.028 64.73L62.0005 68.4441C62.2237 68.5833 62.5919 68.5748 62.8202 68.4246L68.99 64.4113C69.1116 64.3336 69.172 64.2293 69.1644 64.1295C69.152 63.9106 69.1406 63.6942 69.1257 63.4774C69.1329 63.5792 69.0755 63.6806 68.9514 63.7612L62.7849 67.7749Z" fill="url(#paint15_linear_15_525)"/>
<path d="M38.5949 55.3176L32.4272 59.3309C32.2546 59.4442 32.2074 59.6016 32.2903 59.7327V59.7348C32.2924 59.7395 32.2966 59.7433 32.3009 59.7484C32.3009 59.7505 32.3009 59.7505 32.303 59.751C32.3051 59.7556 32.3073 59.7594 32.3115 59.7641C32.3137 59.7667 32.3137 59.7667 32.3158 59.7688C32.3179 59.7713 32.32 59.776 32.3243 59.7773C32.3264 59.7798 32.3285 59.7824 32.3311 59.7836C32.3332 59.7849 32.3353 59.7887 32.3375 59.79C32.3396 59.7947 32.3438 59.7964 32.3464 59.7985C32.3485 59.801 32.3506 59.801 32.3506 59.8036C32.3549 59.8087 32.3591 59.8099 32.3625 59.8125C32.3625 59.8146 32.3647 59.815 32.3647 59.8172C32.3689 59.8197 32.3757 59.8235 32.3791 59.8261C32.3791 59.8282 32.3813 59.8286 32.3834 59.8312C32.3881 59.8337 32.3923 59.8375 32.3966 59.8401C32.4034 59.8452 32.4089 59.849 32.4153 59.8541L38.3891 63.5682C38.6148 63.7074 38.9775 63.6985 39.208 63.5483L45.3778 59.535C45.385 59.5307 45.3935 59.5269 45.3995 59.5201C45.402 59.518 45.4046 59.5159 45.408 59.5138C45.4127 59.5116 45.4143 59.5074 45.419 59.5053C45.4216 59.5032 45.425 59.4989 45.4275 59.4968C45.4301 59.4947 45.4339 59.4925 45.4365 59.4883C45.4386 59.4862 45.4411 59.4841 45.4424 59.4819C45.4475 59.4777 45.4509 59.4756 45.4535 59.4713C45.456 59.4692 45.4594 59.4671 45.4594 59.4671C45.4624 59.4628 45.4658 59.4582 45.4709 59.4539C45.4709 59.4518 45.4735 59.4518 45.4735 59.4497C45.4786 59.4454 45.482 59.4412 45.4849 59.4353C45.4871 59.4353 45.4871 59.4353 45.4875 59.4331C45.4922 59.4289 45.496 59.4221 45.5011 59.4191C45.5011 59.417 45.5011 59.417 45.5011 59.417C45.5381 59.364 45.5542 59.3063 45.5521 59.2507C45.5521 59.2528 45.5521 59.2553 45.5517 59.26C45.5483 59.1688 45.4951 59.0809 45.3884 59.0143L39.4125 55.2976C39.1901 55.1589 38.8253 55.1699 38.5949 55.3176Z" fill="url(#paint16_linear_15_525)"/>
<path d="M53.0831 63.7986L47.1093 60.0819C46.886 59.9427 46.5178 59.9516 46.2895 60.1019L40.1197 64.1151C39.9602 64.2178 39.9097 64.3613 39.9662 64.4835C39.9662 64.4835 39.9662 64.4835 39.9662 64.4856C39.9683 64.4902 39.9726 64.4941 39.9743 64.5009C39.9785 64.5059 39.9807 64.5119 39.9849 64.5166V64.5191C39.9892 64.5238 39.9913 64.5276 39.9955 64.5348C40.004 64.5458 40.0125 64.5543 40.0223 64.5666C40.0266 64.5717 40.0308 64.5751 40.0376 64.5828C40.0517 64.5963 40.0712 64.6116 40.0904 64.6256C40.0967 64.6307 40.1035 64.6345 40.1091 64.6396L46.085 68.3542C46.3061 68.4917 46.673 68.4844 46.9035 68.3342L53.0711 64.3209C53.0797 64.3167 53.0869 64.3103 53.0928 64.3061C53.0954 64.304 53.0979 64.3018 53.0992 64.2997C53.1039 64.2976 53.1077 64.2934 53.1124 64.2912C53.1175 64.287 53.1188 64.2849 53.1234 64.2802C53.126 64.2781 53.1285 64.276 53.1298 64.2738C53.1345 64.2717 53.1358 64.2675 53.1409 64.2628C53.1434 64.2607 53.1456 64.2607 53.1468 64.2586C53.1519 64.2543 53.1553 64.2501 53.1583 64.2454C53.1604 64.2433 53.1604 64.2433 53.163 64.2412C53.1655 64.2369 53.1694 64.2323 53.1745 64.228C53.1745 64.2259 53.1766 64.2259 53.177 64.2233C53.1817 64.2191 53.1834 64.2144 53.1881 64.2102C53.1885 64.2081 53.1885 64.2081 53.1906 64.2081C53.1932 64.2013 53.197 64.197 53.2 64.1915H53.2021C53.2047 64.1847 53.2064 64.1813 53.211 64.175C53.2854 64.046 53.2421 63.8966 53.0831 63.7986Z" fill="url(#paint17_linear_15_525)"/>
<path d="M60.6716 68.5209L54.6987 64.8068C54.4755 64.6676 54.1098 64.674 53.8789 64.8242L47.7095 68.8375C47.585 68.9173 47.5276 69.0221 47.5348 69.1239V69.1214C47.5344 69.126 47.5344 69.1307 47.5339 69.1341C47.5339 69.1341 47.5339 69.1362 47.5361 69.1388C47.5356 69.1413 47.5356 69.1409 47.5356 69.1434C47.5352 69.1481 47.5373 69.1515 47.5369 69.1561C47.5369 69.1583 47.5369 69.1583 47.539 69.1608C47.539 69.1655 47.5412 69.1689 47.5429 69.174C47.5429 69.174 47.5429 69.1761 47.5429 69.1786C47.5446 69.1833 47.5446 69.1867 47.5463 69.1914L47.5488 69.1939C47.5505 69.1986 47.5505 69.202 47.5548 69.2071C47.5548 69.2092 47.5543 69.2092 47.5565 69.2117C47.5586 69.2164 47.5607 69.2202 47.5603 69.2249C47.5628 69.2249 47.565 69.2274 47.565 69.23C47.5667 69.2346 47.5688 69.2372 47.5709 69.2406C47.5731 69.2431 47.5731 69.2431 47.5731 69.2453C47.5773 69.2503 47.5794 69.2537 47.5816 69.2563C47.5837 69.2588 47.5837 69.2588 47.5858 69.2614C47.5879 69.2661 47.5922 69.2699 47.5943 69.2724C47.5964 69.275 47.5964 69.2771 47.5986 69.2775C47.6007 69.2822 47.6049 69.286 47.6096 69.2911C47.6096 69.2911 47.6117 69.2911 47.6113 69.2936C47.616 69.2987 47.6202 69.3021 47.6236 69.3047C47.6232 69.3068 47.6236 69.3068 47.6258 69.3093C47.63 69.3119 47.6343 69.3157 47.6398 69.3208C47.6398 69.3208 47.6398 69.3229 47.6419 69.3233C47.6462 69.3284 47.6509 69.3318 47.6564 69.3348C47.656 69.3369 47.6585 69.3373 47.6585 69.3373C47.6708 69.3462 47.684 69.3552 47.6972 69.3641L53.6697 73.0782C53.8955 73.2174 54.2612 73.2114 54.492 73.0612L60.6593 69.0479C60.675 69.0373 60.6908 69.0267 60.7044 69.0174C60.709 69.0106 60.7175 69.0068 60.7226 69.0013C60.7286 68.9949 60.7358 68.9907 60.7409 68.9851C60.752 68.9745 60.763 68.9622 60.772 68.9516C60.772 68.9516 60.772 68.9516 60.772 68.9491C60.7771 68.9448 60.7809 68.938 60.7834 68.9346C60.786 68.9325 60.786 68.9325 60.786 68.9325C60.7885 68.9257 60.7924 68.9215 60.7949 68.9181C60.7975 68.916 60.7975 68.9139 60.7975 68.9139C60.8 68.9096 60.8017 68.9037 60.8068 68.8994C60.8068 68.8969 60.8068 68.8969 60.8094 68.8952C60.8119 68.8905 60.8119 68.8863 60.8132 68.8829C60.8158 68.8808 60.8162 68.8786 60.8162 68.8761C60.8187 68.874 60.8192 68.8693 60.8217 68.8663C60.8238 68.8642 60.8243 68.8617 60.8243 68.8595C60.8268 68.8553 60.8272 68.8506 60.8285 68.8472C60.8285 68.8451 60.8289 68.8426 60.8289 68.8404C60.8315 68.8383 60.8315 68.8337 60.8319 68.8303C60.8319 68.8281 60.8345 68.826 60.8349 68.8214C60.8349 68.8192 60.8349 68.8167 60.8353 68.812C60.8379 68.8099 60.8383 68.8052 60.8383 68.8031C60.8383 68.8006 60.8387 68.7984 60.8387 68.7963C60.8421 68.6911 60.7868 68.5939 60.6716 68.5209Z" fill="url(#paint18_linear_15_525)"/>
<path d="M45.4952 59.4174C45.4952 59.4174 45.4952 59.4174 45.4952 59.4196C45.4901 59.4238 45.4863 59.4306 45.4816 59.4336C45.4812 59.4357 45.4812 59.4357 45.4791 59.4357C45.4761 59.4425 45.4727 59.4467 45.4676 59.4501C45.4676 59.4522 45.465 59.4522 45.465 59.4548C45.4604 59.459 45.4565 59.4633 45.454 59.4679C45.4514 59.4679 45.4493 59.4701 45.448 59.4722C45.4451 59.4768 45.4417 59.4785 45.4366 59.4832C45.4344 59.4853 45.4319 59.4875 45.4306 59.4896C45.4281 59.4938 45.4242 59.4959 45.4221 59.4981C45.4196 59.5002 45.4157 59.5044 45.4132 59.5066C45.4085 59.5087 45.4072 59.5129 45.4021 59.515C45.3974 59.5172 45.3962 59.5193 45.3936 59.5214C45.3877 59.5278 45.3779 59.532 45.3719 59.5363L39.2021 63.5495C38.9717 63.6998 38.609 63.7087 38.3836 63.5695L32.4094 59.8553C32.403 59.8503 32.3975 59.8464 32.3907 59.8413C32.3865 59.8388 32.3822 59.835 32.3775 59.8324C32.3754 59.8299 32.3733 59.8299 32.3733 59.8278C32.369 59.8252 32.3622 59.8214 32.3588 59.8189C32.3588 59.8167 32.3567 59.8163 32.3567 59.8142C32.3524 59.8116 32.3478 59.8091 32.3448 59.8053C32.3448 59.8032 32.3427 59.8027 32.3405 59.8002C32.338 59.7976 32.3337 59.7951 32.3316 59.7917C32.3295 59.7892 32.3274 59.7866 32.3252 59.7853C32.3227 59.7841 32.321 59.7802 32.3184 59.779C32.3142 59.7764 32.3121 59.7726 32.3099 59.7705C32.3078 59.7679 32.3078 59.7679 32.3057 59.7654C32.3014 59.7603 32.2993 59.7569 32.2972 59.7522C32.295 59.7522 32.295 59.7522 32.295 59.7497C32.2908 59.7446 32.2865 59.7412 32.2844 59.7361V59.734C32.2593 59.6966 32.2478 59.6568 32.2449 59.616C32.2572 59.835 32.2708 60.0514 32.2836 60.2682C32.2895 60.3552 32.3427 60.4405 32.446 60.505L38.4198 64.2217C38.6456 64.3609 39.0078 64.3519 39.2383 64.2017L45.4085 60.1884C45.5327 60.1087 45.5901 60.0039 45.5849 59.9046C45.5722 59.6903 45.5586 59.476 45.5458 59.2617C45.5463 59.257 45.5463 59.2549 45.5467 59.2524C45.5488 59.3075 45.531 59.3652 45.4952 59.4174Z" fill="url(#paint19_linear_15_525)"/>
<path d="M53.195 64.1937H53.1928C53.1899 64.2005 53.186 64.2047 53.1835 64.2102C53.1809 64.2102 53.1809 64.2102 53.1809 64.2124C53.1763 64.2166 53.1746 64.2213 53.1699 64.2255C53.1695 64.2276 53.1673 64.2276 53.1673 64.2298C53.1622 64.234 53.1584 64.2382 53.1559 64.2429C53.1533 64.245 53.1533 64.245 53.1508 64.2471C53.1482 64.2514 53.1444 64.2561 53.1397 64.2603C53.1371 64.2624 53.135 64.2624 53.1337 64.2645C53.1286 64.2688 53.1274 64.2735 53.1227 64.2756C53.1201 64.2777 53.1176 64.2798 53.1163 64.2819C53.1116 64.2862 53.1099 64.2883 53.1053 64.2926C53.1006 64.2947 53.0968 64.2989 53.0921 64.301C53.0895 64.3032 53.087 64.3053 53.0857 64.3074C53.0797 64.3116 53.0725 64.318 53.064 64.3223L46.8963 68.3355C46.6659 68.4858 46.299 68.4917 46.0779 68.3555L40.1015 64.6409C40.0951 64.6358 40.0883 64.632 40.0828 64.6269C40.0641 64.6129 40.0445 64.5981 40.0301 64.5845C40.0237 64.5781 40.0194 64.5735 40.0152 64.5684C40.0041 64.5573 39.9965 64.5488 39.988 64.5365C39.9837 64.5306 39.982 64.5259 39.9778 64.5208V64.5187C39.9735 64.5136 39.9714 64.5081 39.9671 64.503C39.9654 64.4958 39.9612 64.4924 39.9591 64.4873C39.9591 64.4852 39.9591 64.4852 39.9591 64.4852C39.9472 64.4568 39.9395 64.4288 39.9382 64.3986L39.9769 65.0508C39.9803 65.1399 40.036 65.2252 40.1406 65.2897L46.1165 69.0064C46.3376 69.1443 46.7046 69.1367 46.935 68.9865L53.1027 64.9732C53.2269 64.8934 53.2847 64.789 53.2796 64.6893L53.2409 64.0371C53.2434 64.0846 53.2311 64.1322 53.2052 64.1788C53.2001 64.1822 53.1975 64.1869 53.195 64.1937Z" fill="url(#paint20_linear_15_525)"/>
<path d="M60.8353 68.8048C60.8353 68.8095 60.8349 68.8116 60.8349 68.8142C60.8345 68.8188 60.8319 68.821 60.8319 68.8231C60.8315 68.8277 60.8315 68.8324 60.8289 68.8333C60.8289 68.8354 60.8285 68.8379 60.8285 68.8401C60.826 68.8443 60.8255 68.849 60.8243 68.8524C60.8243 68.8545 60.8238 68.857 60.8213 68.8591C60.8187 68.8634 60.8183 68.8681 60.8162 68.8693C60.8162 68.8715 60.8158 68.874 60.8136 68.8761C60.8107 68.8804 60.8107 68.885 60.8094 68.8884C60.8068 68.8905 60.8068 68.8905 60.8064 68.8927C60.8017 68.8969 60.8 68.9037 60.7975 68.9071C60.7975 68.9071 60.7975 68.9092 60.7949 68.9118C60.7924 68.916 60.7885 68.9207 60.786 68.9262C60.786 68.9262 60.786 68.9262 60.7834 68.9283C60.7809 68.933 60.7771 68.9393 60.772 68.9427C60.772 68.9449 60.772 68.9453 60.772 68.9453C60.763 68.9563 60.752 68.9682 60.7409 68.9788C60.7358 68.9856 60.7299 68.9898 60.7226 68.9949C60.7175 69.0017 60.709 69.0055 60.7039 69.0111C60.6908 69.0217 60.675 69.0323 60.6593 69.0416L54.4916 73.0549C54.2612 73.2051 53.8947 73.211 53.6702 73.0719L47.6972 69.3577C47.684 69.3488 47.6717 69.3399 47.6585 69.331C47.6585 69.331 47.6564 69.331 47.6564 69.3285C47.6496 69.3255 47.6453 69.3221 47.6419 69.317C47.6398 69.317 47.6398 69.3144 47.6398 69.3144C47.6334 69.3094 47.6287 69.3055 47.6253 69.303C47.6232 69.3004 47.6232 69.3004 47.6236 69.2983C47.619 69.2958 47.6147 69.292 47.6117 69.2873C47.6117 69.2852 47.6092 69.2847 47.6092 69.2847C47.6049 69.2797 47.6007 69.2763 47.599 69.2716C47.5964 69.2716 47.5964 69.269 47.5943 69.2665C47.5922 69.264 47.5879 69.2601 47.5858 69.2555C47.5837 69.2529 47.5837 69.2529 47.5816 69.2504C47.5794 69.2478 47.5773 69.2432 47.5731 69.2393C47.5731 69.2372 47.5731 69.2372 47.5709 69.2347C47.5692 69.23 47.5667 69.2275 47.5645 69.2241C47.565 69.2215 47.5628 69.2194 47.5607 69.219C47.5607 69.2143 47.5586 69.2109 47.5569 69.2058C47.5548 69.2033 47.5548 69.2033 47.5548 69.2012C47.5505 69.1961 47.5505 69.1927 47.5484 69.188L47.5463 69.1855C47.5446 69.1808 47.5446 69.1774 47.5424 69.1727C47.5429 69.1706 47.5429 69.1681 47.5429 69.1681C47.5407 69.1634 47.539 69.1596 47.539 69.1549C47.5369 69.1524 47.5369 69.1524 47.5373 69.1502C47.5373 69.1456 47.5356 69.1422 47.5356 69.1375C47.5361 69.1354 47.5361 69.1354 47.5361 69.1328C47.5339 69.1303 47.5339 69.1282 47.5339 69.1282C47.5344 69.1235 47.5344 69.1188 47.5348 69.1154V69.118L47.5735 69.7681C47.5769 69.8567 47.6326 69.9399 47.7359 70.007L53.7088 73.7211C53.9342 73.8603 54.2998 73.8539 54.5286 73.7011L60.6984 69.6904C60.8226 69.6106 60.88 69.5058 60.8727 69.4061C60.8604 69.1872 60.8489 68.9707 60.8362 68.7543C60.8357 68.7645 60.8362 68.7739 60.8357 68.7845C60.8353 68.7866 60.8353 68.7891 60.8353 68.7913C60.8383 68.7993 60.8379 68.8036 60.8353 68.8048Z" fill="url(#paint21_linear_15_525)"/>
<path d="M24.0733 64.9583C24.0755 64.9608 24.0776 64.9655 24.0797 64.9668C24.0797 64.9689 24.0818 64.9714 24.0818 64.974C24.084 64.9787 24.0861 64.9799 24.0882 64.9825C24.0878 64.9846 24.0903 64.9871 24.0925 64.9884C24.092 64.9931 24.0942 64.9956 24.0963 64.999C24.0984 65.0016 24.1005 65.0016 24.1005 65.0041C24.1027 65.0088 24.1048 65.0113 24.1069 65.0147C24.109 65.0173 24.1112 65.0173 24.1133 65.0198C24.1154 65.0245 24.1175 65.027 24.1197 65.0283C24.1222 65.0308 24.1244 65.033 24.1265 65.0347C24.1282 65.0393 24.1307 65.0419 24.1329 65.0431C24.1371 65.0457 24.1392 65.0482 24.1414 65.0495C24.1435 65.0521 24.146 65.0542 24.1482 65.0559C24.1503 65.0584 24.1545 65.061 24.1571 65.0623C24.1592 65.0648 24.1613 65.0682 24.1656 65.0707C24.1677 65.0733 24.1698 65.0754 24.1745 65.0771C24.1767 65.0796 24.1788 65.0822 24.1835 65.0835C24.1877 65.086 24.1898 65.0886 24.1945 65.0898C24.1966 65.0924 24.1988 65.0949 24.2009 65.0949C24.2077 65.1 24.2132 65.1038 24.2196 65.1089L30.1959 68.8256C30.4192 68.9648 30.7874 68.9563 31.0182 68.8035L37.1851 64.7949C37.1915 64.7886 37.1987 64.7843 37.2072 64.7801C37.2097 64.7758 37.2123 64.7733 37.2157 64.7712C37.2182 64.769 37.2221 64.7648 37.2242 64.7627C37.2293 64.7605 37.2327 64.7563 37.2353 64.7542C37.2378 64.7521 37.2425 64.7499 37.2438 64.7478C37.2489 64.7436 37.2501 64.7389 37.2548 64.7372C37.2574 64.7351 37.2599 64.733 37.2599 64.7304C37.265 64.7262 37.2688 64.7219 37.2735 64.7173C37.2735 64.7173 37.2761 64.7151 37.2761 64.713C37.2812 64.7088 37.285 64.7045 37.2876 64.6999C37.2897 64.6999 37.2897 64.6977 37.2922 64.6956C37.2948 64.691 37.2986 64.6867 37.3012 64.6833C37.3033 64.6833 37.3037 64.6812 37.3037 64.6812C37.3088 64.6744 37.3101 64.6702 37.3148 64.6668C37.3148 64.6668 37.3152 64.6647 37.3177 64.6621C37.3203 64.6579 37.3228 64.6532 37.3241 64.6498C37.3267 64.6477 37.3267 64.6477 37.3267 64.6477C37.3292 64.6409 37.3318 64.6375 37.3335 64.6333C37.3356 64.6311 37.336 64.629 37.336 64.629C37.3386 64.6248 37.3399 64.6201 37.3424 64.6146L37.3428 64.6125C37.3454 64.6057 37.3471 64.6023 37.3471 64.5976C37.3496 64.5955 37.3496 64.5955 37.3496 64.5934C37.3501 64.5887 37.3526 64.5845 37.3518 64.5806C37.3543 64.5785 37.3543 64.5764 37.3547 64.5738C37.3547 64.5692 37.3573 64.5649 37.3577 64.5615C37.3581 64.5569 37.3581 64.5548 37.3607 64.5514C37.3607 64.5492 37.3611 64.5467 37.3611 64.5446C37.3615 64.5378 37.362 64.5318 37.3611 64.525C37.3615 64.5183 37.362 64.5123 37.3624 64.5055L37.362 64.5102C37.3564 64.4211 37.3029 64.3333 37.1974 64.2688L31.2236 60.5521C31.0004 60.4129 30.6343 60.4239 30.4039 60.5741L24.2387 64.5853C24.0878 64.6842 24.0317 64.8178 24.0725 64.9379C24.0746 64.9405 24.0746 64.9426 24.0767 64.9451C24.0704 64.9519 24.0733 64.9583 24.0733 64.9583Z" fill="url(#paint22_linear_15_525)"/>
<path d="M24.1026 65.5286C24.1085 65.6156 24.1621 65.7009 24.2641 65.7649L30.2401 69.4816C30.4633 69.6195 30.8319 69.6098 31.0624 69.4595L37.2296 65.4488C37.3517 65.369 37.4116 65.2642 37.4065 65.1624L37.3678 64.5149L37.3682 64.5102C37.3678 64.517 37.3674 64.5229 37.367 64.5297C37.3665 64.5365 37.3661 64.5424 37.3665 64.5492C37.3665 64.5514 37.3665 64.5539 37.3661 64.556C37.3636 64.5603 37.3636 64.5628 37.3631 64.5662C37.3627 64.5709 37.3602 64.5751 37.3602 64.5785C37.3597 64.5806 37.3597 64.5832 37.3572 64.5853C37.3572 64.59 37.3542 64.5942 37.3555 64.598C37.3551 64.6002 37.3551 64.6002 37.3529 64.6023C37.3525 64.6069 37.35 64.6112 37.3483 64.6171V64.6192C37.3453 64.626 37.344 64.6294 37.3415 64.6337C37.3415 64.6337 37.3415 64.6358 37.3389 64.6383C37.3364 64.6426 37.3338 64.6473 37.3321 64.6528C37.3321 64.6528 37.3321 64.6528 37.3296 64.6549C37.327 64.6591 37.3244 64.6638 37.3232 64.6672C37.3206 64.6693 37.3206 64.6714 37.3206 64.6714C37.3155 64.6757 37.3142 64.6803 37.3091 64.6859C37.3091 64.6859 37.3091 64.688 37.3066 64.688C37.304 64.6922 37.3002 64.6969 37.2977 64.7003C37.2955 64.7024 37.2951 64.7045 37.293 64.7045C37.2904 64.7092 37.2866 64.7134 37.2815 64.7177C37.2815 64.7198 37.279 64.7224 37.279 64.7224C37.2743 64.7266 37.2705 64.7308 37.2654 64.7351C37.2654 64.7372 37.2628 64.7398 37.2607 64.7419C37.2556 64.744 37.2543 64.7482 37.2492 64.7525C37.2471 64.7546 37.242 64.7567 37.2407 64.7588C37.2386 64.761 37.2347 64.7652 37.2301 64.7673C37.2275 64.7695 37.2237 64.7737 37.2211 64.7758C37.2165 64.7779 37.2152 64.7801 37.2126 64.7843C37.2041 64.7886 37.1969 64.7924 37.1909 64.7992L31.0237 68.8078C30.7928 68.9601 30.4238 68.9686 30.2014 68.8299L24.2255 65.1132C24.2187 65.1081 24.2131 65.1043 24.2067 65.0992C24.2042 65.0992 24.2021 65.0966 24.1999 65.0941C24.1957 65.0915 24.1936 65.089 24.1889 65.0877C24.1842 65.0852 24.1821 65.0826 24.18 65.0813C24.1778 65.0788 24.1736 65.0762 24.171 65.075C24.1668 65.0724 24.1647 65.0686 24.1625 65.0665C24.1604 65.0644 24.1557 65.0614 24.1536 65.0601C24.1515 65.0576 24.1493 65.055 24.1472 65.0542C24.1451 65.0516 24.1404 65.0491 24.1383 65.0478C24.1362 65.0453 24.134 65.0427 24.1319 65.0393C24.1298 65.0368 24.1277 65.0347 24.1255 65.0334C24.1234 65.0308 24.1213 65.0283 24.1192 65.0249C24.117 65.0224 24.1145 65.0224 24.1124 65.0198C24.1102 65.0151 24.1081 65.0126 24.106 65.0092C24.1064 65.0071 24.1039 65.0067 24.1017 65.0041C24.1 64.9994 24.0979 64.9969 24.0979 64.9935C24.0958 64.991 24.0936 64.9876 24.0936 64.9876C24.0915 64.985 24.0894 64.9825 24.0873 64.9791C24.0873 64.977 24.0851 64.9744 24.0856 64.9719C24.083 64.9693 24.0813 64.9659 24.0792 64.9634C24.0792 64.9613 24.0771 64.9553 24.0771 64.9553C24.0749 64.9528 24.0754 64.9506 24.0732 64.9481C24.0652 64.9256 24.0622 64.9048 24.0601 64.8828C24.0762 65.0953 24.0911 65.3122 24.1026 65.5286Z" fill="url(#paint23_linear_15_525)"/>
<path d="M16.2574 59.9249C16.2595 59.9275 16.2617 59.9321 16.2638 59.9334C16.2638 59.9355 16.2659 59.9381 16.2659 59.9406C16.268 59.9453 16.2702 59.9466 16.2723 59.9491C16.2719 59.9512 16.2744 59.9538 16.2765 59.9551C16.2761 59.9597 16.2782 59.9623 16.2804 59.9657C16.2825 59.9682 16.2846 59.9682 16.2846 59.9703C16.2867 59.975 16.2889 59.9775 16.291 59.9809C16.2931 59.9835 16.2953 59.9835 16.2974 59.986C16.2995 59.9907 16.3016 59.9932 16.3038 59.9945C16.3063 59.9971 16.3084 59.9996 16.3106 60.0009C16.3123 60.0055 16.3148 60.0081 16.3169 60.0094C16.3212 60.0119 16.3233 60.0145 16.3254 60.0157C16.3276 60.0183 16.3301 60.0208 16.3322 60.0221C16.3344 60.0246 16.3386 60.0272 16.3412 60.0285C16.3433 60.031 16.3454 60.0344 16.3497 60.037C16.3518 60.0395 16.3539 60.042 16.3586 60.0433C16.3607 60.0459 16.3629 60.048 16.3675 60.0497C16.3718 60.0522 16.3739 60.0548 16.3786 60.056C16.3807 60.0586 16.3828 60.0611 16.385 60.0611C16.3918 60.0662 16.3973 60.07 16.4037 60.0751L22.38 63.7918C22.6032 63.931 22.9715 63.9225 23.2023 63.7698L45.9513 49.1529C45.9576 49.1466 45.9649 49.1423 45.9734 49.1381C45.9759 49.1339 45.9785 49.1313 45.9819 49.1292C45.9844 49.1271 45.9882 49.1228 45.9904 49.1207C45.9955 49.1186 45.9989 49.1143 46.0014 49.1122C46.004 49.1101 46.0086 49.108 46.0099 49.1058C46.015 49.1016 46.0163 49.0969 46.021 49.0948C46.0235 49.0927 46.0261 49.0906 46.0261 49.0885C46.0312 49.0842 46.035 49.0795 46.0397 49.0753C46.0397 49.0753 46.0422 49.0732 46.0422 49.0711C46.0473 49.0668 46.0512 49.0626 46.0537 49.0579C46.0558 49.0579 46.0558 49.0558 46.0584 49.0537C46.0609 49.049 46.0648 49.0447 46.0673 49.0414C46.0695 49.0414 46.0699 49.0392 46.0699 49.0392C46.075 49.0324 46.0763 49.0282 46.0809 49.0248C46.0809 49.0248 46.0814 49.0227 46.0839 49.0201C46.0865 49.0159 46.089 49.0112 46.0903 49.0078C46.0928 49.0057 46.0928 49.0057 46.0928 49.0057C46.0954 48.9989 46.0979 48.9955 46.0996 48.9913C46.1018 48.9892 46.1022 48.987 46.1022 48.987C46.1047 48.9828 46.106 48.9781 46.1086 48.9726L46.109 48.9701C46.1115 48.9633 46.1132 48.9599 46.1132 48.9552C46.1158 48.9531 46.1158 48.9531 46.1158 48.951C46.1162 48.9463 46.1188 48.9421 46.1179 48.9382C46.1205 48.9361 46.1205 48.934 46.1209 48.9314C46.1209 48.9268 46.1235 48.9225 46.1239 48.9191C46.1243 48.9145 46.1243 48.9124 46.1269 48.909C46.1269 48.9068 46.1273 48.9043 46.1273 48.9022C46.1277 48.8954 46.1281 48.8894 46.1273 48.8827C46.1277 48.8759 46.1281 48.8699 46.1286 48.8631L46.1281 48.8678C46.1226 48.7787 46.069 48.6909 45.9636 48.6264L39.9898 44.9097C39.7666 44.7705 39.4005 44.7815 39.17 44.9317L16.4228 59.5511C16.2719 59.65 16.2157 59.7836 16.2566 59.9037C16.2587 59.9063 16.2587 59.9084 16.2608 59.9109C16.2544 59.919 16.2574 59.9249 16.2574 59.9249Z" fill="url(#paint24_linear_15_525)"/>
<path d="M16.2867 60.4952C16.2926 60.5822 16.3462 60.6675 16.4482 60.732L22.4242 64.4487C22.6474 64.5866 23.016 64.5768 23.2465 64.4266L45.9958 49.8077C46.1178 49.7279 46.1778 49.6231 46.1727 49.5213L46.134 48.8737L46.1344 48.8691C46.134 48.8759 46.1336 48.8818 46.1331 48.8886C46.1327 48.8954 46.1323 48.9013 46.1327 48.9081C46.1327 48.9102 46.1327 48.9128 46.1323 48.9149C46.1297 48.9192 46.1297 48.9217 46.1293 48.9251C46.1289 48.9298 46.1263 48.934 46.1263 48.9378C46.1259 48.9399 46.1259 48.9425 46.1234 48.9446C46.1234 48.9493 46.1204 48.9535 46.1217 48.9573C46.1212 48.9595 46.1212 48.9595 46.1191 48.9616C46.1187 48.9663 46.1161 48.9705 46.1144 48.9764V48.979C46.1115 48.9858 46.1102 48.9892 46.1076 48.9934C46.1076 48.9934 46.1076 48.9955 46.1051 48.9981C46.1025 49.0023 46.1 49.007 46.0983 49.0125C46.0983 49.0125 46.0983 49.0125 46.0957 49.0146C46.0932 49.0189 46.0906 49.0235 46.0893 49.0269C46.0868 49.0291 46.0868 49.0312 46.0868 49.0312C46.0817 49.0354 46.0804 49.0401 46.0753 49.0456C46.0753 49.0456 46.0753 49.0477 46.0728 49.0477C46.0702 49.052 46.0664 49.0566 46.0638 49.06C46.0617 49.0622 46.0613 49.0643 46.0592 49.0643C46.0566 49.0689 46.0528 49.0732 46.0477 49.0774C46.0477 49.0795 46.0451 49.0821 46.0451 49.0821C46.0404 49.0863 46.0366 49.0906 46.0315 49.0948C46.0315 49.0969 46.029 49.0995 46.0268 49.1016C46.0217 49.1037 46.0205 49.108 46.0154 49.1122C46.0132 49.1143 46.0081 49.1165 46.0069 49.1186C46.0047 49.1207 46.0009 49.1249 45.9962 49.1271C45.9937 49.1292 45.9899 49.1334 45.9873 49.136C45.9826 49.1381 45.9813 49.1402 45.9788 49.1445C45.9703 49.1487 45.9631 49.1525 45.9571 49.1593L23.2078 63.7761C22.9769 63.9285 22.6078 63.937 22.3855 63.7982L16.4095 60.0815C16.4027 60.0764 16.3972 60.0726 16.3908 60.0675C16.3883 60.0675 16.3862 60.065 16.384 60.0624C16.3798 60.0599 16.3776 60.0573 16.373 60.0561C16.3683 60.0535 16.3662 60.051 16.364 60.0497C16.3619 60.0471 16.3577 60.0446 16.3551 60.0433C16.3509 60.0408 16.3487 60.037 16.3466 60.0348C16.3445 60.0327 16.3398 60.0297 16.3377 60.0285C16.3356 60.0259 16.3334 60.0238 16.3313 60.0225C16.3292 60.02 16.3245 60.0174 16.3224 60.0162C16.3202 60.0136 16.3181 60.0111 16.316 60.0077C16.3139 60.0051 16.3117 60.003 16.3096 60.0013C16.3075 59.9988 16.3054 59.9962 16.3032 59.9928C16.3011 59.9903 16.2986 59.9903 16.2964 59.9877C16.2943 59.9831 16.2922 59.9805 16.2901 59.9771C16.2905 59.975 16.2879 59.9746 16.2858 59.972C16.2841 59.9674 16.282 59.9648 16.282 59.9614C16.2799 59.9589 16.2777 59.9555 16.2777 59.9555C16.2756 59.9529 16.2735 59.9508 16.2714 59.947C16.2714 59.9449 16.2692 59.9423 16.2697 59.9398C16.2671 59.9372 16.2654 59.9338 16.2633 59.9313C16.2633 59.9292 16.2611 59.9232 16.2611 59.9232C16.259 59.9207 16.2594 59.9186 16.2573 59.916C16.2492 59.8935 16.2463 59.8727 16.2441 59.8507C16.2603 60.062 16.2752 60.2788 16.2867 60.4952Z" fill="url(#paint25_linear_15_525)"/>
<path d="M31.9574 70.4135C31.9608 70.5026 32.0165 70.5879 32.1211 70.6524L38.0949 74.3691C38.316 74.5044 38.6842 74.4972 38.9147 74.347L45.0824 70.3337C45.204 70.2539 45.2639 70.1491 45.2592 70.0473L45.2201 69.3998L45.2206 69.3955C45.2206 69.3976 45.2206 69.3976 45.2206 69.3976C45.2201 69.3998 45.2197 69.4044 45.2197 69.4078C45.2197 69.4104 45.2193 69.4125 45.2193 69.4172C45.2176 69.4587 45.2057 69.5003 45.1844 69.5394C45.1793 69.5461 45.178 69.5517 45.1729 69.5559V69.5585C45.1704 69.5627 45.1666 69.5695 45.1615 69.5725C45.1615 69.5725 45.1615 69.575 45.1593 69.575C45.1568 69.5792 45.153 69.5835 45.15 69.589C45.1479 69.589 45.1474 69.5916 45.1453 69.5937C45.1427 69.5979 45.1389 69.6 45.1342 69.6043C45.1338 69.6064 45.1317 69.6089 45.1291 69.6111C45.1266 69.6132 45.1228 69.6174 45.1181 69.6217C45.1177 69.6242 45.1151 69.6263 45.113 69.6285C45.1079 69.6302 45.1045 69.6348 45.1019 69.6391C45.0994 69.6412 45.0956 69.6433 45.0934 69.6454C45.0909 69.6476 45.087 69.6522 45.0845 69.6543C45.0798 69.6586 45.076 69.6607 45.0713 69.6624C45.0688 69.6645 45.0666 69.6671 45.0628 69.6688C45.0577 69.6756 45.0492 69.6798 45.0433 69.6862L38.876 73.6973C38.6477 73.8476 38.2761 73.8556 38.0558 73.7194L32.082 70.0027C32.0756 69.9976 32.0701 69.9938 32.0633 69.9908C32.0612 69.9887 32.0591 69.9862 32.0569 69.9849C32.0523 69.9824 32.048 69.9798 32.0446 69.976C32.0425 69.976 32.0403 69.9734 32.0382 69.9709C32.0335 69.9684 32.0314 69.9658 32.0267 69.9645C32.025 69.9599 32.0229 69.9573 32.0182 69.9556C32.0161 69.9535 32.014 69.951 32.0119 69.9497C32.0072 69.9471 32.0051 69.9446 32.0029 69.9433C32.0008 69.9408 31.9987 69.9382 31.9961 69.937C31.9919 69.9344 31.9898 69.931 31.9876 69.9285C31.9855 69.9259 31.9834 69.9234 31.9812 69.9221C31.9791 69.92 31.9766 69.9162 31.9744 69.9136C31.9723 69.9115 31.9706 69.9077 31.9706 69.9077C31.9659 69.9051 31.9638 69.9017 31.9617 69.8992C31.9617 69.8966 31.9596 69.8945 31.9574 69.8932C31.9553 69.8907 31.9532 69.886 31.9511 69.8848C31.9511 69.8822 31.9494 69.8797 31.9494 69.8775C31.9472 69.875 31.9451 69.8703 31.943 69.8691C31.9409 69.8665 31.9409 69.8644 31.9387 69.8606C31.9392 69.8585 31.9366 69.8559 31.9345 69.8534C31.9349 69.8491 31.9328 69.8466 31.9307 69.8427C31.9307 69.8406 31.9311 69.8381 31.929 69.836C31.9268 69.8309 31.9272 69.8275 31.9251 69.8228V69.8207C31.9196 69.8029 31.9158 69.7855 31.9158 69.7681L31.9574 70.4135Z" fill="url(#paint26_linear_15_525)"/>
<path d="M52.899 74.274C52.8965 74.2808 52.8948 74.2841 52.8922 74.2909C52.8922 74.2931 52.8922 74.2931 52.8922 74.2931C52.8893 74.2998 52.888 74.3032 52.8829 74.31V74.3122C52.8803 74.3168 52.8786 74.3223 52.8735 74.3291C52.8735 74.3291 52.8735 74.3291 52.8714 74.3287C52.8684 74.3355 52.8671 74.3414 52.862 74.3457C52.862 74.3478 52.862 74.3478 52.862 74.3478C52.8569 74.3546 52.8531 74.3588 52.848 74.3643C52.8433 74.3707 52.8395 74.3762 52.8344 74.3805C52.8344 74.3805 52.8344 74.3805 52.8319 74.3805C52.8072 74.4102 52.774 74.439 52.7366 74.4632L46.5715 78.4744C46.3385 78.6242 45.9694 78.6327 45.7492 78.4964L39.7754 74.7798C39.769 74.7747 39.7635 74.7709 39.7545 74.7658C39.7409 74.7568 39.729 74.7479 39.718 74.7378C39.7116 74.7331 39.7069 74.7293 39.7031 74.7221C39.7005 74.7216 39.7005 74.7216 39.7005 74.7216C39.6963 74.717 39.692 74.7131 39.6878 74.7081C39.6857 74.7059 39.6857 74.7059 39.6857 74.7059C39.681 74.7008 39.6767 74.697 39.6746 74.6924C39.6725 74.6924 39.6704 74.6898 39.6708 74.6877C39.6661 74.6851 39.664 74.6813 39.6619 74.6788C39.6597 74.6767 39.6597 74.6741 39.6576 74.6716C39.6555 74.6669 39.6534 74.6643 39.6512 74.6631C39.6491 74.6609 39.647 74.655 39.647 74.655C39.6448 74.6525 39.6453 74.6525 39.6431 74.6499C39.641 74.6452 39.6389 74.6419 39.6368 74.6393C39.6368 74.6368 39.6368 74.6368 39.6346 74.6346C39.6206 74.6037 39.6108 74.5731 39.6096 74.5404L39.6091 74.5451L39.6482 75.1901C39.6542 75.2796 39.7078 75.3624 39.8119 75.4294L45.7857 79.1457C46.0068 79.2836 46.375 79.2738 46.6055 79.124L52.7732 75.1129C52.8952 75.0305 52.9573 74.9262 52.9501 74.8256L52.9109 74.1802L52.9114 74.1734C52.9135 74.2103 52.9114 74.2426 52.899 74.274Z" fill="url(#paint27_linear_15_525)"/>
<path d="M90.3682 26.8859L84.6623 59.5141C84.513 60.3772 83.8842 60.9887 83.138 61.2004C82.6035 61.3494 82.0142 61.2942 81.4798 60.9806L46.5303 40.4156C44.9584 39.4901 44.1255 37.6939 44.432 35.8978L50.1533 2.69668C50.271 2.0534 50.6954 1.57519 51.2298 1.34775C51.7328 1.12031 52.3378 1.12794 52.8646 1.44195L88.042 21.8975C89.787 22.9172 90.7143 24.9022 90.3682 26.8859Z" fill="url(#paint28_linear_15_525)"/>
<path d="M87.5429 27.0977L82.4416 56.2693C82.3081 57.0408 81.746 57.5877 81.0785 57.777C80.6006 57.9102 80.0738 57.861 79.5959 57.5805L48.3484 39.194C46.9432 38.3665 46.1983 36.7604 46.4725 35.1548L51.5879 5.47096C51.6933 4.89599 52.0726 4.46827 52.5505 4.26502C53.0003 4.06177 53.5412 4.06856 54.0118 4.34904L85.4629 22.6376C87.0229 23.5494 87.852 25.3244 87.5429 27.0977Z" fill="url(#paint29_linear_15_525)"/>
<path d="M91.7483 26.5095L86.0509 59.1378C85.823 60.4396 84.3693 61.5144 83.1431 61.2004C83.8897 60.9887 84.5185 60.3768 84.6674 59.5142L90.3733 26.8859C90.719 24.9018 89.7921 22.9172 88.0471 21.8975L52.8693 1.44197C52.3429 1.12839 51.4798 1.25611 50.9768 1.48355C51.919 0.591614 53.3174 0.516508 54.2524 1.05753L89.4298 21.5207C91.1748 22.5327 92.1021 24.525 91.7483 26.5095Z" fill="url(#paint30_linear_15_525)"/>
<path d="M69.1647 16.4322C69.481 16.4322 69.7374 16.1763 69.7374 15.8606C69.7374 15.5449 69.481 15.2891 69.1647 15.2891C68.8484 15.2891 68.5916 15.5449 68.5916 15.8606C68.592 16.1763 68.8484 16.4322 69.1647 16.4322Z" fill="url(#paint31_linear_15_525)"/>
<path opacity="0.4" d="M12.4346 43.296C6.92951 32.2635 11.4289 18.8658 22.4842 13.3723C33.539 7.87876 46.9637 12.3691 52.4682 23.4016C57.9728 34.4342 53.4734 47.8319 42.4186 53.3254C31.3639 58.8195 17.9392 54.3286 12.4346 43.296Z" fill="url(#paint32_radial_15_525)"/>
<path d="M12.4346 43.296C6.92951 32.2635 11.4289 18.8658 22.4842 13.3723C33.539 7.87876 46.9637 12.3691 52.4682 23.4016C57.9728 34.4342 53.4734 47.8319 42.4186 53.3254C31.3639 58.8195 17.9392 54.3286 12.4346 43.296Z" fill="url(#paint33_linear_15_525)"/>
<path d="M5.073 46.0875C5.0991 46.0669 5.1252 46.0469 5.1513 46.0263C5.12577 46.0469 5.09967 46.0675 5.073 46.0875Z" fill="#1FBBCC"/>
<path d="M37.009 40.3918C36.6055 40.2695 36.1916 40.1697 35.7714 40.1599C34.6379 40.1334 33.8194 39.5028 33.0304 38.7973C32.0021 37.8778 31.0362 36.8873 29.9403 36.0445C28.9513 35.2836 27.8883 34.6814 26.6195 34.5083C25.8137 34.3982 25.0461 34.5285 24.3288 34.866C23.5698 35.2231 22.819 35.2121 22.0381 35.0079C20.4751 34.6001 19.0335 33.939 17.7318 32.9785C17.1104 32.5199 16.7185 32.0122 16.8948 31.1435C17.0456 30.3993 16.7439 29.6875 16.3532 29.0402C16.1208 28.6555 15.8665 28.2834 15.6422 27.8946C15.359 27.4042 15.374 26.8937 15.6202 26.3947C15.7867 26.0573 15.9647 25.7227 16.1705 25.4077C16.4913 24.9168 16.9225 24.6035 17.5532 24.6837C18.189 24.7645 18.6104 25.1233 18.8728 25.6898C19.045 26.0607 19.1063 26.4651 19.2219 26.8533C19.3161 27.17 19.3843 27.5231 19.7999 27.5836C20.2485 27.6494 20.5144 27.3783 20.6999 27.0316C21.0884 26.3059 21.2242 25.4942 21.3803 24.7033C21.556 23.8167 22.0184 23.2479 22.8924 23.0604C23.6063 22.907 24.0432 22.5095 24.3802 21.8629C24.9375 20.7939 25.7334 19.9119 26.7866 19.2831C27.0345 19.1354 27.2715 18.9612 27.4871 18.7697C27.7889 18.5015 27.9016 18.1703 27.8091 17.7515C27.6623 17.0881 27.7975 16.8845 28.4773 16.7564C29.0605 16.6463 29.6553 16.5943 30.2437 16.5095C30.8472 16.4224 31.309 16.1698 31.631 15.5975C32.3298 14.3549 32.6709 13.0582 32.4634 11.6362C32.4027 11.4377 32.3426 11.2399 32.2819 11.0414C31.0299 10.9774 29.794 11.1389 28.5651 11.3426C28.0576 11.4268 27.5264 11.4447 27.0617 11.7141C26.3692 12.8314 25.7582 14.0065 24.8282 14.9589C24.3849 15.4129 24.0768 15.4331 23.5646 15.0691C22.9866 14.6584 22.5589 14.1184 22.271 13.4695C22.093 13.44 21.9704 13.5623 21.8329 13.635C19.589 14.8216 17.6017 16.3434 15.8948 18.22C14.022 20.2794 12.4555 22.5297 11.6128 25.2185C11.2706 26.7628 11.1787 28.3082 11.5226 29.8686C11.7567 30.9323 12.2613 31.8426 12.9867 32.6422C14.1347 33.9067 15.5347 34.836 17.0144 35.6598C18.1451 36.2885 19.3179 36.8337 20.4872 37.3852C20.7942 37.53 20.871 37.6557 20.7306 38.0036C20.2225 39.2611 19.8681 40.5608 19.9271 41.9355C19.993 43.4682 20.5884 44.7085 21.956 45.5115C22.7941 46.0041 23.6681 46.4339 24.4623 47.005C25.7299 47.917 26.2571 49.1273 26.1554 50.6819C26.0681 52.0122 25.8022 53.3286 25.8542 54.6681C26.1045 54.7425 26.3519 54.8267 26.6045 54.889C27.9004 55.2074 29.2021 55.4907 30.5443 55.5218C30.6247 55.4232 30.7148 55.3372 30.8385 55.2945C31.8206 54.5723 32.8558 53.9216 33.7784 53.1175C34.4223 52.5562 34.9518 51.9228 35.2448 51.1007C35.598 50.1102 36.4165 49.4988 37.1801 48.8521C38.1772 48.0076 39.2344 47.2294 40.132 46.2752C40.8372 45.5259 41.4257 44.7073 41.406 43.5986C41.3997 43.2398 41.2829 42.9525 41.043 42.6987C39.932 41.523 38.5303 40.8533 37.009 40.3918Z" fill="url(#paint34_radial_15_525)"/>
<path d="M53.6353 26.6291C51.1867 19.3503 46.2926 14.4953 39.0146 12.0252C39.2251 12.5559 39.6499 12.9372 39.9759 13.3866C40.5915 14.2346 41.2718 15.0376 41.7429 15.9837C41.8522 16.1313 41.9609 16.2796 42.0701 16.4273C42.1025 16.485 42.1348 16.5432 42.1672 16.6009L42.1655 16.6003C42.1747 16.8634 42.388 17.082 42.3395 17.3549C42.1851 18.2242 42.5071 18.9793 42.9123 19.7091C43.0233 19.9092 43.0406 20.0569 42.9123 20.2605C42.4464 20.9984 42.0689 21.7835 41.7736 22.6032C41.4031 23.6312 41.0609 24.6932 41.2476 25.7881C41.6753 28.2946 42.8134 30.4716 44.5493 32.3297C45.0943 32.9129 45.4215 32.9747 46.1423 32.6326C46.8492 32.2974 47.5215 31.889 48.2215 31.5365C48.7007 31.2948 49.1943 31.0681 49.7602 31.161C49.7648 31.1812 49.7694 31.2014 49.7746 31.221C50.4775 31.4223 50.6642 32.05 50.8937 32.6176C51.122 33.1823 51.2168 33.7909 51.2498 34.3972C51.3625 36.4757 51.1422 38.5287 50.7798 40.5749C50.3532 42.9827 49.7821 45.3548 49.1162 47.7061C49.085 47.8157 49.0839 47.9334 49.0689 48.047C49.1139 48.0118 49.1665 47.9836 49.203 47.9415C52.5041 44.0972 54.3301 39.645 54.6381 34.5962C54.8023 31.8873 54.504 29.2118 53.6353 26.6291Z" fill="url(#paint35_radial_15_525)"/>
<path d="M62.2715 49.2369C62.2697 53.324 58.9201 56.6652 54.8259 56.6635C50.7306 56.6617 47.3832 53.3194 47.3838 49.2334C47.3849 45.1475 50.7363 41.804 54.8294 41.8063C58.9247 41.8074 62.2732 45.1509 62.2715 49.2369Z" fill="url(#paint36_radial_15_525)"/>
<path d="M23.5104 43.4518C23.5092 45.6832 21.6809 47.5072 19.4457 47.5061C17.2099 47.5049 15.3827 45.6809 15.3833 43.4501C15.3839 41.22 17.2133 39.3947 19.448 39.3953C21.6838 39.3965 23.5115 41.2217 23.5104 43.4518Z" fill="url(#paint37_radial_15_525)"/>
<path d="M22.3557 8.21746C22.3546 11.4254 19.7251 14.0478 16.5119 14.0467C13.2975 14.0455 10.6703 11.4219 10.6709 8.21457C10.6715 5.00778 13.3021 2.38361 16.5148 2.38477C19.7292 2.3865 22.3569 5.01066 22.3557 8.21746Z" fill="url(#paint38_radial_15_525)"/>
<path opacity="0.4" d="M32.2587 2.47723C49.1648 2.48473 62.9126 16.213 62.9062 33.0806C62.9062 34.7685 62.7646 36.4673 62.4843 38.131C62.3386 38.9969 61.5242 39.5789 60.6491 39.4365C59.7809 39.2905 59.1959 38.4708 59.341 37.6049C59.5924 36.1143 59.719 34.5925 59.719 33.08C59.7254 17.9661 47.4059 5.665 32.2564 5.65807C32.2523 5.65807 32.2494 5.65807 32.2454 5.65807C30.4107 5.65807 28.5789 5.84152 26.8004 6.20321C25.9362 6.378 25.0963 5.8219 24.9206 4.96237C24.7449 4.10111 25.3021 3.26177 26.1639 3.0864C28.1518 2.6826 30.198 2.47781 32.2454 2.47781C32.2506 2.47723 32.2546 2.47723 32.2587 2.47723ZM10.4925 13.8311C11.1809 14.378 11.2954 15.3777 10.7474 16.0659C6.84512 20.9635 4.78157 26.8429 4.78041 33.0667C4.77637 48.18 17.097 60.4805 32.2436 60.4863C32.2483 60.4863 32.2523 60.4863 32.2564 60.4863C36.7736 60.4863 41.2585 59.3551 45.2279 57.2137C46.0036 56.7961 46.9689 57.0839 47.3874 57.8564C47.8053 58.6288 47.5174 59.5939 46.7435 60.0115C42.3094 62.4021 37.3008 63.666 32.2564 63.666C32.2523 63.666 32.2471 63.666 32.2425 63.666C15.3387 63.6596 1.59028 49.9325 1.59375 33.0661C1.59548 26.2147 3.96019 19.474 8.2532 14.0855C8.56765 13.6909 9.0318 13.4856 9.50116 13.4856C9.84913 13.4856 10.1988 13.5986 10.4925 13.8311Z" fill="url(#paint39_linear_15_525)"/>
<path d="M29.2337 29.9435C28.1372 30.0946 27.3065 29.317 27.2788 28.1171C27.2533 27.0395 27.9054 26.2388 28.8545 26.1956C29.5192 26.165 30.0342 26.4304 30.3631 27.0355C30.7308 26.7799 31.0787 26.5382 31.4464 26.2827C30.9336 25.212 29.5227 24.6444 28.2262 24.9634C26.7123 25.3361 25.7649 26.5942 25.806 28.18C25.843 29.6291 26.9666 30.9766 28.3418 31.2218C29.6759 31.4595 31.0938 30.8342 31.5157 29.7975C31.1388 29.576 30.7579 29.3522 30.3614 29.1191C30.1042 29.5962 29.7394 29.8743 29.2337 29.9435Z" fill="url(#paint40_linear_15_525)"/>
<path d="M39.0551 31.7862C39.2857 31.6351 39.6447 31.4153 39.862 31.2474C40.1632 31.0144 40.2377 30.5892 40.0528 30.3031C39.7221 29.7914 38.4881 29.8635 38.1881 30.4208C38.3054 30.5529 38.4251 30.6873 38.5262 30.8015C38.7204 30.7069 38.8753 30.5904 39.0441 30.565C39.1557 30.5483 39.336 30.5615 39.4094 30.7167C39.4435 30.8609 39.3094 30.9596 39.2193 31.0271C39.006 31.1857 38.7586 31.2982 38.5418 31.4534C38.2441 31.6668 38.1066 31.961 38.1667 32.3406C38.8493 32.3406 39.5222 32.3406 40.1909 32.3406C40.1909 32.1439 40.1909 31.9789 40.1909 31.7868C39.8482 31.7862 39.0551 31.7862 39.0551 31.7862Z" fill="url(#paint41_linear_15_525)"/>
<path d="M35.0049 24.8931C33.2679 24.8873 31.8547 26.2943 31.8373 28.0462C31.82 29.8016 33.2182 31.2576 34.9327 31.2698C36.6887 31.2819 38.106 29.868 38.1112 28.0982C38.117 26.3289 36.7303 24.8983 35.0049 24.8931ZM36.2049 29.3569C35.4783 30.2949 34.0298 30.131 33.5396 29.0425C33.2789 28.4633 33.2506 27.8726 33.4778 27.2732C33.7448 26.5666 34.3292 26.1605 35.0407 26.1928C35.7714 26.2256 36.4112 26.7143 36.5482 27.4555C36.6974 28.2631 36.5945 28.8544 36.2049 29.3569Z" fill="url(#paint42_linear_15_525)"/>
</g>
<defs>
<linearGradient id="paint0_linear_15_525" x1="55.5282" y1="51.843" x2="55.5429" y2="51.843" gradientUnits="userSpaceOnUse">
<stop stop-color="#45DCA3"/>
<stop offset="0.4749" stop-color="#128D89"/>
<stop offset="1" stop-color="#333336"/>
</linearGradient>
<linearGradient id="paint1_linear_15_525" x1="-8.93974" y1="23.5401" x2="107.013" y2="125.61" gradientUnits="userSpaceOnUse">
<stop stop-color="#45DCA3"/>
<stop offset="0.4749" stop-color="#128D89"/>
<stop offset="1" stop-color="#333336"/>
</linearGradient>
<linearGradient id="paint2_linear_15_525" x1="1.35452" y1="-25.1021" x2="55.8802" y2="105.633" gradientUnits="userSpaceOnUse">
<stop stop-color="#45DCA3"/>
<stop offset="0.4749" stop-color="#128D89"/>
<stop offset="1" stop-color="#333336"/>
</linearGradient>
<linearGradient id="paint3_linear_15_525" x1="389.109" y1="31.9588" x2="49.1205" y2="64.2639" gradientUnits="userSpaceOnUse">
<stop stop-color="#45DCA3"/>
<stop offset="0.4749" stop-color="#128D89"/>
<stop offset="1" stop-color="#333336"/>
</linearGradient>
<linearGradient id="paint4_linear_15_525" x1="17.9657" y1="18.5378" x2="134.925" y2="161.451" gradientUnits="userSpaceOnUse">
<stop stop-color="#45DCA3"/>
<stop offset="0.4749" stop-color="#128D89"/>
<stop offset="1" stop-color="#333336"/>
</linearGradient>
<linearGradient id="paint5_linear_15_525" x1="-0.683954" y1="33.8005" x2="116.276" y2="176.714" gradientUnits="userSpaceOnUse">
<stop stop-color="#45DCA3"/>
<stop offset="0.4749" stop-color="#128D89"/>
<stop offset="1" stop-color="#333336"/>
</linearGradient>
<linearGradient id="paint6_linear_15_525" x1="20.1867" y1="16.7201" x2="137.146" y2="159.633" gradientUnits="userSpaceOnUse">
<stop stop-color="#45DCA3"/>
<stop offset="0.4749" stop-color="#128D89"/>
<stop offset="1" stop-color="#333336"/>
</linearGradient>
<linearGradient id="paint7_linear_15_525" x1="22.4114" y1="14.8994" x2="139.371" y2="157.812" gradientUnits="userSpaceOnUse">
<stop stop-color="#45DCA3"/>
<stop offset="0.4749" stop-color="#128D89"/>
<stop offset="1" stop-color="#333336"/>
</linearGradient>
<linearGradient id="paint8_linear_15_525" x1="5.20863" y1="28.9782" x2="122.168" y2="171.891" gradientUnits="userSpaceOnUse">
<stop stop-color="#45DCA3"/>
<stop offset="0.4749" stop-color="#128D89"/>
<stop offset="1" stop-color="#333336"/>
</linearGradient>
<linearGradient id="paint9_linear_15_525" x1="7.45748" y1="27.1378" x2="124.417" y2="170.051" gradientUnits="userSpaceOnUse">
<stop stop-color="#45DCA3"/>
<stop offset="0.4749" stop-color="#128D89"/>
<stop offset="1" stop-color="#333336"/>
</linearGradient>
<linearGradient id="paint10_linear_15_525" x1="-4.15305" y1="36.6396" x2="112.807" y2="179.553" gradientUnits="userSpaceOnUse">
<stop stop-color="#45DCA3"/>
<stop offset="0.4749" stop-color="#128D89"/>
<stop offset="1" stop-color="#333336"/>
</linearGradient>
<linearGradient id="paint11_linear_15_525" x1="21.7582" y1="1.75416" x2="25.975" y2="107.223" gradientUnits="userSpaceOnUse">
<stop stop-color="#45DCA3"/>
<stop offset="0.4749" stop-color="#128D89"/>
<stop offset="1" stop-color="#333336"/>
</linearGradient>
<linearGradient id="paint12_linear_15_525" x1="45.1304" y1="0.819816" x2="49.3471" y2="106.288" gradientUnits="userSpaceOnUse">
<stop stop-color="#45DCA3"/>
<stop offset="0.4749" stop-color="#128D89"/>
<stop offset="1" stop-color="#333336"/>
</linearGradient>
<linearGradient id="paint13_linear_15_525" x1="33.3797" y1="1.2896" x2="37.5965" y2="106.758" gradientUnits="userSpaceOnUse">
<stop stop-color="#45DCA3"/>
<stop offset="0.4749" stop-color="#128D89"/>
<stop offset="1" stop-color="#333336"/>
</linearGradient>
<linearGradient id="paint14_linear_15_525" x1="52.5255" y1="0.524142" x2="56.7423" y2="105.993" gradientUnits="userSpaceOnUse">
<stop stop-color="#45DCA3"/>
<stop offset="0.4749" stop-color="#128D89"/>
<stop offset="1" stop-color="#333336"/>
</linearGradient>
<linearGradient id="paint15_linear_15_525" x1="59.936" y1="0.227822" x2="64.1527" y2="105.696" gradientUnits="userSpaceOnUse">
<stop stop-color="#45DCA3"/>
<stop offset="0.4749" stop-color="#128D89"/>
<stop offset="1" stop-color="#333336"/>
</linearGradient>
<linearGradient id="paint16_linear_15_525" x1="10.3911" y1="24.7367" x2="127.351" y2="167.65" gradientUnits="userSpaceOnUse">
<stop stop-color="#45DCA3"/>
<stop offset="0.4749" stop-color="#128D89"/>
<stop offset="1" stop-color="#333336"/>
</linearGradient>
<linearGradient id="paint17_linear_15_525" x1="12.6415" y1="22.895" x2="129.601" y2="165.808" gradientUnits="userSpaceOnUse">
<stop stop-color="#45DCA3"/>
<stop offset="0.4749" stop-color="#128D89"/>
<stop offset="1" stop-color="#333336"/>
</linearGradient>
<linearGradient id="paint18_linear_15_525" x1="14.8578" y1="21.0812" x2="131.818" y2="163.994" gradientUnits="userSpaceOnUse">
<stop stop-color="#45DCA3"/>
<stop offset="0.4749" stop-color="#128D89"/>
<stop offset="1" stop-color="#333336"/>
</linearGradient>
<linearGradient id="paint19_linear_15_525" x1="36.5626" y1="1.16232" x2="40.7794" y2="106.631" gradientUnits="userSpaceOnUse">
<stop stop-color="#45DCA3"/>
<stop offset="0.4749" stop-color="#128D89"/>
<stop offset="1" stop-color="#333336"/>
</linearGradient>
<linearGradient id="paint20_linear_15_525" x1="44.0525" y1="0.862888" x2="48.2693" y2="106.332" gradientUnits="userSpaceOnUse">
<stop stop-color="#45DCA3"/>
<stop offset="0.4749" stop-color="#128D89"/>
<stop offset="1" stop-color="#333336"/>
</linearGradient>
<linearGradient id="paint21_linear_15_525" x1="51.4455" y1="0.56726" x2="55.6623" y2="106.036" gradientUnits="userSpaceOnUse">
<stop stop-color="#45DCA3"/>
<stop offset="0.4749" stop-color="#128D89"/>
<stop offset="1" stop-color="#333336"/>
</linearGradient>
<linearGradient id="paint22_linear_15_525" x1="2.90923" y1="30.8599" x2="119.869" y2="173.773" gradientUnits="userSpaceOnUse">
<stop stop-color="#45DCA3"/>
<stop offset="0.4749" stop-color="#128D89"/>
<stop offset="1" stop-color="#333336"/>
</linearGradient>
<linearGradient id="paint23_linear_15_525" x1="28.1831" y1="1.49733" x2="32.3999" y2="106.966" gradientUnits="userSpaceOnUse">
<stop stop-color="#45DCA3"/>
<stop offset="0.4749" stop-color="#128D89"/>
<stop offset="1" stop-color="#333336"/>
</linearGradient>
<linearGradient id="paint24_linear_15_525" x1="8.2722" y1="26.471" x2="125.232" y2="169.384" gradientUnits="userSpaceOnUse">
<stop stop-color="#45DCA3"/>
<stop offset="0.4749" stop-color="#128D89"/>
<stop offset="1" stop-color="#333336"/>
</linearGradient>
<linearGradient id="paint25_linear_15_525" x1="29.0718" y1="1.46179" x2="33.2885" y2="106.93" gradientUnits="userSpaceOnUse">
<stop stop-color="#45DCA3"/>
<stop offset="0.4749" stop-color="#128D89"/>
<stop offset="1" stop-color="#333336"/>
</linearGradient>
<linearGradient id="paint26_linear_15_525" x1="35.8289" y1="1.19165" x2="40.0457" y2="106.66" gradientUnits="userSpaceOnUse">
<stop stop-color="#45DCA3"/>
<stop offset="0.4749" stop-color="#128D89"/>
<stop offset="1" stop-color="#333336"/>
</linearGradient>
<linearGradient id="paint27_linear_15_525" x1="43.3173" y1="0.892312" x2="47.534" y2="106.361" gradientUnits="userSpaceOnUse">
<stop stop-color="#45DCA3"/>
<stop offset="0.4749" stop-color="#128D89"/>
<stop offset="1" stop-color="#333336"/>
</linearGradient>
<linearGradient id="paint28_linear_15_525" x1="59.1884" y1="12.8697" x2="121.075" y2="152.286" gradientUnits="userSpaceOnUse">
<stop stop-color="#45DCA3"/>
<stop offset="0.4749" stop-color="#128D89"/>
<stop offset="1" stop-color="#333336"/>
</linearGradient>
<linearGradient id="paint29_linear_15_525" x1="201.088" y1="-118.202" x2="51.9457" y2="48.3339" gradientUnits="userSpaceOnUse">
<stop stop-color="#45DCA3"/>
<stop offset="0.4749" stop-color="#128D89"/>
<stop offset="1" stop-color="#333336"/>
</linearGradient>
<linearGradient id="paint30_linear_15_525" x1="43.1202" y1="-50.0321" x2="94.0794" y2="64.1252" gradientUnits="userSpaceOnUse">
<stop stop-color="#45DCA3"/>
<stop offset="0.4749" stop-color="#128D89"/>
<stop offset="1" stop-color="#333336"/>
</linearGradient>
<linearGradient id="paint31_linear_15_525" x1="68.2017" y1="14.0736" x2="73.9643" y2="24.8088" gradientUnits="userSpaceOnUse">
<stop stop-color="#45DCA3"/>
<stop offset="0.4749" stop-color="#128D89"/>
<stop offset="1" stop-color="#333336"/>
</linearGradient>
<radialGradient id="paint32_radial_15_525" cx="0" cy="0" r="1" gradientUnits="userSpaceOnUse" gradientTransform="translate(42.6074 28.36) scale(25.8463 25.7943)">
<stop stop-color="#45DCA3"/>
<stop offset="1" stop-color="#128D89"/>
</radialGradient>
<linearGradient id="paint33_linear_15_525" x1="104.526" y1="-20.1375" x2="12.5675" y2="48.3797" gradientUnits="userSpaceOnUse">
<stop stop-color="#45DCA3"/>
<stop offset="0.4749" stop-color="#128D89"/>
<stop offset="1" stop-color="#333336"/>
</linearGradient>
<radialGradient id="paint34_radial_15_525" cx="0" cy="0" r="1" gradientUnits="userSpaceOnUse" gradientTransform="translate(41.8132 26.6931) scale(27.8978 27.8418)">
<stop stop-color="#45DCA3"/>
<stop offset="1" stop-color="#128D89"/>
</radialGradient>
<radialGradient id="paint35_radial_15_525" cx="0" cy="0" r="1" gradientUnits="userSpaceOnUse" gradientTransform="translate(41.8068 26.6921) scale(27.8979 27.8418)">
<stop stop-color="#45DCA3"/>
<stop offset="1" stop-color="#128D89"/>
</radialGradient>
<radialGradient id="paint36_radial_15_525" cx="0" cy="0" r="1" gradientUnits="userSpaceOnUse" gradientTransform="translate(59.0706 51.8357) scale(11.3937 11.3708)">
<stop stop-color="#45DCA3"/>
<stop offset="1" stop-color="#128D89"/>
</radialGradient>
<radialGradient id="paint37_radial_15_525" cx="0" cy="0" r="1" gradientUnits="userSpaceOnUse" gradientTransform="translate(21.7632 44.8708) scale(6.2198 6.20731)">
<stop stop-color="#45DCA3"/>
<stop offset="1" stop-color="#128D89"/>
</radialGradient>
<radialGradient id="paint38_radial_15_525" cx="0" cy="0" r="1" gradientUnits="userSpaceOnUse" gradientTransform="translate(16.6524 10.122) scale(6.43223 6.41931)">
<stop stop-color="#45DCA3"/>
<stop offset="1" stop-color="#128D89"/>
</radialGradient>
<linearGradient id="paint39_linear_15_525" x1="48.9387" y1="51.6386" x2="11.7985" y2="10.153" gradientUnits="userSpaceOnUse">
<stop stop-color="#45DCA3"/>
<stop offset="1" stop-color="#128D89"/>
</linearGradient>
<linearGradient id="paint40_linear_15_525" x1="30.941" y1="26.4722" x2="17.0235" y2="37.7185" gradientUnits="userSpaceOnUse">
<stop stop-color="#45DCA3"/>
<stop offset="1" stop-color="#128D89"/>
</linearGradient>
<linearGradient id="paint41_linear_15_525" x1="36.5783" y1="33.4504" x2="22.6608" y2="44.6968" gradientUnits="userSpaceOnUse">
<stop stop-color="#45DCA3"/>
<stop offset="1" stop-color="#128D89"/>
</linearGradient>
<linearGradient id="paint42_linear_15_525" x1="33.3171" y1="29.4177" x2="19.3996" y2="40.6641" gradientUnits="userSpaceOnUse">
<stop stop-color="#45DCA3"/>
<stop offset="1" stop-color="#128D89"/>
</linearGradient>
<clipPath id="clip0_15_525">
<rect width="109" height="94" fill="white" transform="translate(0.335938 0.716797)"/>
</clipPath>
</defs>
</svg>
