<svg width="18" height="17" viewBox="0 0 18 17" fill="none" xmlns="http://www.w3.org/2000/svg">
<path d="M9 0C7.39303 0 5.82214 0.476523 4.486 1.36931C3.14985 2.2621 2.10844 3.53105 1.49348 5.0157C0.87852 6.50035 0.717618 8.13401 1.03112 9.71011C1.34463 11.2862 2.11846 12.7339 3.25476 13.8702C4.39106 15.0065 5.8388 15.7804 7.4149 16.0939C8.99099 16.4074 10.6247 16.2465 12.1093 15.6315C13.594 15.0166 14.8629 13.9752 15.7557 12.639C16.6485 11.3029 17.125 9.73197 17.125 8.125C17.1227 5.97081 16.266 3.90551 14.7427 2.38227C13.2195 0.85903 11.1542 0.00227486 9 0ZM12.5672 6.69219L8.19219 11.0672C8.13415 11.1253 8.06522 11.1714 7.98934 11.2029C7.91347 11.2343 7.83214 11.2505 7.75 11.2505C7.66787 11.2505 7.58654 11.2343 7.51067 11.2029C7.43479 11.1714 7.36586 11.1253 7.30782 11.0672L5.43282 9.19219C5.31554 9.07491 5.24966 8.91585 5.24966 8.75C5.24966 8.58415 5.31554 8.42509 5.43282 8.30781C5.55009 8.19054 5.70915 8.12465 5.875 8.12465C6.04086 8.12465 6.19992 8.19054 6.31719 8.30781L7.75 9.74141L11.6828 5.80781C11.7409 5.74974 11.8098 5.70368 11.8857 5.67225C11.9616 5.64083 12.0429 5.62465 12.125 5.62465C12.2071 5.62465 12.2884 5.64083 12.3643 5.67225C12.4402 5.70368 12.5091 5.74974 12.5672 5.80781C12.6253 5.86588 12.6713 5.93482 12.7027 6.01069C12.7342 6.08656 12.7504 6.16788 12.7504 6.25C12.7504 6.33212 12.7342 6.41344 12.7027 6.48931C12.6713 6.56518 12.6253 6.63412 12.5672 6.69219Z" fill="#008D47"/>
</svg>
