<svg viewBox="0 0 511 49" xmlns="http://www.w3.org/2000/svg">
<path d="M74.9321 20.268C74.9321 21.5693 74.6335 22.764 74.0361 23.852C73.4388 24.9187 72.5215 25.7827 71.2841 26.444C70.0468 27.1053 68.5108 27.436 66.6761 27.436H63.2841V35.5H57.8121V13.036H66.6761C68.4681 13.036 69.9828 13.3453 71.2201 13.964C72.4575 14.5827 73.3855 15.436 74.0041 16.524C74.6228 17.612 74.9321 18.86 74.9321 20.268ZM66.2601 23.084C67.3055 23.084 68.0841 22.8387 68.5961 22.348C69.1081 21.8573 69.3641 21.164 69.3641 20.268C69.3641 19.372 69.1081 18.6787 68.5961 18.188C68.0841 17.6973 67.3055 17.452 66.2601 17.452H63.2841V23.084H66.2601ZM81.6529 17.42V21.964H88.9809V26.188H81.6529V31.116H89.9409V35.5H76.1809V13.036H89.9409V17.42H81.6529ZM103.349 35.5L98.6774 27.02H97.3654V35.5H91.8934V13.036H101.077C102.848 13.036 104.352 13.3453 105.589 13.964C106.848 14.5827 107.787 15.436 108.405 16.524C109.024 17.5907 109.333 18.7853 109.333 20.108C109.333 21.6013 108.907 22.9347 108.053 24.108C107.221 25.2813 105.984 26.1133 104.341 26.604L109.525 35.5H103.349ZM97.3654 23.148H100.757C101.76 23.148 102.507 22.9027 102.997 22.412C103.509 21.9213 103.765 21.228 103.765 20.332C103.765 19.4787 103.509 18.8067 102.997 18.316C102.507 17.8253 101.76 17.58 100.757 17.58H97.3654V23.148ZM116.64 31.276H123.808V35.5H111.168V13.036H116.64V31.276ZM127.378 35.756C126.418 35.756 125.629 35.4787 125.01 34.924C124.413 34.348 124.114 33.644 124.114 32.812C124.114 31.9587 124.413 31.244 125.01 30.668C125.629 30.092 126.418 29.804 127.378 29.804C128.317 29.804 129.085 30.092 129.682 30.668C130.301 31.244 130.61 31.9587 130.61 32.812C130.61 33.644 130.301 34.348 129.682 34.924C129.085 35.4787 128.317 35.756 127.378 35.756ZM149.082 26.284C149.082 26.796 149.05 27.3293 148.986 27.884H136.602C136.687 28.9933 137.039 29.8467 137.658 30.444C138.298 31.02 139.076 31.308 139.994 31.308C141.359 31.308 142.308 30.732 142.842 29.58H148.666C148.367 30.7533 147.823 31.8093 147.034 32.748C146.266 33.6867 145.295 34.4227 144.122 34.956C142.948 35.4893 141.636 35.756 140.186 35.756C138.436 35.756 136.879 35.3827 135.514 34.636C134.148 33.8893 133.082 32.8227 132.314 31.436C131.546 30.0493 131.162 28.428 131.162 26.572C131.162 24.716 131.535 23.0947 132.282 21.708C133.05 20.3213 134.116 19.2547 135.482 18.508C136.847 17.7613 138.415 17.388 140.186 17.388C141.914 17.388 143.45 17.7507 144.794 18.476C146.138 19.2013 147.183 20.236 147.93 21.58C148.698 22.924 149.082 24.492 149.082 26.284ZM143.482 24.844C143.482 23.9053 143.162 23.1587 142.522 22.604C141.882 22.0493 141.082 21.772 140.122 21.772C139.204 21.772 138.426 22.0387 137.786 22.572C137.167 23.1053 136.783 23.8627 136.634 24.844H143.482ZM149.28 26.572C149.28 24.716 149.654 23.0947 150.4 21.708C151.168 20.3213 152.224 19.2547 153.568 18.508C154.934 17.7613 156.491 17.388 158.24 17.388C160.48 17.388 162.347 17.9747 163.84 19.148C165.355 20.3213 166.347 21.9747 166.816 24.108H160.992C160.502 22.7427 159.552 22.06 158.144 22.06C157.142 22.06 156.342 22.4547 155.744 23.244C155.147 24.012 154.848 25.1213 154.848 26.572C154.848 28.0227 155.147 29.1427 155.744 29.932C156.342 30.7 157.142 31.084 158.144 31.084C159.552 31.084 160.502 30.4013 160.992 29.036H166.816C166.347 31.1267 165.355 32.7693 163.84 33.964C162.326 35.1587 160.459 35.756 158.24 35.756C156.491 35.756 154.934 35.3827 153.568 34.636C152.224 33.8893 151.168 32.8227 150.4 31.436C149.654 30.0493 149.28 28.428 149.28 26.572ZM176.271 35.756C174.522 35.756 172.943 35.3827 171.535 34.636C170.149 33.8893 169.05 32.8227 168.239 31.436C167.45 30.0493 167.055 28.428 167.055 26.572C167.055 24.7373 167.461 23.1267 168.271 21.74C169.082 20.332 170.191 19.2547 171.599 18.508C173.007 17.7613 174.586 17.388 176.335 17.388C178.085 17.388 179.663 17.7613 181.071 18.508C182.479 19.2547 183.589 20.332 184.399 21.74C185.21 23.1267 185.615 24.7373 185.615 26.572C185.615 28.4067 185.199 30.028 184.367 31.436C183.557 32.8227 182.437 33.8893 181.007 34.636C179.599 35.3827 178.021 35.756 176.271 35.756ZM176.271 31.02C177.317 31.02 178.202 30.636 178.927 29.868C179.674 29.1 180.047 28.0013 180.047 26.572C180.047 25.1427 179.685 24.044 178.959 23.276C178.255 22.508 177.381 22.124 176.335 22.124C175.269 22.124 174.383 22.508 173.679 23.276C172.975 24.0227 172.623 25.1213 172.623 26.572C172.623 28.0013 172.965 29.1 173.647 29.868C174.351 30.636 175.226 31.02 176.271 31.02Z" fill="white"/>
<path d="M309.928 23.98C311.229 24.2573 312.274 24.908 313.064 25.932C313.853 26.9347 314.248 28.0867 314.248 29.388C314.248 31.2653 313.586 32.7587 312.264 33.868C310.962 34.956 309.138 35.5 306.792 35.5H296.328V13.036H306.44C308.722 13.036 310.504 13.5587 311.784 14.604C313.085 15.6493 313.736 17.068 313.736 18.86C313.736 20.1827 313.384 21.2813 312.68 22.156C311.997 23.0307 311.08 23.6387 309.928 23.98ZM301.8 22.124H305.384C306.28 22.124 306.962 21.932 307.432 21.548C307.922 21.1427 308.168 20.556 308.168 19.788C308.168 19.02 307.922 18.4333 307.432 18.028C306.962 17.6227 306.28 17.42 305.384 17.42H301.8V22.124ZM305.832 31.084C306.749 31.084 307.453 30.8813 307.944 30.476C308.456 30.0493 308.712 29.4413 308.712 28.652C308.712 27.8627 308.445 27.244 307.912 26.796C307.4 26.348 306.685 26.124 305.768 26.124H301.8V31.084H305.832ZM318.573 15.788C317.613 15.788 316.824 15.5107 316.205 14.956C315.608 14.38 315.309 13.676 315.309 12.844C315.309 11.9907 315.608 11.2867 316.205 10.732C316.824 10.156 317.613 9.868 318.573 9.868C319.512 9.868 320.28 10.156 320.878 10.732C321.496 11.2867 321.806 11.9907 321.806 12.844C321.806 13.676 321.496 14.38 320.878 14.956C320.28 15.5107 319.512 15.788 318.573 15.788ZM321.293 17.644V35.5H315.821V17.644H321.293ZM331.787 35.756C330.038 35.756 328.459 35.3827 327.051 34.636C325.664 33.8893 324.566 32.8227 323.755 31.436C322.966 30.0493 322.571 28.428 322.571 26.572C322.571 24.7373 322.976 23.1267 323.787 21.74C324.598 20.332 325.707 19.2547 327.115 18.508C328.523 17.7613 330.102 17.388 331.851 17.388C333.6 17.388 335.179 17.7613 336.587 18.508C337.995 19.2547 339.104 20.332 339.915 21.74C340.726 23.1267 341.131 24.7373 341.131 26.572C341.131 28.4067 340.715 30.028 339.883 31.436C339.072 32.8227 337.952 33.8893 336.523 34.636C335.115 35.3827 333.536 35.756 331.787 35.756ZM331.787 31.02C332.832 31.02 333.718 30.636 334.443 29.868C335.19 29.1 335.563 28.0013 335.563 26.572C335.563 25.1427 335.2 24.044 334.475 23.276C333.771 22.508 332.896 22.124 331.851 22.124C330.784 22.124 329.899 22.508 329.195 23.276C328.491 24.0227 328.139 25.1213 328.139 26.572C328.139 28.0013 328.48 29.1 329.163 29.868C329.867 30.636 330.742 31.02 331.787 31.02ZM356.418 31.532H348.034L346.69 35.5H340.962L349.09 13.036H355.426L363.554 35.5H357.762L356.418 31.532ZM355.01 27.308L352.226 19.084L349.474 27.308H355.01ZM371.692 35.756C370.134 35.756 368.748 35.4893 367.532 34.956C366.316 34.4227 365.356 33.6973 364.652 32.78C363.948 31.8413 363.553 30.796 363.468 29.644H368.876C368.94 30.2627 369.228 30.764 369.74 31.148C370.252 31.532 370.881 31.724 371.628 31.724C372.31 31.724 372.833 31.596 373.196 31.34C373.58 31.0627 373.772 30.7107 373.772 30.284C373.772 29.772 373.505 29.3987 372.972 29.164C372.438 28.908 371.574 28.6307 370.38 28.332C369.1 28.0333 368.033 27.724 367.18 27.404C366.326 27.0627 365.59 26.54 364.972 25.836C364.353 25.1107 364.044 24.14 364.044 22.924C364.044 21.9 364.321 20.972 364.876 20.14C365.452 19.2867 366.284 18.6147 367.372 18.124C368.481 17.6333 369.793 17.388 371.308 17.388C373.548 17.388 375.308 17.9427 376.588 19.052C377.889 20.1613 378.636 21.6333 378.828 23.468H373.772C373.686 22.8493 373.409 22.3587 372.94 21.996C372.492 21.6333 371.894 21.452 371.148 21.452C370.508 21.452 370.017 21.58 369.676 21.836C369.334 22.0707 369.164 22.4013 369.164 22.828C369.164 23.34 369.43 23.724 369.964 23.98C370.518 24.236 371.372 24.492 372.524 24.748C373.846 25.0893 374.924 25.4307 375.756 25.772C376.588 26.092 377.313 26.6253 377.932 27.372C378.572 28.0973 378.902 29.0787 378.924 30.316C378.924 31.3613 378.625 32.3 378.028 33.132C377.452 33.9427 376.609 34.5827 375.5 35.052C374.412 35.5213 373.142 35.756 371.692 35.756ZM387.936 35.756C386.378 35.756 384.992 35.4893 383.776 34.956C382.56 34.4227 381.6 33.6973 380.896 32.78C380.192 31.8413 379.797 30.796 379.712 29.644H385.12C385.184 30.2627 385.472 30.764 385.984 31.148C386.496 31.532 387.125 31.724 387.872 31.724C388.554 31.724 389.077 31.596 389.44 31.34C389.824 31.0627 390.016 30.7107 390.016 30.284C390.016 29.772 389.749 29.3987 389.216 29.164C388.682 28.908 387.818 28.6307 386.624 28.332C385.344 28.0333 384.277 27.724 383.424 27.404C382.57 27.0627 381.834 26.54 381.216 25.836C380.597 25.1107 380.288 24.14 380.288 22.924C380.288 21.9 380.565 20.972 381.12 20.14C381.696 19.2867 382.528 18.6147 383.616 18.124C384.725 17.6333 386.037 17.388 387.552 17.388C389.792 17.388 391.552 17.9427 392.832 19.052C394.133 20.1613 394.88 21.6333 395.072 23.468H390.016C389.93 22.8493 389.653 22.3587 389.184 21.996C388.736 21.6333 388.138 21.452 387.392 21.452C386.752 21.452 386.261 21.58 385.92 21.836C385.578 22.0707 385.408 22.4013 385.408 22.828C385.408 23.34 385.674 23.724 386.208 23.98C386.762 24.236 387.616 24.492 388.768 24.748C390.09 25.0893 391.168 25.4307 392 25.772C392.832 26.092 393.557 26.6253 394.176 27.372C394.816 28.0973 395.146 29.0787 395.168 30.316C395.168 31.3613 394.869 32.3 394.272 33.132C393.696 33.9427 392.853 34.5827 391.744 35.052C390.656 35.5213 389.386 35.756 387.936 35.756ZM413.747 26.284C413.747 26.796 413.715 27.3293 413.651 27.884H401.267C401.353 28.9933 401.705 29.8467 402.323 30.444C402.963 31.02 403.742 31.308 404.659 31.308C406.025 31.308 406.974 30.732 407.507 29.58H413.331C413.033 30.7533 412.489 31.8093 411.699 32.748C410.931 33.6867 409.961 34.4227 408.787 34.956C407.614 35.4893 406.302 35.756 404.851 35.756C403.102 35.756 401.545 35.3827 400.179 34.636C398.814 33.8893 397.747 32.8227 396.979 31.436C396.211 30.0493 395.827 28.428 395.827 26.572C395.827 24.716 396.201 23.0947 396.947 21.708C397.715 20.3213 398.782 19.2547 400.147 18.508C401.513 17.7613 403.081 17.388 404.851 17.388C406.579 17.388 408.115 17.7507 409.459 18.476C410.803 19.2013 411.849 20.236 412.595 21.58C413.363 22.924 413.747 24.492 413.747 26.284ZM408.147 24.844C408.147 23.9053 407.827 23.1587 407.187 22.604C406.547 22.0493 405.747 21.772 404.787 21.772C403.87 21.772 403.091 22.0387 402.451 22.572C401.833 23.1053 401.449 23.8627 401.299 24.844H408.147ZM424.986 30.86V35.5H422.202C420.218 35.5 418.671 35.02 417.562 34.06C416.453 33.0787 415.898 31.4893 415.898 29.292V22.188H413.722V17.644H415.898V13.292H421.37V17.644H424.954V22.188H421.37V29.356C421.37 29.8893 421.498 30.2733 421.754 30.508C422.01 30.7427 422.437 30.86 423.034 30.86H424.986ZM433.698 35.756C432.141 35.756 430.754 35.4893 429.538 34.956C428.322 34.4227 427.362 33.6973 426.658 32.78C425.954 31.8413 425.559 30.796 425.474 29.644H430.882C430.946 30.2627 431.234 30.764 431.746 31.148C432.258 31.532 432.887 31.724 433.634 31.724C434.317 31.724 434.839 31.596 435.202 31.34C435.586 31.0627 435.778 30.7107 435.778 30.284C435.778 29.772 435.511 29.3987 434.978 29.164C434.445 28.908 433.581 28.6307 432.386 28.332C431.106 28.0333 430.039 27.724 429.186 27.404C428.333 27.0627 427.597 26.54 426.978 25.836C426.359 25.1107 426.05 24.14 426.05 22.924C426.05 21.9 426.327 20.972 426.882 20.14C427.458 19.2867 428.29 18.6147 429.378 18.124C430.487 17.6333 431.799 17.388 433.314 17.388C435.554 17.388 437.314 17.9427 438.594 19.052C439.895 20.1613 440.642 21.6333 440.834 23.468H435.778C435.693 22.8493 435.415 22.3587 434.946 21.996C434.498 21.6333 433.901 21.452 433.154 21.452C432.514 21.452 432.023 21.58 431.682 21.836C431.341 22.0707 431.17 22.4013 431.17 22.828C431.17 23.34 431.437 23.724 431.97 23.98C432.525 24.236 433.378 24.492 434.53 24.748C435.853 25.0893 436.93 25.4307 437.762 25.772C438.594 26.092 439.319 26.6253 439.938 27.372C440.578 28.0973 440.909 29.0787 440.93 30.316C440.93 31.3613 440.631 32.3 440.034 33.132C439.458 33.9427 438.615 34.5827 437.506 35.052C436.418 35.5213 435.149 35.756 433.698 35.756Z" fill="white"/>
<path d="M277.512 35.5L275.432 33.484C273.362 35.0627 270.888 35.852 268.008 35.852C266.28 35.852 264.776 35.5747 263.496 35.02C262.216 34.444 261.224 33.644 260.52 32.62C259.837 31.5747 259.496 30.3587 259.496 28.972C259.496 27.564 259.869 26.2947 260.616 25.164C261.384 24.012 262.525 23.0733 264.04 22.348C263.485 21.6653 263.09 21.0147 262.856 20.396C262.621 19.756 262.504 19.0627 262.504 18.316C262.504 17.2493 262.781 16.2787 263.336 15.404C263.89 14.5293 264.69 13.8467 265.736 13.356C266.802 12.844 268.061 12.588 269.512 12.588C270.984 12.588 272.232 12.8547 273.256 13.388C274.28 13.9213 275.048 14.636 275.56 15.532C276.072 16.428 276.306 17.4093 276.264 18.476H271.112C271.133 17.9 270.984 17.4627 270.664 17.164C270.365 16.844 269.96 16.684 269.448 16.684C268.936 16.684 268.509 16.8333 268.168 17.132C267.826 17.4307 267.656 17.8147 267.656 18.284C267.656 18.732 267.794 19.2013 268.072 19.692C268.37 20.1827 268.829 20.748 269.448 21.388L274.92 26.732C274.962 26.6253 275.016 26.4973 275.08 26.348C275.165 26.1987 275.25 26.028 275.336 25.836L276.52 23.82H281.992L280.456 26.604C279.88 27.8627 279.218 29.0573 278.472 30.188L283.88 35.5H277.512ZM268.264 31.436C269.693 31.436 270.962 31.0307 272.072 30.22L267.08 25.388C265.544 26.1773 264.776 27.244 264.776 28.588C264.776 29.3987 265.085 30.0813 265.704 30.636C266.344 31.1693 267.197 31.436 268.264 31.436Z" fill="white"/>
<path d="M191.356 29.868C191.356 28.7587 191.596 27.772 192.076 26.908C192.556 26.0333 193.223 25.356 194.076 24.876C194.94 24.3853 195.916 24.14 197.004 24.14C198.337 24.14 199.479 24.492 200.428 25.196C201.377 25.9 202.012 26.86 202.332 28.076H199.324C199.1 27.6067 198.78 27.2493 198.364 27.004C197.959 26.7587 197.495 26.636 196.972 26.636C196.129 26.636 195.447 26.9293 194.924 27.516C194.401 28.1027 194.14 28.8867 194.14 29.868C194.14 30.8493 194.401 31.6333 194.924 32.22C195.447 32.8067 196.129 33.1 196.972 33.1C197.495 33.1 197.959 32.9773 198.364 32.732C198.78 32.4867 199.1 32.1293 199.324 31.66H202.332C202.012 32.876 201.377 33.836 200.428 34.54C199.479 35.2333 198.337 35.58 197.004 35.58C195.916 35.58 194.94 35.34 194.076 34.86C193.223 34.3693 192.556 33.692 192.076 32.828C191.596 31.964 191.356 30.9773 191.356 29.868ZM202.664 31.02C202.664 30.1027 202.834 29.2973 203.176 28.604C203.528 27.9107 204.002 27.3773 204.6 27.004C205.197 26.6307 205.864 26.444 206.6 26.444C207.229 26.444 207.778 26.572 208.248 26.828C208.728 27.084 209.096 27.42 209.352 27.836V26.572H212.088V35.5H209.352V34.236C209.085 34.652 208.712 34.988 208.232 35.244C207.762 35.5 207.213 35.628 206.584 35.628C205.858 35.628 205.197 35.4413 204.6 35.068C204.002 34.684 203.528 34.1453 203.176 33.452C202.834 32.748 202.664 31.9373 202.664 31.02ZM209.352 31.036C209.352 30.3533 209.16 29.8147 208.776 29.42C208.402 29.0253 207.944 28.828 207.4 28.828C206.856 28.828 206.392 29.0253 206.008 29.42C205.634 29.804 205.448 30.3373 205.448 31.02C205.448 31.7027 205.634 32.2467 206.008 32.652C206.392 33.0467 206.856 33.244 207.4 33.244C207.944 33.244 208.402 33.0467 208.776 32.652C209.16 32.2573 209.352 31.7187 209.352 31.036ZM216.003 28.06C216.323 27.5693 216.723 27.1853 217.203 26.908C217.683 26.62 218.216 26.476 218.803 26.476V29.372H218.051C217.368 29.372 216.856 29.5213 216.515 29.82C216.174 30.108 216.003 30.62 216.003 31.356V35.5H213.267V26.572H216.003V28.06ZM222.047 27.836C222.303 27.42 222.671 27.084 223.151 26.828C223.631 26.572 224.18 26.444 224.799 26.444C225.535 26.444 226.201 26.6307 226.799 27.004C227.396 27.3773 227.865 27.9107 228.207 28.604C228.559 29.2973 228.735 30.1027 228.735 31.02C228.735 31.9373 228.559 32.748 228.207 33.452C227.865 34.1453 227.396 34.684 226.799 35.068C226.201 35.4413 225.535 35.628 224.799 35.628C224.169 35.628 223.62 35.5053 223.151 35.26C222.681 35.004 222.313 34.668 222.047 34.252V35.5H219.311V23.66H222.047V27.836ZM225.951 31.02C225.951 30.3373 225.759 29.804 225.375 29.42C225.001 29.0253 224.537 28.828 223.983 28.828C223.439 28.828 222.975 29.0253 222.591 29.42C222.217 29.8147 222.031 30.3533 222.031 31.036C222.031 31.7187 222.217 32.2573 222.591 32.652C222.975 33.0467 223.439 33.244 223.983 33.244C224.527 33.244 224.991 33.0467 225.375 32.652C225.759 32.2467 225.951 31.7027 225.951 31.02ZM233.434 35.628C232.559 35.628 231.77 35.4413 231.066 35.068C230.373 34.6947 229.823 34.1613 229.418 33.468C229.023 32.7747 228.826 31.964 228.826 31.036C228.826 30.1187 229.029 29.3133 229.434 28.62C229.839 27.916 230.394 27.3773 231.098 27.004C231.802 26.6307 232.591 26.444 233.466 26.444C234.341 26.444 235.13 26.6307 235.834 27.004C236.538 27.3773 237.093 27.916 237.498 28.62C237.903 29.3133 238.106 30.1187 238.106 31.036C238.106 31.9533 237.898 32.764 237.482 33.468C237.077 34.1613 236.517 34.6947 235.802 35.068C235.098 35.4413 234.309 35.628 233.434 35.628ZM233.434 33.26C233.957 33.26 234.399 33.068 234.762 32.684C235.135 32.3 235.322 31.7507 235.322 31.036C235.322 30.3213 235.141 29.772 234.778 29.388C234.426 29.004 233.989 28.812 233.466 28.812C232.933 28.812 232.49 29.004 232.138 29.388C231.786 29.7613 231.61 30.3107 231.61 31.036C231.61 31.7507 231.781 32.3 232.122 32.684C232.474 33.068 232.911 33.26 233.434 33.26ZM244.198 26.476C245.243 26.476 246.075 26.8173 246.694 27.5C247.323 28.172 247.638 29.1 247.638 30.284V35.5H244.918V30.652C244.918 30.0547 244.763 29.5907 244.454 29.26C244.144 28.9293 243.728 28.764 243.206 28.764C242.683 28.764 242.267 28.9293 241.958 29.26C241.648 29.5907 241.494 30.0547 241.494 30.652V35.5H238.758V26.572H241.494V27.756C241.771 27.3613 242.144 27.052 242.614 26.828C243.083 26.5933 243.611 26.476 244.198 26.476Z" fill="white"/>
<path d="M454.579 35.5L452.243 31.26H451.587V35.5H448.851V24.268H453.443C454.329 24.268 455.081 24.4227 455.699 24.732C456.329 25.0413 456.798 25.468 457.107 26.012C457.417 26.5453 457.571 27.1427 457.571 27.804C457.571 28.5507 457.358 29.2173 456.931 29.804C456.515 30.3907 455.897 30.8067 455.075 31.052L457.667 35.5H454.579ZM451.587 29.324H453.283C453.785 29.324 454.158 29.2013 454.403 28.956C454.659 28.7107 454.787 28.364 454.787 27.916C454.787 27.4893 454.659 27.1533 454.403 26.908C454.158 26.6627 453.785 26.54 453.283 26.54H451.587V29.324ZM466.905 30.892C466.905 31.148 466.889 31.4147 466.857 31.692H460.665C460.708 32.2467 460.884 32.6733 461.193 32.972C461.513 33.26 461.902 33.404 462.361 33.404C463.044 33.404 463.518 33.116 463.785 32.54H466.697C466.548 33.1267 466.276 33.6547 465.881 34.124C465.497 34.5933 465.012 34.9613 464.425 35.228C463.838 35.4947 463.182 35.628 462.457 35.628C461.582 35.628 460.804 35.4413 460.121 35.068C459.438 34.6947 458.905 34.1613 458.521 33.468C458.137 32.7747 457.945 31.964 457.945 31.036C457.945 30.108 458.132 29.2973 458.505 28.604C458.889 27.9107 459.422 27.3773 460.105 27.004C460.788 26.6307 461.572 26.444 462.457 26.444C463.321 26.444 464.089 26.6253 464.761 26.988C465.433 27.3507 465.956 27.868 466.329 28.54C466.713 29.212 466.905 29.996 466.905 30.892ZM464.105 30.172C464.105 29.7027 463.945 29.3293 463.625 29.052C463.305 28.7747 462.905 28.636 462.425 28.636C461.966 28.636 461.577 28.7693 461.257 29.036C460.948 29.3027 460.756 29.6813 460.681 30.172H464.105ZM470.94 26.444C471.57 26.444 472.119 26.572 472.588 26.828C473.068 27.084 473.436 27.42 473.692 27.836V26.572H476.428V35.484C476.428 36.3053 476.263 37.0467 475.932 37.708C475.612 38.38 475.116 38.9133 474.444 39.308C473.783 39.7027 472.956 39.9 471.964 39.9C470.642 39.9 469.57 39.5853 468.748 38.956C467.927 38.3373 467.458 37.4947 467.34 36.428H470.044C470.13 36.7693 470.332 37.036 470.652 37.228C470.972 37.4307 471.367 37.532 471.836 37.532C472.402 37.532 472.85 37.3667 473.18 37.036C473.522 36.716 473.692 36.1987 473.692 35.484V34.22C473.426 34.636 473.058 34.9773 472.588 35.244C472.119 35.5 471.57 35.628 470.94 35.628C470.204 35.628 469.538 35.4413 468.94 35.068C468.343 34.684 467.868 34.1453 467.516 33.452C467.175 32.748 467.004 31.9373 467.004 31.02C467.004 30.1027 467.175 29.2973 467.516 28.604C467.868 27.9107 468.343 27.3773 468.94 27.004C469.538 26.6307 470.204 26.444 470.94 26.444ZM473.692 31.036C473.692 30.3533 473.5 29.8147 473.116 29.42C472.743 29.0253 472.284 28.828 471.74 28.828C471.196 28.828 470.732 29.0253 470.348 29.42C469.975 29.804 469.788 30.3373 469.788 31.02C469.788 31.7027 469.975 32.2467 470.348 32.652C470.732 33.0467 471.196 33.244 471.74 33.244C472.284 33.244 472.743 33.0467 473.116 32.652C473.5 32.2573 473.692 31.7187 473.692 31.036ZM478.984 25.644C478.504 25.644 478.109 25.5053 477.8 25.228C477.501 24.94 477.352 24.588 477.352 24.172C477.352 23.7453 477.501 23.3933 477.8 23.116C478.109 22.828 478.504 22.684 478.984 22.684C479.453 22.684 479.837 22.828 480.136 23.116C480.445 23.3933 480.6 23.7453 480.6 24.172C480.6 24.588 480.445 24.94 480.136 25.228C479.837 25.5053 479.453 25.644 478.984 25.644ZM480.344 26.572V35.5H477.608V26.572H480.344ZM485.158 35.628C484.38 35.628 483.686 35.4947 483.078 35.228C482.47 34.9613 481.99 34.5987 481.638 34.14C481.286 33.6707 481.089 33.148 481.046 32.572H483.75C483.782 32.8813 483.926 33.132 484.182 33.324C484.438 33.516 484.753 33.612 485.126 33.612C485.468 33.612 485.729 33.548 485.91 33.42C486.102 33.2813 486.198 33.1053 486.198 32.892C486.198 32.636 486.065 32.4493 485.798 32.332C485.532 32.204 485.1 32.0653 484.502 31.916C483.862 31.7667 483.329 31.612 482.902 31.452C482.476 31.2813 482.108 31.02 481.798 30.668C481.489 30.3053 481.334 29.82 481.334 29.212C481.334 28.7 481.473 28.236 481.75 27.82C482.038 27.3933 482.454 27.0573 482.998 26.812C483.553 26.5667 484.209 26.444 484.966 26.444C486.086 26.444 486.966 26.7213 487.606 27.276C488.257 27.8307 488.63 28.5667 488.726 29.484H486.198C486.156 29.1747 486.017 28.9293 485.782 28.748C485.558 28.5667 485.26 28.476 484.886 28.476C484.566 28.476 484.321 28.54 484.15 28.668C483.98 28.7853 483.894 28.9507 483.894 29.164C483.894 29.42 484.028 29.612 484.294 29.74C484.572 29.868 484.998 29.996 485.574 30.124C486.236 30.2947 486.774 30.4653 487.19 30.636C487.606 30.796 487.969 31.0627 488.278 31.436C488.598 31.7987 488.764 32.2893 488.774 32.908C488.774 33.4307 488.625 33.9 488.326 34.316C488.038 34.7213 487.617 35.0413 487.062 35.276C486.518 35.5107 485.884 35.628 485.158 35.628ZM494.624 33.18V35.5H493.232C492.24 35.5 491.467 35.26 490.912 34.78C490.358 34.2893 490.08 33.4947 490.08 32.396V28.844H488.992V26.572H490.08V24.396H492.816V26.572H494.608V28.844H492.816V32.428C492.816 32.6947 492.88 32.8867 493.008 33.004C493.136 33.1213 493.35 33.18 493.648 33.18H494.624ZM498.084 28.06C498.404 27.5693 498.804 27.1853 499.284 26.908C499.764 26.62 500.298 26.476 500.884 26.476V29.372H500.132C499.45 29.372 498.938 29.5213 498.596 29.82C498.255 30.108 498.084 30.62 498.084 31.356V35.5H495.348V26.572H498.084V28.06ZM510.512 26.572L504.912 39.74H501.968L504.016 35.196L500.384 26.572H503.44L505.504 32.156L507.552 26.572H510.512Z" fill="white"/>
<g clip-path="url(#clip0_15_613)">
<path d="M43.3728 32.1539C43.3728 32.1539 43.841 17.0041 34.721 10.9703C25.0473 4.57409 12.4585 8.31165 8.98153 20.1025C6.80739 27.4758 4.16911 27.8423 1.8199 26.3684C1.81583 26.3684 1.81582 26.3643 1.81175 26.3643C0.411185 24.5118 0.130259 21.7514 0.834615 18.4821C2.14968 12.4075 10.435 3.42188 21.493 3.42188C36.0728 3.42188 43.7474 15.6443 44.0365 25.0615C44.0894 26.1893 44.2278 28.8968 43.3728 32.1539Z" fill="url(#paint0_linear_15_613)"/>
<path d="M34.7281 10.9704C25.0544 4.57422 12.4656 8.31179 8.98862 20.1026C6.81448 27.476 4.1762 27.8424 1.82699 26.3685C1.82292 26.3685 1.82292 26.3645 1.81885 26.3645C3.01992 27.9523 5.04748 28.8725 7.98705 28.8725C14.3873 28.8725 18.015 23.262 23.0635 20.5342C28.1121 17.8023 35.5831 19.0237 38.4983 25.8881C39.5731 28.4205 39.5894 31.3764 39.1782 34.1002C39.1782 34.1042 39.1782 34.1042 39.1782 34.1083C38.5797 38.0576 37.0936 41.5142 36.6539 42.4792C36.6499 42.4914 36.6458 42.4995 36.6376 42.5077C36.5766 42.642 36.5399 42.7194 36.5318 42.7397C40.6113 39.3645 42.5127 35.4722 43.3799 32.154C43.3799 32.154 43.8481 17.0043 34.7281 10.9704Z" fill="url(#paint1_linear_15_613)"/>
<path d="M31.9525 33.1844C31.8548 37.2111 29.4527 39.6254 25.5522 41.3802C15.4225 45.9402 2.71157 40.3298 0 30.139C0.118071 30.3955 2.05607 34.4791 7.84156 34.4791C13.8143 34.4791 18.1545 24.3413 26.4764 24.3413C27.1645 24.3413 27.8159 24.3942 28.4389 24.5042C28.4429 24.5001 28.4429 24.5001 28.447 24.5042C28.7076 24.6385 32.1113 26.4584 31.9525 33.1844Z" fill="url(#paint2_linear_15_613)"/>
<path d="M35.1526 39.0063C32.3881 44.7429 20.6625 50.8501 10.7323 45.3618C10.7323 45.3618 2.11714 41.1234 0 30.1388C2.71157 40.3295 15.4225 45.9399 25.5522 41.3799C29.4527 39.6252 31.8548 37.2108 31.9525 33.1842C32.1113 26.4582 28.7076 24.6383 28.447 24.5039C35.3399 25.6643 38.0881 32.9195 35.1526 39.0063Z" fill="url(#paint3_linear_15_613)"/>
</g>
<defs>
<linearGradient id="paint0_linear_15_613" x1="20.8357" y1="-6.0388" x2="26.2412" y2="106.852" gradientUnits="userSpaceOnUse">
<stop stop-color="#45DCA3"/>
<stop offset="0.4749" stop-color="#128D89"/>
<stop offset="1" stop-color="#333336"/>
</linearGradient>
<linearGradient id="paint1_linear_15_613" x1="36.2349" y1="-3.00383" x2="13.5735" y2="51.0508" gradientUnits="userSpaceOnUse">
<stop stop-color="#45DCA3"/>
<stop offset="0.4749" stop-color="#128D89"/>
<stop offset="1" stop-color="#333336"/>
</linearGradient>
<linearGradient id="paint2_linear_15_613" x1="50.95" y1="-9.78664" x2="-11.0049" y2="66.0977" gradientUnits="userSpaceOnUse">
<stop stop-color="#45DCA3"/>
<stop offset="0.4749" stop-color="#128D89"/>
<stop offset="1" stop-color="#333336"/>
</linearGradient>
<linearGradient id="paint3_linear_15_613" x1="32.0762" y1="-10.6" x2="11.0781" y2="55.0971" gradientUnits="userSpaceOnUse">
<stop stop-color="#45DCA3"/>
<stop offset="0.4749" stop-color="#128D89"/>
<stop offset="1" stop-color="#333336"/>
</linearGradient>
<clipPath id="clip0_15_613">
<rect width="44.0781" height="44.086" fill="white" transform="translate(0 3.42188)"/>
</clipPath>
</defs>
</svg>
