<svg viewBox="0 0 512 49" xmlns="http://www.w3.org/2000/svg">
<path d="M75.2681 20.2641C75.2681 21.5654 74.9694 22.7601 74.3721 23.8481C73.7747 24.9148 72.8574 25.7788 71.6201 26.4401C70.3827 27.1014 68.8467 27.4321 67.0121 27.4321H63.6201V35.4961H58.1481V13.0321H67.0121C68.8041 13.0321 70.3187 13.3414 71.5561 13.9601C72.7934 14.5788 73.7214 15.4321 74.3401 16.5201C74.9587 17.6081 75.2681 18.8561 75.2681 20.2641ZM66.5961 23.0801C67.6414 23.0801 68.4201 22.8348 68.9321 22.3441C69.4441 21.8534 69.7001 21.1601 69.7001 20.2641C69.7001 19.3681 69.4441 18.6748 68.9321 18.1841C68.4201 17.6934 67.6414 17.4481 66.5961 17.4481H63.6201V23.0801H66.5961ZM81.9888 17.4161V21.9601H89.3168V26.1841H81.9888V31.1121H90.2768V35.4961H76.5168V13.0321H90.2768V17.4161H81.9888ZM103.685 35.4961L99.0133 27.0161H97.7013V35.4961H92.2293V13.0321H101.413C103.184 13.0321 104.688 13.3414 105.925 13.9601C107.184 14.5788 108.123 15.4321 108.741 16.5201C109.36 17.5868 109.669 18.7814 109.669 20.1041C109.669 21.5974 109.243 22.9308 108.389 24.1041C107.557 25.2774 106.32 26.1094 104.677 26.6001L109.861 35.4961H103.685ZM97.7013 23.1441H101.093C102.096 23.1441 102.843 22.8988 103.333 22.4081C103.845 21.9174 104.101 21.2241 104.101 20.3281C104.101 19.4748 103.845 18.8028 103.333 18.3121C102.843 17.8214 102.096 17.5761 101.093 17.5761H97.7013V23.1441ZM116.976 31.2721H124.144V35.4961H111.504V13.0321H116.976V31.2721ZM127.714 35.7521C126.754 35.7521 125.965 35.4748 125.346 34.9201C124.749 34.3441 124.45 33.6401 124.45 32.8081C124.45 31.9548 124.749 31.2401 125.346 30.6641C125.965 30.0881 126.754 29.8001 127.714 29.8001C128.653 29.8001 129.421 30.0881 130.018 30.6641C130.637 31.2401 130.946 31.9548 130.946 32.8081C130.946 33.6401 130.637 34.3441 130.018 34.9201C129.421 35.4748 128.653 35.7521 127.714 35.7521ZM149.418 26.2801C149.418 26.7921 149.386 27.3254 149.322 27.8801H136.938C137.023 28.9894 137.375 29.8428 137.994 30.4401C138.634 31.0161 139.412 31.3041 140.33 31.3041C141.695 31.3041 142.644 30.7281 143.178 29.5761H149.002C148.703 30.7494 148.159 31.8054 147.37 32.7441C146.602 33.6828 145.631 34.4188 144.458 34.9521C143.284 35.4854 141.972 35.7521 140.522 35.7521C138.772 35.7521 137.215 35.3788 135.85 34.6321C134.484 33.8854 133.418 32.8188 132.65 31.4321C131.882 30.0454 131.498 28.4241 131.498 26.5681C131.498 24.7121 131.871 23.0908 132.618 21.7041C133.386 20.3174 134.452 19.2508 135.818 18.5041C137.183 17.7574 138.751 17.3841 140.522 17.3841C142.25 17.3841 143.786 17.7468 145.13 18.4721C146.474 19.1974 147.519 20.2321 148.266 21.5761C149.034 22.9201 149.418 24.4881 149.418 26.2801ZM143.818 24.8401C143.818 23.9014 143.498 23.1548 142.858 22.6001C142.218 22.0454 141.418 21.7681 140.458 21.7681C139.54 21.7681 138.762 22.0348 138.122 22.5681C137.503 23.1014 137.119 23.8588 136.97 24.8401H143.818ZM149.616 26.5681C149.616 24.7121 149.99 23.0908 150.736 21.7041C151.504 20.3174 152.56 19.2508 153.904 18.5041C155.27 17.7574 156.827 17.3841 158.576 17.3841C160.816 17.3841 162.683 17.9708 164.176 19.1441C165.691 20.3174 166.683 21.9708 167.152 24.1041H161.328C160.838 22.7388 159.888 22.0561 158.48 22.0561C157.478 22.0561 156.678 22.4508 156.08 23.2401C155.483 24.0081 155.184 25.1174 155.184 26.5681C155.184 28.0188 155.483 29.1388 156.08 29.9281C156.678 30.6961 157.478 31.0801 158.48 31.0801C159.888 31.0801 160.838 30.3974 161.328 29.0321H167.152C166.683 31.1228 165.691 32.7654 164.176 33.9601C162.662 35.1548 160.795 35.7521 158.576 35.7521C156.827 35.7521 155.27 35.3788 153.904 34.6321C152.56 33.8854 151.504 32.8188 150.736 31.4321C149.99 30.0454 149.616 28.4241 149.616 26.5681ZM176.607 35.7521C174.858 35.7521 173.279 35.3788 171.871 34.6321C170.485 33.8854 169.386 32.8188 168.575 31.4321C167.786 30.0454 167.391 28.4241 167.391 26.5681C167.391 24.7334 167.797 23.1228 168.607 21.7361C169.418 20.3281 170.527 19.2508 171.935 18.5041C173.343 17.7574 174.922 17.3841 176.671 17.3841C178.421 17.3841 179.999 17.7574 181.407 18.5041C182.815 19.2508 183.925 20.3281 184.735 21.7361C185.546 23.1228 185.951 24.7334 185.951 26.5681C185.951 28.4028 185.535 30.0241 184.703 31.4321C183.893 32.8188 182.773 33.8854 181.343 34.6321C179.935 35.3788 178.357 35.7521 176.607 35.7521ZM176.607 31.0161C177.653 31.0161 178.538 30.6321 179.263 29.8641C180.01 29.0961 180.383 27.9974 180.383 26.5681C180.383 25.1388 180.021 24.0401 179.295 23.2721C178.591 22.5041 177.717 22.1201 176.671 22.1201C175.605 22.1201 174.719 22.5041 174.015 23.2721C173.311 24.0188 172.959 25.1174 172.959 26.5681C172.959 27.9974 173.301 29.0961 173.983 29.8641C174.687 30.6321 175.562 31.0161 176.607 31.0161Z" fill="#333336"/>
<path d="M310.264 23.9761C311.565 24.2534 312.61 24.9041 313.4 25.9281C314.189 26.9308 314.584 28.0828 314.584 29.3841C314.584 31.2614 313.922 32.7548 312.6 33.8641C311.298 34.9521 309.474 35.4961 307.128 35.4961H296.664V13.0321H306.776C309.058 13.0321 310.84 13.5548 312.12 14.6001C313.421 15.6454 314.072 17.0641 314.072 18.8561C314.072 20.1788 313.72 21.2774 313.016 22.1521C312.333 23.0268 311.416 23.6348 310.264 23.9761ZM302.136 22.1201H305.72C306.616 22.1201 307.298 21.9281 307.768 21.5441C308.258 21.1388 308.504 20.5521 308.504 19.7841C308.504 19.0161 308.258 18.4294 307.768 18.0241C307.298 17.6188 306.616 17.4161 305.72 17.4161H302.136V22.1201ZM306.168 31.0801C307.085 31.0801 307.789 30.8774 308.28 30.4721C308.792 30.0454 309.048 29.4374 309.048 28.6481C309.048 27.8588 308.781 27.2401 308.248 26.7921C307.736 26.3441 307.021 26.1201 306.104 26.1201H302.136V31.0801H306.168ZM318.909 15.7841C317.949 15.7841 317.16 15.5068 316.541 14.9521C315.944 14.3761 315.645 13.6721 315.645 12.8401C315.645 11.9868 315.944 11.2828 316.541 10.7281C317.16 10.1521 317.949 9.86409 318.909 9.86409C319.848 9.86409 320.616 10.1521 321.213 10.7281C321.832 11.2828 322.141 11.9868 322.141 12.8401C322.141 13.6721 321.832 14.3761 321.213 14.9521C320.616 15.5068 319.848 15.7841 318.909 15.7841ZM321.629 17.6401V35.4961H316.157V17.6401H321.629ZM332.123 35.7521C330.374 35.7521 328.795 35.3788 327.387 34.6321C326 33.8854 324.902 32.8188 324.091 31.4321C323.302 30.0454 322.907 28.4241 322.907 26.5681C322.907 24.7334 323.312 23.1228 324.123 21.7361C324.934 20.3281 326.043 19.2508 327.451 18.5041C328.859 17.7574 330.438 17.3841 332.187 17.3841C333.936 17.3841 335.515 17.7574 336.923 18.5041C338.331 19.2508 339.44 20.3281 340.251 21.7361C341.062 23.1228 341.467 24.7334 341.467 26.5681C341.467 28.4028 341.051 30.0241 340.219 31.4321C339.408 32.8188 338.288 33.8854 336.859 34.6321C335.451 35.3788 333.872 35.7521 332.123 35.7521ZM332.123 31.0161C333.168 31.0161 334.054 30.6321 334.779 29.8641C335.526 29.0961 335.899 27.9974 335.899 26.5681C335.899 25.1388 335.536 24.0401 334.811 23.2721C334.107 22.5041 333.232 22.1201 332.187 22.1201C331.12 22.1201 330.235 22.5041 329.531 23.2721C328.827 24.0188 328.475 25.1174 328.475 26.5681C328.475 27.9974 328.816 29.0961 329.499 29.8641C330.203 30.6321 331.078 31.0161 332.123 31.0161ZM356.754 31.5281H348.37L347.026 35.4961H341.298L349.426 13.0321H355.762L363.89 35.4961H358.098L356.754 31.5281ZM355.346 27.3041L352.562 19.0801L349.81 27.3041H355.346ZM372.028 35.7521C370.47 35.7521 369.084 35.4854 367.868 34.9521C366.652 34.4188 365.692 33.6934 364.988 32.7761C364.284 31.8374 363.889 30.7921 363.804 29.6401H369.212C369.276 30.2588 369.564 30.7601 370.076 31.1441C370.588 31.5281 371.217 31.7201 371.964 31.7201C372.646 31.7201 373.169 31.5921 373.532 31.3361C373.916 31.0588 374.108 30.7068 374.108 30.2801C374.108 29.7681 373.841 29.3948 373.308 29.1601C372.774 28.9041 371.91 28.6268 370.716 28.3281C369.436 28.0294 368.369 27.7201 367.516 27.4001C366.662 27.0588 365.926 26.5361 365.308 25.8321C364.689 25.1068 364.38 24.1361 364.38 22.9201C364.38 21.8961 364.657 20.9681 365.212 20.1361C365.788 19.2828 366.62 18.6108 367.708 18.1201C368.817 17.6294 370.129 17.3841 371.644 17.3841C373.884 17.3841 375.644 17.9388 376.924 19.0481C378.225 20.1574 378.972 21.6294 379.164 23.4641H374.108C374.022 22.8454 373.745 22.3548 373.276 21.9921C372.828 21.6294 372.23 21.4481 371.484 21.4481C370.844 21.4481 370.353 21.5761 370.012 21.8321C369.67 22.0668 369.5 22.3974 369.5 22.8241C369.5 23.3361 369.766 23.7201 370.3 23.9761C370.854 24.2321 371.708 24.4881 372.86 24.7441C374.182 25.0854 375.26 25.4268 376.092 25.7681C376.924 26.0881 377.649 26.6214 378.268 27.3681C378.908 28.0934 379.238 29.0748 379.26 30.3121C379.26 31.3574 378.961 32.2961 378.364 33.1281C377.788 33.9388 376.945 34.5788 375.836 35.0481C374.748 35.5174 373.478 35.7521 372.028 35.7521ZM388.271 35.7521C386.714 35.7521 385.327 35.4854 384.111 34.9521C382.895 34.4188 381.935 33.6934 381.231 32.7761C380.527 31.8374 380.133 30.7921 380.047 29.6401H385.455C385.519 30.2588 385.807 30.7601 386.319 31.1441C386.831 31.5281 387.461 31.7201 388.207 31.7201C388.89 31.7201 389.413 31.5921 389.775 31.3361C390.159 31.0588 390.351 30.7068 390.351 30.2801C390.351 29.7681 390.085 29.3948 389.551 29.1601C389.018 28.9041 388.154 28.6268 386.959 28.3281C385.679 28.0294 384.613 27.7201 383.759 27.4001C382.906 27.0588 382.17 26.5361 381.551 25.8321C380.933 25.1068 380.623 24.1361 380.623 22.9201C380.623 21.8961 380.901 20.9681 381.455 20.1361C382.031 19.2828 382.863 18.6108 383.951 18.1201C385.061 17.6294 386.373 17.3841 387.887 17.3841C390.127 17.3841 391.887 17.9388 393.167 19.0481C394.469 20.1574 395.215 21.6294 395.407 23.4641H390.351C390.266 22.8454 389.989 22.3548 389.519 21.9921C389.071 21.6294 388.474 21.4481 387.727 21.4481C387.087 21.4481 386.597 21.5761 386.255 21.8321C385.914 22.0668 385.743 22.3974 385.743 22.8241C385.743 23.3361 386.01 23.7201 386.543 23.9761C387.098 24.2321 387.951 24.4881 389.103 24.7441C390.426 25.0854 391.503 25.4268 392.335 25.7681C393.167 26.0881 393.893 26.6214 394.511 27.3681C395.151 28.0934 395.482 29.0748 395.503 30.3121C395.503 31.3574 395.205 32.2961 394.607 33.1281C394.031 33.9388 393.189 34.5788 392.079 35.0481C390.991 35.5174 389.722 35.7521 388.271 35.7521ZM414.083 26.2801C414.083 26.7921 414.051 27.3254 413.987 27.8801H401.603C401.689 28.9894 402.041 29.8428 402.659 30.4401C403.299 31.0161 404.078 31.3041 404.995 31.3041C406.361 31.3041 407.31 30.7281 407.843 29.5761H413.667C413.369 30.7494 412.825 31.8054 412.035 32.7441C411.267 33.6828 410.297 34.4188 409.123 34.9521C407.95 35.4854 406.638 35.7521 405.187 35.7521C403.438 35.7521 401.881 35.3788 400.515 34.6321C399.15 33.8854 398.083 32.8188 397.315 31.4321C396.547 30.0454 396.163 28.4241 396.163 26.5681C396.163 24.7121 396.537 23.0908 397.283 21.7041C398.051 20.3174 399.118 19.2508 400.483 18.5041C401.849 17.7574 403.417 17.3841 405.187 17.3841C406.915 17.3841 408.451 17.7468 409.795 18.4721C411.139 19.1974 412.185 20.2321 412.931 21.5761C413.699 22.9201 414.083 24.4881 414.083 26.2801ZM408.483 24.8401C408.483 23.9014 408.163 23.1548 407.523 22.6001C406.883 22.0454 406.083 21.7681 405.123 21.7681C404.206 21.7681 403.427 22.0348 402.787 22.5681C402.169 23.1014 401.785 23.8588 401.635 24.8401H408.483ZM425.322 30.8561V35.4961H422.538C420.554 35.4961 419.007 35.0161 417.898 34.0561C416.789 33.0748 416.234 31.4854 416.234 29.2881V22.1841H414.058V17.6401H416.234V13.2881H421.706V17.6401H425.29V22.1841H421.706V29.3521C421.706 29.8854 421.834 30.2694 422.09 30.5041C422.346 30.7388 422.773 30.8561 423.37 30.8561H425.322ZM434.034 35.7521C432.477 35.7521 431.09 35.4854 429.874 34.9521C428.658 34.4188 427.698 33.6934 426.994 32.7761C426.29 31.8374 425.895 30.7921 425.81 29.6401H431.218C431.282 30.2588 431.57 30.7601 432.082 31.1441C432.594 31.5281 433.223 31.7201 433.97 31.7201C434.653 31.7201 435.175 31.5921 435.538 31.3361C435.922 31.0588 436.114 30.7068 436.114 30.2801C436.114 29.7681 435.847 29.3948 435.314 29.1601C434.781 28.9041 433.917 28.6268 432.722 28.3281C431.442 28.0294 430.375 27.7201 429.522 27.4001C428.669 27.0588 427.933 26.5361 427.314 25.8321C426.695 25.1068 426.386 24.1361 426.386 22.9201C426.386 21.8961 426.663 20.9681 427.218 20.1361C427.794 19.2828 428.626 18.6108 429.714 18.1201C430.823 17.6294 432.135 17.3841 433.65 17.3841C435.89 17.3841 437.65 17.9388 438.93 19.0481C440.231 20.1574 440.978 21.6294 441.17 23.4641H436.114C436.029 22.8454 435.751 22.3548 435.282 21.9921C434.834 21.6294 434.237 21.4481 433.49 21.4481C432.85 21.4481 432.359 21.5761 432.018 21.8321C431.677 22.0668 431.506 22.3974 431.506 22.8241C431.506 23.3361 431.773 23.7201 432.306 23.9761C432.861 24.2321 433.714 24.4881 434.866 24.7441C436.189 25.0854 437.266 25.4268 438.098 25.7681C438.93 26.0881 439.655 26.6214 440.274 27.3681C440.914 28.0934 441.245 29.0748 441.266 30.3121C441.266 31.3574 440.967 32.2961 440.37 33.1281C439.794 33.9388 438.951 34.5788 437.842 35.0481C436.754 35.5174 435.485 35.7521 434.034 35.7521Z" fill="#333336"/>
<path d="M277.848 35.4961L275.768 33.4801C273.698 35.0588 271.224 35.8481 268.344 35.8481C266.616 35.8481 265.112 35.5708 263.832 35.0161C262.552 34.4401 261.56 33.6401 260.856 32.6161C260.173 31.5708 259.832 30.3548 259.832 28.9681C259.832 27.5601 260.205 26.2908 260.952 25.1601C261.72 24.0081 262.861 23.0694 264.376 22.3441C263.821 21.6614 263.426 21.0108 263.192 20.3921C262.957 19.7521 262.84 19.0588 262.84 18.3121C262.84 17.2454 263.117 16.2748 263.672 15.4001C264.226 14.5254 265.026 13.8428 266.072 13.3521C267.138 12.8401 268.397 12.5841 269.848 12.5841C271.32 12.5841 272.568 12.8508 273.592 13.3841C274.616 13.9174 275.384 14.6321 275.896 15.5281C276.408 16.4241 276.642 17.4054 276.6 18.4721H271.448C271.469 17.8961 271.32 17.4588 271 17.1601C270.701 16.8401 270.296 16.6801 269.784 16.6801C269.272 16.6801 268.845 16.8294 268.504 17.1281C268.162 17.4268 267.992 17.8108 267.992 18.2801C267.992 18.7281 268.13 19.1974 268.408 19.6881C268.706 20.1788 269.165 20.7441 269.784 21.3841L275.256 26.7281C275.298 26.6214 275.352 26.4934 275.416 26.3441C275.501 26.1948 275.586 26.0241 275.672 25.8321L276.856 23.8161H282.328L280.792 26.6001C280.216 27.8588 279.554 29.0534 278.808 30.1841L284.216 35.4961H277.848ZM268.6 31.4321C270.029 31.4321 271.298 31.0268 272.408 30.2161L267.416 25.3841C265.88 26.1734 265.112 27.2401 265.112 28.5841C265.112 29.3948 265.421 30.0774 266.04 30.6321C266.68 31.1654 267.533 31.4321 268.6 31.4321Z" fill="#333336"/>
<path d="M191.692 29.8641C191.692 28.7548 191.932 27.7681 192.412 26.9041C192.892 26.0294 193.559 25.3521 194.412 24.8721C195.276 24.3814 196.252 24.1361 197.34 24.1361C198.673 24.1361 199.815 24.4881 200.764 25.1921C201.713 25.8961 202.348 26.8561 202.668 28.0721H199.66C199.436 27.6028 199.116 27.2454 198.7 27.0001C198.295 26.7548 197.831 26.6321 197.308 26.6321C196.465 26.6321 195.783 26.9254 195.26 27.5121C194.737 28.0988 194.476 28.8828 194.476 29.8641C194.476 30.8454 194.737 31.6294 195.26 32.2161C195.783 32.8028 196.465 33.0961 197.308 33.0961C197.831 33.0961 198.295 32.9734 198.7 32.7281C199.116 32.4828 199.436 32.1254 199.66 31.6561H202.668C202.348 32.8721 201.713 33.8321 200.764 34.5361C199.815 35.2294 198.673 35.5761 197.34 35.5761C196.252 35.5761 195.276 35.3361 194.412 34.8561C193.559 34.3654 192.892 33.6881 192.412 32.8241C191.932 31.9601 191.692 30.9734 191.692 29.8641ZM203 31.0161C203 30.0988 203.17 29.2934 203.512 28.6001C203.864 27.9068 204.338 27.3734 204.936 27.0001C205.533 26.6268 206.2 26.4401 206.936 26.4401C207.565 26.4401 208.114 26.5681 208.584 26.8241C209.064 27.0801 209.432 27.4161 209.688 27.8321V26.5681H212.424V35.4961H209.688V34.2321C209.421 34.6481 209.048 34.9841 208.568 35.2401C208.098 35.4961 207.549 35.6241 206.92 35.6241C206.194 35.6241 205.533 35.4374 204.936 35.0641C204.338 34.6801 203.864 34.1414 203.512 33.4481C203.17 32.7441 203 31.9334 203 31.0161ZM209.688 31.0321C209.688 30.3494 209.496 29.8108 209.112 29.4161C208.738 29.0214 208.28 28.8241 207.736 28.8241C207.192 28.8241 206.728 29.0214 206.344 29.4161C205.97 29.8001 205.784 30.3334 205.784 31.0161C205.784 31.6988 205.97 32.2428 206.344 32.6481C206.728 33.0428 207.192 33.2401 207.736 33.2401C208.28 33.2401 208.738 33.0428 209.112 32.6481C209.496 32.2534 209.688 31.7148 209.688 31.0321ZM216.339 28.0561C216.659 27.5654 217.059 27.1814 217.539 26.9041C218.019 26.6161 218.552 26.4721 219.139 26.4721V29.3681H218.387C217.704 29.3681 217.192 29.5174 216.851 29.8161C216.51 30.1041 216.339 30.6161 216.339 31.3521V35.4961H213.603V26.5681H216.339V28.0561ZM222.383 27.8321C222.639 27.4161 223.007 27.0801 223.487 26.8241C223.967 26.5681 224.516 26.4401 225.135 26.4401C225.871 26.4401 226.537 26.6268 227.135 27.0001C227.732 27.3734 228.201 27.9068 228.543 28.6001C228.895 29.2934 229.071 30.0988 229.071 31.0161C229.071 31.9334 228.895 32.7441 228.543 33.4481C228.201 34.1414 227.732 34.6801 227.135 35.0641C226.537 35.4374 225.871 35.6241 225.135 35.6241C224.505 35.6241 223.956 35.5014 223.487 35.2561C223.017 35.0001 222.649 34.6641 222.383 34.2481V35.4961H219.647V23.6561H222.383V27.8321ZM226.287 31.0161C226.287 30.3334 226.095 29.8001 225.711 29.4161C225.337 29.0214 224.873 28.8241 224.319 28.8241C223.775 28.8241 223.311 29.0214 222.927 29.4161C222.553 29.8108 222.367 30.3494 222.367 31.0321C222.367 31.7148 222.553 32.2534 222.927 32.6481C223.311 33.0428 223.775 33.2401 224.319 33.2401C224.863 33.2401 225.327 33.0428 225.711 32.6481C226.095 32.2428 226.287 31.6988 226.287 31.0161ZM233.77 35.6241C232.895 35.6241 232.106 35.4374 231.402 35.0641C230.709 34.6908 230.159 34.1574 229.754 33.4641C229.359 32.7708 229.162 31.9601 229.162 31.0321C229.162 30.1148 229.365 29.3094 229.77 28.6161C230.175 27.9121 230.73 27.3734 231.434 27.0001C232.138 26.6268 232.927 26.4401 233.802 26.4401C234.677 26.4401 235.466 26.6268 236.17 27.0001C236.874 27.3734 237.429 27.9121 237.834 28.6161C238.239 29.3094 238.442 30.1148 238.442 31.0321C238.442 31.9494 238.234 32.7601 237.818 33.4641C237.413 34.1574 236.853 34.6908 236.138 35.0641C235.434 35.4374 234.645 35.6241 233.77 35.6241ZM233.77 33.2561C234.293 33.2561 234.735 33.0641 235.098 32.6801C235.471 32.2961 235.658 31.7468 235.658 31.0321C235.658 30.3174 235.477 29.7681 235.114 29.3841C234.762 29.0001 234.325 28.8081 233.802 28.8081C233.269 28.8081 232.826 29.0001 232.474 29.3841C232.122 29.7574 231.946 30.3068 231.946 31.0321C231.946 31.7468 232.117 32.2961 232.458 32.6801C232.81 33.0641 233.247 33.2561 233.77 33.2561ZM244.534 26.4721C245.579 26.4721 246.411 26.8134 247.03 27.4961C247.659 28.1681 247.974 29.0961 247.974 30.2801V35.4961H245.254V30.6481C245.254 30.0508 245.099 29.5868 244.79 29.2561C244.48 28.9254 244.064 28.7601 243.542 28.7601C243.019 28.7601 242.603 28.9254 242.294 29.2561C241.984 29.5868 241.83 30.0508 241.83 30.6481V35.4961H239.094V26.5681H241.83V27.7521C242.107 27.3574 242.48 27.0481 242.95 26.8241C243.419 26.5894 243.947 26.4721 244.534 26.4721Z" fill="#262626"/>
<path d="M454.915 35.4961L452.579 31.2561H451.923V35.4961H449.187V24.2641H453.779C454.665 24.2641 455.417 24.4188 456.035 24.7281C456.665 25.0374 457.134 25.4641 457.443 26.0081C457.753 26.5414 457.907 27.1388 457.907 27.8001C457.907 28.5468 457.694 29.2134 457.267 29.8001C456.851 30.3868 456.233 30.8028 455.411 31.0481L458.003 35.4961H454.915ZM451.923 29.3201H453.619C454.121 29.3201 454.494 29.1974 454.739 28.9521C454.995 28.7068 455.123 28.3601 455.123 27.9121C455.123 27.4854 454.995 27.1494 454.739 26.9041C454.494 26.6588 454.121 26.5361 453.619 26.5361H451.923V29.3201ZM467.241 30.8881C467.241 31.1441 467.225 31.4108 467.193 31.6881H461.001C461.043 32.2428 461.219 32.6694 461.529 32.9681C461.849 33.2561 462.238 33.4001 462.697 33.4001C463.379 33.4001 463.854 33.1121 464.121 32.5361H467.033C466.883 33.1228 466.611 33.6508 466.217 34.1201C465.833 34.5894 465.347 34.9574 464.761 35.2241C464.174 35.4908 463.518 35.6241 462.793 35.6241C461.918 35.6241 461.139 35.4374 460.457 35.0641C459.774 34.6908 459.241 34.1574 458.857 33.4641C458.473 32.7708 458.281 31.9601 458.281 31.0321C458.281 30.1041 458.467 29.2934 458.841 28.6001C459.225 27.9068 459.758 27.3734 460.441 27.0001C461.123 26.6268 461.907 26.4401 462.793 26.4401C463.657 26.4401 464.425 26.6214 465.097 26.9841C465.769 27.3468 466.291 27.8641 466.665 28.5361C467.049 29.2081 467.241 29.9921 467.241 30.8881ZM464.441 30.1681C464.441 29.6988 464.281 29.3254 463.961 29.0481C463.641 28.7708 463.241 28.6321 462.761 28.6321C462.302 28.6321 461.913 28.7654 461.593 29.0321C461.283 29.2988 461.091 29.6774 461.017 30.1681H464.441ZM471.276 26.4401C471.906 26.4401 472.455 26.5681 472.924 26.8241C473.404 27.0801 473.772 27.4161 474.028 27.8321V26.5681H476.764V35.4801C476.764 36.3014 476.599 37.0428 476.268 37.7041C475.948 38.3761 475.452 38.9094 474.78 39.3041C474.119 39.6988 473.292 39.8961 472.3 39.8961C470.978 39.8961 469.906 39.5814 469.084 38.9521C468.263 38.3334 467.794 37.4908 467.676 36.4241H470.38C470.466 36.7654 470.668 37.0321 470.988 37.2241C471.308 37.4268 471.703 37.5281 472.172 37.5281C472.738 37.5281 473.186 37.3628 473.516 37.0321C473.858 36.7121 474.028 36.1948 474.028 35.4801V34.2161C473.762 34.6321 473.394 34.9734 472.924 35.2401C472.455 35.4961 471.906 35.6241 471.276 35.6241C470.54 35.6241 469.874 35.4374 469.276 35.0641C468.679 34.6801 468.204 34.1414 467.852 33.4481C467.511 32.7441 467.34 31.9334 467.34 31.0161C467.34 30.0988 467.511 29.2934 467.852 28.6001C468.204 27.9068 468.679 27.3734 469.276 27.0001C469.874 26.6268 470.54 26.4401 471.276 26.4401ZM474.028 31.0321C474.028 30.3494 473.836 29.8108 473.452 29.4161C473.079 29.0214 472.62 28.8241 472.076 28.8241C471.532 28.8241 471.068 29.0214 470.684 29.4161C470.311 29.8001 470.124 30.3334 470.124 31.0161C470.124 31.6988 470.311 32.2428 470.684 32.6481C471.068 33.0428 471.532 33.2401 472.076 33.2401C472.62 33.2401 473.079 33.0428 473.452 32.6481C473.836 32.2534 474.028 31.7148 474.028 31.0321ZM479.32 25.6401C478.84 25.6401 478.445 25.5014 478.136 25.2241C477.837 24.9361 477.688 24.5841 477.688 24.1681C477.688 23.7414 477.837 23.3894 478.136 23.1121C478.445 22.8241 478.84 22.6801 479.32 22.6801C479.789 22.6801 480.173 22.8241 480.472 23.1121C480.781 23.3894 480.936 23.7414 480.936 24.1681C480.936 24.5841 480.781 24.9361 480.472 25.2241C480.173 25.5014 479.789 25.6401 479.32 25.6401ZM480.68 26.5681V35.4961H477.944V26.5681H480.68ZM485.494 35.6241C484.716 35.6241 484.022 35.4908 483.414 35.2241C482.806 34.9574 482.326 34.5948 481.974 34.1361C481.622 33.6668 481.425 33.1441 481.382 32.5681H484.086C484.118 32.8774 484.262 33.1281 484.518 33.3201C484.774 33.5121 485.089 33.6081 485.462 33.6081C485.804 33.6081 486.065 33.5441 486.246 33.4161C486.438 33.2774 486.534 33.1014 486.534 32.8881C486.534 32.6321 486.401 32.4454 486.134 32.3281C485.868 32.2001 485.436 32.0614 484.838 31.9121C484.198 31.7628 483.665 31.6081 483.238 31.4481C482.812 31.2774 482.444 31.0161 482.134 30.6641C481.825 30.3014 481.67 29.8161 481.67 29.2081C481.67 28.6961 481.809 28.2321 482.086 27.8161C482.374 27.3894 482.79 27.0534 483.334 26.8081C483.889 26.5628 484.545 26.4401 485.302 26.4401C486.422 26.4401 487.302 26.7174 487.942 27.2721C488.593 27.8268 488.966 28.5628 489.062 29.4801H486.534C486.492 29.1708 486.353 28.9254 486.118 28.7441C485.894 28.5628 485.596 28.4721 485.222 28.4721C484.902 28.4721 484.657 28.5361 484.486 28.6641C484.316 28.7814 484.23 28.9468 484.23 29.1601C484.23 29.4161 484.364 29.6081 484.63 29.7361C484.908 29.8641 485.334 29.9921 485.91 30.1201C486.572 30.2908 487.11 30.4614 487.526 30.6321C487.942 30.7921 488.305 31.0588 488.614 31.4321C488.934 31.7948 489.1 32.2854 489.11 32.9041C489.11 33.4268 488.961 33.8961 488.662 34.3121C488.374 34.7174 487.953 35.0374 487.398 35.2721C486.854 35.5068 486.22 35.6241 485.494 35.6241ZM494.96 33.1761V35.4961H493.568C492.576 35.4961 491.803 35.2561 491.248 34.7761C490.694 34.2854 490.416 33.4908 490.416 32.3921V28.8401H489.328V26.5681H490.416V24.3921H493.152V26.5681H494.944V28.8401H493.152V32.4241C493.152 32.6908 493.216 32.8828 493.344 33.0001C493.472 33.1174 493.686 33.1761 493.984 33.1761H494.96ZM498.42 28.0561C498.74 27.5654 499.14 27.1814 499.62 26.9041C500.1 26.6161 500.634 26.4721 501.22 26.4721V29.3681H500.468C499.786 29.3681 499.274 29.5174 498.932 29.8161C498.591 30.1041 498.42 30.6161 498.42 31.3521V35.4961H495.684V26.5681H498.42V28.0561ZM510.848 26.5681L505.248 39.7361H502.304L504.352 35.1921L500.72 26.5681H503.776L505.84 32.1521L507.888 26.5681H510.848Z" fill="#262626"/>
<g clip-path="url(#clip0_15_490)">
<path d="M43.7088 32.15C43.7088 32.15 44.177 17.0002 35.057 10.9664C25.3833 4.57018 12.7945 8.30775 9.31746 20.0986C7.14332 27.4719 4.50504 27.8384 2.15584 26.3645C2.15176 26.3645 2.15176 26.3604 2.14769 26.3604C0.747122 24.5079 0.466197 21.7475 1.17055 18.4782C2.48562 12.4036 10.771 3.41797 21.8289 3.41797C36.4087 3.41797 44.0833 15.6404 44.3724 25.0576C44.4253 26.1854 44.5638 28.8928 43.7088 32.15Z" fill="url(#paint0_linear_15_490)"/>
<path d="M35.0641 10.9665C25.3904 4.57026 12.8016 8.30782 9.32456 20.0987C7.15042 27.472 4.51214 27.8384 2.16293 26.3646C2.15886 26.3646 2.15886 26.3605 2.15479 26.3605C3.35585 27.9484 5.38342 28.8685 8.32299 28.8685C14.7233 28.8685 18.3509 23.2581 23.3995 20.5302C28.448 17.7983 35.9191 19.0197 38.8342 25.8841C39.9091 28.4166 39.9254 31.3724 39.5141 34.0962C39.5141 34.1003 39.5141 34.1003 39.5141 34.1043C38.9156 38.0536 37.4296 41.5103 36.9899 42.4752C36.9858 42.4874 36.9817 42.4955 36.9736 42.5037C36.9125 42.638 36.8759 42.7154 36.8677 42.7358C40.9473 39.3605 42.8486 35.4683 43.7158 32.1501C43.7158 32.1501 44.1841 17.0003 35.0641 10.9665Z" fill="url(#paint1_linear_15_490)"/>
<path d="M32.2885 33.1804C32.1907 37.207 29.7886 39.6214 25.8882 41.3762C15.7585 45.9362 3.0475 40.3258 0.335938 30.135C0.454009 30.3915 2.39201 34.4751 8.1775 34.4751C14.1503 34.4751 18.4904 24.3373 26.8124 24.3373C27.5005 24.3373 28.1519 24.3902 28.7748 24.5001C28.7789 24.4961 28.7789 24.4961 28.7829 24.5001C29.0435 24.6345 32.4472 26.4544 32.2885 33.1804Z" fill="url(#paint2_linear_15_490)"/>
<path d="M35.4886 39.0025C32.7241 44.7391 20.9984 50.8462 11.0682 45.358C11.0682 45.358 2.45308 41.1196 0.335938 30.1349C3.0475 40.3257 15.7585 45.9361 25.8882 41.3761C29.7886 39.6213 32.1907 37.207 32.2885 33.1803C32.4472 26.4543 29.0435 24.6344 28.783 24.5001C35.6759 25.6604 38.4241 32.9157 35.4886 39.0025Z" fill="url(#paint3_linear_15_490)"/>
</g>
<defs>
<linearGradient id="paint0_linear_15_490" x1="21.1717" y1="-6.04271" x2="26.5771" y2="106.848" gradientUnits="userSpaceOnUse">
<stop stop-color="#45DCA3"/>
<stop offset="0.4749" stop-color="#128D89"/>
<stop offset="1" stop-color="#333336"/>
</linearGradient>
<linearGradient id="paint1_linear_15_490" x1="36.5708" y1="-3.0078" x2="13.9095" y2="51.0468" gradientUnits="userSpaceOnUse">
<stop stop-color="#45DCA3"/>
<stop offset="0.4749" stop-color="#128D89"/>
<stop offset="1" stop-color="#333336"/>
</linearGradient>
<linearGradient id="paint2_linear_15_490" x1="51.2859" y1="-9.79067" x2="-10.6689" y2="66.0937" gradientUnits="userSpaceOnUse">
<stop stop-color="#45DCA3"/>
<stop offset="0.4749" stop-color="#128D89"/>
<stop offset="1" stop-color="#333336"/>
</linearGradient>
<linearGradient id="paint3_linear_15_490" x1="32.4121" y1="-10.6039" x2="11.414" y2="55.0932" gradientUnits="userSpaceOnUse">
<stop stop-color="#45DCA3"/>
<stop offset="0.4749" stop-color="#128D89"/>
<stop offset="1" stop-color="#333336"/>
</linearGradient>
<clipPath id="clip0_15_490">
<rect width="44.0781" height="44.086" fill="white" transform="translate(0.335938 3.41797)"/>
</clipPath>
</defs>
</svg>
