<svg width="82" height="101" viewBox="0 0 82 101" fill="none" xmlns="http://www.w3.org/2000/svg">
<g clip-path="url(#clip0_15_343)">
<path d="M78.076 40.2172V90.0037C78.1054 90.4078 77.938 90.7433 77.6817 90.9504L77.347 91.1474C77.0319 91.2561 76.6479 91.2361 76.2932 91.0391L34.0773 66.7325C33.7524 66.5453 33.5557 66.2 33.5557 65.8253V14.8555C33.5557 14.5401 33.6835 14.2639 33.8904 14.0665L33.91 14.0469L34.3238 13.8005C34.5994 13.7118 34.9148 13.7314 35.2005 13.899L36.6483 14.737L76.6674 37.7815C77.5442 38.2856 78.076 39.2123 78.076 40.2172Z" fill="url(#paint0_linear_15_343)"/>
<path d="M81.1708 38.2648V88.3079C81.1708 88.7713 80.8949 89.1263 80.5304 89.2743L77.684 90.9504C77.9399 90.7433 78.1076 90.4082 78.0778 90.004V40.2172C78.0778 39.2116 77.546 38.2848 76.6697 37.7818L36.6505 14.7374L35.2024 13.8993C34.9167 13.7317 34.6016 13.7118 34.3257 13.8004L37.5366 11.9073H37.5468C37.8321 11.8285 38.1476 11.8579 38.4431 12.0258L79.7623 35.8197C80.639 36.3234 81.1708 37.2592 81.1708 38.2648Z" fill="url(#paint1_linear_15_343)"/>
<path d="M72.1294 42.2891L72.1094 42.2782L72.1294 42.2891Z" fill="url(#paint2_linear_15_343)"/>
<path d="M49.4349 28.8476L49.3369 28.7887L49.4349 28.8476Z" fill="url(#paint3_linear_15_343)"/>
<path d="M37.8863 24.7568L37.8271 24.7165L37.8863 24.7568Z" fill="url(#paint4_linear_15_343)"/>
<path d="M49.9085 37.8516L49.8003 37.7819L49.9085 37.8516Z" fill="url(#paint5_linear_15_343)"/>
<path d="M49.8047 48.8854L49.6475 48.7862L49.8047 48.8854Z" fill="url(#paint6_linear_15_343)"/>
<path d="M49.9876 52.0709L49.8003 51.9615L49.9876 52.0709Z" fill="url(#paint7_linear_15_343)"/>
<path d="M40.2858 23.326L40.2061 23.377L40.2858 23.326Z" fill="url(#paint8_linear_15_343)"/>
<path d="M49.4349 28.8476L49.3369 28.9068L49.4349 28.8476Z" fill="url(#paint9_linear_15_343)"/>
<path d="M52.4095 30.5942L52.3999 30.6028L52.4095 30.5942Z" fill="url(#paint10_linear_15_343)"/>
<path d="M49.3392 28.9069V41.0157L47.1821 39.7338V30.1887L49.3392 28.9069Z" fill="url(#paint11_linear_15_343)"/>
<path d="M55.0703 37.9392L54.6862 38.1671L53.2875 38.9844L52.5585 39.4184L52.4111 39.3304L49.9092 37.8516L50.6381 37.4166L52.4111 36.3724H52.421L54.6862 37.7124L55.0703 37.9392Z" fill="url(#paint12_linear_15_343)"/>
<path d="M37.9252 48.0869L37.8271 48.1556L37.9252 48.0869Z" fill="url(#paint13_linear_15_343)"/>
<path d="M49.3355 48.6085V48.9733L47.1784 50.2552L47.0503 50.3242H47.0405L44.3418 48.7269L43.3369 48.1353L44.3418 47.5349L45.9373 46.5969L47.1784 47.3266L49.3355 48.6085Z" fill="url(#paint14_linear_15_343)"/>
<path d="M72.1294 42.2891L72.1094 42.308L72.1294 42.2891Z" fill="url(#paint15_linear_15_343)"/>
<path d="M67.865 42.5054L67.1855 42.1009L66.9883 41.9926L65.59 41.164L64.0631 40.2568H64.0533L63.1864 39.7342L60.5962 38.206V47.6821L61.6304 48.2934L61.2406 48.4315L61.719 48.4609H61.7089L60.5962 49.1217V49.536L61.9652 50.3442L63.1864 51.0642L65.4222 52.3955L65.5068 52.4445L65.59 52.4939L67.1855 53.4309L67.5597 53.6576L67.865 53.835L69.323 54.7029L69.776 54.4267V43.6393L67.865 42.5054ZM67.2642 45.1773L67.1855 45.2268V50.1178L65.59 49.1809L63.1864 47.7512L63.0484 47.6723L63.1864 47.5934V42.7518L64.4472 43.5012L65.59 44.1717L67.1855 45.1185L67.274 45.1675L67.2642 45.1773Z" fill="url(#paint16_linear_15_343)"/>
<path d="M54.6822 51.7739V54.8504L52.801 53.7361L52.4071 53.5104L49.9839 52.0698L52.4071 50.6299L52.5744 50.5314L54.6822 51.7739Z" fill="url(#paint17_linear_15_343)"/>
<path d="M49.6422 48.7862L49.3369 48.9737L49.6422 48.7862Z" fill="url(#paint18_linear_15_343)"/>
<path d="M37.8248 55.7979L37.8047 55.8069L37.8248 55.7979Z" fill="url(#paint19_linear_15_343)"/>
<path d="M60.5996 67.2354L60.4126 67.3546L60.5996 67.2354Z" fill="url(#paint20_linear_15_343)"/>
<path d="M60.5948 71.871L60.5356 71.9102L60.5948 71.871Z" fill="url(#paint21_linear_15_343)"/>
<path d="M72.1129 71.3186L72.0537 71.348L72.1129 71.3186Z" fill="url(#paint22_linear_15_343)"/>
<path d="M65.8261 75.0459L65.5894 75.1829L65.8261 75.0459Z" fill="url(#paint23_linear_15_343)"/>
<path d="M72.1096 71.3876V79.1073L69.7754 80.488V72.6982L72.0508 71.3469L72.1096 71.3876Z" fill="url(#paint24_linear_15_343)"/>
<path d="M55.2174 64.2775L54.6855 64.5929L55.2174 64.2775Z" fill="url(#paint25_linear_15_343)"/>
<path d="M60.2294 61.2995L60.0425 61.4176L60.2294 61.2995Z" fill="url(#paint26_linear_15_343)"/>
<path d="M72.1079 56.3503L70.0198 57.6419L68.217 56.576L67.8627 56.3689L67.1831 55.9647L69.3202 54.7025L69.7733 54.9689L72.1079 56.3503Z" fill="url(#paint27_linear_15_343)"/>
<path d="M44.3487 33.6896V36.5887L43.3242 35.9872L42.694 35.6125L40.3594 34.2322L42.6918 32.8512L44.3487 33.6896Z" fill="url(#paint28_linear_15_343)"/>
<path d="M42.6918 30.603V32.8512L42.0808 33.2059L40.3572 34.2315L40.2886 34.1922V29.183L42.6918 30.603Z" fill="url(#paint29_linear_15_343)"/>
<path d="M44.3446 31.5893V33.6896L42.6918 32.8512L42.6899 30.603L44.3446 31.5893Z" fill="url(#paint30_linear_15_343)"/>
<path d="M49.8042 43.1363V45.6603L49.341 45.3943L48.6516 44.98L47.1839 44.1125L45.9133 43.3631L44.3472 42.4359L43.264 41.7959L42.6926 41.45L40.2893 40.03L38.3882 38.907L40.2893 37.7818L40.5257 37.6437L42.6926 38.9256L44.3472 39.9017L45.3913 40.5232H45.4015L47.1839 41.5881L48.0508 42.1009L49.341 42.8601L49.8042 43.1363Z" fill="url(#paint31_linear_15_343)"/>
<path d="M52.4146 39.3308V50.4336L49.8044 48.8858V48.6982L49.6465 48.7862L49.3412 48.6085L47.1841 47.3266L45.9433 46.5969L44.3474 45.6505L43.1952 44.9702L42.6928 44.6641L40.5455 43.403L40.2896 43.2442V49.4862L37.9255 48.0869L37.8271 48.0277V39.241L38.3884 38.9067L40.2896 40.0297L42.6928 41.4496L43.2642 41.7959L44.3474 42.4359L45.9135 43.3627L47.1841 44.1121L48.6518 44.98L49.3412 45.3939L49.8044 45.6603V37.9207L49.9126 37.8516L52.4146 39.3308Z" fill="url(#paint32_linear_15_343)"/>
<path d="M47.1253 30.2196L44.3474 28.5827L42.6928 27.5963L37.8863 24.7565L37.8271 24.7863V36.0472L40.2896 37.5064L40.5259 37.6445L42.6928 38.9263L44.3474 39.9025L45.3915 40.5239H45.4017L47.1841 41.5888V30.2588L47.1253 30.2196ZM40.2896 29.1831L42.6928 30.603L44.3474 31.589V31.8652V36.5883L43.323 35.9869L42.6928 35.6122L40.3585 34.2319L40.2896 34.2711V29.1831Z" fill="url(#paint33_linear_15_343)"/>
<path d="M47.1813 50.4031V53.5693L44.374 51.9128L44.3446 51.892L42.6899 50.9061V48.5209L43.3398 48.1353L44.3446 48.7269L47.0433 50.3242H47.0531L47.1813 50.4031Z" fill="url(#paint34_linear_15_343)"/>
<path d="M49.3347 28.7887V28.9069L47.1772 30.189L47.1184 30.2196L44.3405 28.5816L42.6858 27.5956L37.8794 24.7557L40.2038 23.3762L40.2826 23.4245L42.6858 24.8553L44.3405 25.8304L47.1772 27.5077L49.3347 28.7887Z" fill="url(#paint35_linear_15_343)"/>
<path d="M42.6918 44.6645V48.5209L40.6727 49.7129L40.2886 49.4861V43.5502L40.5445 43.403L42.6918 44.6645Z" fill="url(#paint36_linear_15_343)"/>
<path d="M49.3392 48.9734V52.4543L47.3103 53.6475L47.1821 53.5697V50.2556L49.3392 48.9734Z" fill="url(#paint37_linear_15_343)"/>
<path d="M59.9272 35.0601L57.7701 36.3321L57.6028 36.4306L55.3571 35.0997L54.9531 34.8627L54.6873 34.705L52.4119 33.3552L50.0776 31.9738L52.4021 30.603L52.4119 30.6128L54.6873 31.9538L55.3571 32.3583L57.2775 33.4922L57.7701 33.7783L59.9272 35.0601Z" fill="url(#paint38_linear_15_343)"/>
<path d="M55.3529 41.0157L55.3036 41.0451L55.3529 41.0749V48.8854L55.2938 48.9239L54.6832 49.279L52.5751 50.531L52.4077 50.4336V39.5071L52.5555 39.4184L53.2844 38.9844L54.6832 38.1667L55.0672 37.9392L55.3529 38.1078V41.0157Z" fill="url(#paint39_linear_15_343)"/>
<path d="M60.0474 61.418V72.1955L57.772 73.4784V62.888L60.0474 61.418Z" fill="url(#paint40_linear_15_343)"/>
<path d="M57.7687 36.5294V46.0055L56.0549 44.9898L55.3557 44.5765V38.1078L55.07 37.9395L54.6859 37.7124L52.4202 36.3724H52.4104V36.3615L49.8003 34.8137V32.1414L50.0762 31.9738L52.4104 33.3552L54.6859 34.705L54.9516 34.8627L55.3557 35.0993L57.6013 36.4306L57.7687 36.5294Z" fill="url(#paint41_linear_15_343)"/>
<path d="M60.0474 35.1295V46.1044L58.9935 46.7365L57.772 46.0056V39.5874L57.8115 39.5569L57.772 39.5372V36.3325L59.9291 35.0605L60.0474 35.1295Z" fill="url(#paint42_linear_15_343)"/>
<path d="M60.0474 54.9493V58.1046L57.772 59.4555V53.5984L60.0474 54.9493Z" fill="url(#paint43_linear_15_343)"/>
<path d="M72.1103 42.2782V42.308L69.825 43.66H69.8152L69.776 43.6393L67.865 42.505L67.1855 42.1009L66.9883 41.9933L65.59 41.164L64.0631 40.2579H64.0533L63.1864 39.7342L60.5962 38.206V37.9102L62.6643 36.6883L63.1864 36.9939L65.59 38.4139L66.3777 38.8765L67.1855 39.3595L67.865 39.7647L69.3128 40.6217L69.776 40.8979L72.1103 42.2782Z" fill="url(#paint44_linear_15_343)"/>
<path d="M65.5916 44.171V46.1629L65.5026 46.2222L64.7737 46.6561L63.188 47.5938V42.751L64.4488 43.5004L65.5916 44.171Z" fill="url(#paint45_linear_15_343)"/>
<path d="M65.5916 52.4939V58.1351L65.5026 58.1835L63.188 59.5551V53.7165L63.2965 53.6576L65.4239 52.3962L65.5916 52.4939Z" fill="url(#paint46_linear_15_343)"/>
<path d="M67.1871 47.2194V50.1185L65.5916 49.1809L63.188 47.7508V47.5941L64.7737 46.6565L65.5026 46.2225L65.5916 46.272L67.1871 47.2194Z" fill="url(#paint47_linear_15_343)"/>
<path d="M67.1852 45.1181V47.2191L65.5894 46.2716V44.1713L67.1852 45.1181Z" fill="url(#paint48_linear_15_343)"/>
<path d="M49.3425 54.8504V55.4617L47.1854 56.6156L44.7524 55.1768H44.7426L44.3488 54.9391L42.6941 53.9531L41.8174 53.4305H41.8076L40.2905 52.5343L38.104 51.2325L40.2905 49.9408L40.6746 49.713L42.6941 50.9061L44.3488 51.8925V51.9317L44.3782 51.9132L47.1854 53.5697V53.7263L47.3132 53.6475L49.3425 54.8504Z" fill="url(#paint49_linear_15_343)"/>
<path d="M55.3036 58.3902L54.6832 58.7562L52.733 59.909L52.4077 59.7116V56.6744L54.6832 58.0166L55.3036 58.3902Z" fill="url(#paint50_linear_15_343)"/>
<path d="M38.103 51.2324L37.8271 51.0747L38.103 51.2324Z" fill="url(#paint51_linear_15_343)"/>
<path d="M60.5996 67.4622L60.4126 67.3546L60.5996 67.4622Z" fill="url(#paint52_linear_15_343)"/>
<path d="M49.8791 64.1292L49.8003 64.0809L49.8791 64.1292Z" fill="url(#paint53_linear_15_343)"/>
<path d="M67.187 74.3841L67.0596 74.3063L67.187 74.3841Z" fill="url(#paint54_linear_15_343)"/>
<path d="M37.8248 55.8179L37.8047 55.8069L37.8248 55.8179Z" fill="url(#paint55_linear_15_343)"/>
<path d="M60.5948 71.9491L60.5356 71.9106L60.5948 71.9491Z" fill="url(#paint56_linear_15_343)"/>
<path d="M65.8261 75.0459L65.5894 74.898L65.8261 75.0459Z" fill="url(#paint57_linear_15_343)"/>
<path d="M65.5916 73.4377V75.1833L63.188 76.6032V72.0178L65.5916 73.4377Z" fill="url(#paint58_linear_15_343)"/>
<path d="M69.776 72.8955V80.4883L69.7462 80.509L67.865 79.3948L67.1855 78.9895V74.2366L67.0573 74.3056L65.59 73.4378L63.1864 72.0178V76.6032L63.1668 76.6131L60.5962 75.0856V67.4622L63.1864 69.0006L64.3194 69.6621L65.59 70.4206L67.1855 71.3673L67.865 71.7714L69.6083 72.7978L69.776 72.8955Z" fill="url(#paint59_linear_15_343)"/>
<path d="M54.6818 63.962V64.5929L53.6574 65.1944L52.6627 65.786L52.4064 65.6283L51.6382 65.1747L49.875 64.1295L50.8599 63.5379L52.4064 62.6318L52.4162 62.6209L54.1794 63.6661L54.6818 63.962Z" fill="url(#paint60_linear_15_343)"/>
<path d="M57.7687 62.888V73.4784L55.3557 71.9884V64.3574L55.2177 64.2774L54.6859 63.962L54.1835 63.6661L52.4202 62.6209L52.4104 62.6111L50.2929 61.3587L49.8003 61.0629V52.1784L49.9876 52.0698L52.4104 53.5104L52.8043 53.7365L54.6859 54.8507V58.017L52.4104 56.6748V59.712L52.7357 59.9093L54.6859 61.0629L54.8728 61.1712L55.3557 61.4583L56.6361 62.2164L57.7687 62.888Z" fill="url(#paint61_linear_15_343)"/>
<path d="M60.5939 75.0855L60.0425 74.7592L60.5939 75.0855Z" fill="url(#paint62_linear_15_343)"/>
<path d="M54.6832 64.5929V69.11L52.5852 70.3515L52.4077 70.2432V65.934L52.6636 65.786L53.6587 65.1944L54.6832 64.5929Z" fill="url(#paint63_linear_15_343)"/>
<path d="M52.4104 65.6283V70.2432L50.5783 69.1594L49.8003 68.6949V64.1699L49.8791 64.1295L51.6423 65.1747L52.4104 65.6283Z" fill="url(#paint64_linear_15_343)"/>
<path d="M63.1856 76.624L63.1655 76.613L63.1856 76.624Z" fill="url(#paint65_linear_15_343)"/>
<path d="M69.7747 80.527L69.7456 80.5087L69.7747 80.527Z" fill="url(#paint66_linear_15_343)"/>
<path d="M49.3392 55.4617V66.5354L47.7532 67.4818H47.7434L47.1821 67.1467V56.6156L49.3392 55.4617Z" fill="url(#paint67_linear_15_343)"/>
<path d="M44.7515 55.1767H44.7417L44.3474 54.9402L42.6928 53.9542L41.8161 53.4315H41.8063L40.2896 52.5342L38.103 51.2324L37.8271 51.4003V61.596L38.6839 62.1088L40.2896 63.0556L42.6928 64.4853L43.8552 65.1755L44.3474 65.4615L45.9923 66.4377L47.1841 67.1478V56.6163L44.7515 55.1767ZM44.3474 62.3258L42.6928 61.3398L41.3336 60.541L40.2896 59.9199V55.4333L42.2989 56.6265L42.6928 56.8533L44.3474 57.8392V62.3258Z" fill="url(#paint68_linear_15_343)"/>
<path d="M44.3465 59.6833V62.3258L42.6918 61.3398L41.3326 60.541L40.2886 59.9199V55.4323L42.2979 56.6254L42.6918 56.8522V58.6973L43.5681 59.2188L44.3465 59.6833Z" fill="url(#paint69_linear_15_343)"/>
<path d="M44.3446 57.8382V59.6829L43.5663 59.2185L42.6899 58.6969V56.8522L44.3446 57.8382Z" fill="url(#paint70_linear_15_343)"/>
<path d="M72.1096 42.3077V53.046L70.8786 53.7758L69.7754 54.4267V43.6884L69.8146 43.6596H69.8248L72.1096 42.3077Z" fill="url(#paint71_linear_15_343)"/>
<path d="M72.0511 71.3473L69.776 72.6982L69.6083 72.7978L67.865 71.7711L67.1855 71.3669L65.59 70.4202L64.3194 69.6621L63.1864 69.0003L60.5962 67.4622V67.2351L62.8517 65.9049L63.1864 66.1012L65.59 67.5211L66.7618 68.2112L67.1855 68.4678L67.865 68.872L69.776 69.9961L72.0511 71.3473Z" fill="url(#paint72_linear_15_343)"/>
<path d="M67.1855 62.2568V65.4208L65.59 64.4752L65.4222 64.3756L64.0435 63.5582L63.1864 63.0545L62.0341 62.3738L60.5962 61.5172V61.0931L62.9108 59.7215L63.1864 59.889L64.7035 60.7874L65.59 61.309L66.7124 61.9795L67.1855 62.2568Z" fill="url(#paint73_linear_15_343)"/>
<path d="M70.0221 57.6419V69.8089L69.776 69.996L67.865 68.8719L67.1855 68.4678L66.7618 68.2116L65.59 67.5211L63.1864 66.1011L62.8517 65.9049L61.4725 65.0857L60.5962 64.5631V61.5172L62.0341 62.3738L63.1864 63.0545L64.0435 63.5582L65.4222 64.3756L65.59 64.4751L67.1855 65.4208V55.9647L67.865 56.3688L68.2197 56.5759L70.0221 57.6419Z" fill="url(#paint74_linear_15_343)"/>
<path d="M65.4213 52.3962L63.294 53.6573L63.1854 53.598L60.5953 52.0596L60.0435 51.7344L58.1227 50.5906L57.7684 50.3835L55.355 48.9545V48.8858L57.4235 47.653H57.4333L57.7684 47.8591L60.0435 49.21L60.2504 49.3292L60.5953 49.5356L63.1854 51.0638L65.4213 52.3962Z" fill="url(#paint75_linear_15_343)"/>
<path d="M60.0491 61.1905V61.4176L57.7741 62.8877L56.6414 62.2161L55.361 61.458L54.8782 61.1709L54.6909 61.0626L52.7407 59.9087L54.6909 58.7562L55.3117 58.3903L55.361 58.4099L57.439 59.6525H57.4492L57.7741 59.8396L59.212 60.6879L60.0491 61.1905Z" fill="url(#paint76_linear_15_343)"/>
<path d="M72.1079 56.3503L72.1101 68.4195L70.022 69.8089V57.6419L72.1079 56.3503Z" fill="url(#paint77_linear_15_343)"/>
<path d="M60.4034 100.576L19.2614 76.8881C18.1306 76.2372 17.4336 75.0303 17.4336 73.7248V24.4301C17.4336 23.5084 18.429 22.9313 19.2269 23.391L60.5501 47.1838C61.4239 47.6868 61.9615 48.6186 61.9615 49.6272V99.6742C61.9615 100.475 61.0968 100.976 60.4034 100.576Z" fill="url(#paint78_linear_15_343)"/>
<path d="M59.3139 75.8535V92.1337C59.3139 92.5182 59.1564 92.8533 58.9099 93.0801C58.7621 93.2182 56.2859 94.713 56.2859 94.713C56.4435 94.4964 56.7038 94.0465 56.7038 93.7506V77.4707C56.7038 76.5734 56.2209 75.7452 55.443 75.2916L22.4563 56.3197L21.2943 55.6492C20.9788 55.4715 20.6343 55.4915 20.3584 55.6394L22.7518 54.17L22.8012 54.1406L23.0473 53.9825C23.3134 53.8644 23.6285 53.8644 23.9044 54.0319L58.0531 73.6743C58.8311 74.1181 59.3139 74.9572 59.3139 75.8535Z" fill="url(#paint79_linear_15_343)"/>
<path d="M56.7013 77.4712V93.7511C56.7013 94.047 56.6128 94.3036 56.4552 94.5205C56.3663 94.6484 56.2581 94.7473 56.1299 94.836C55.9528 94.9643 55.7459 95.0431 55.5291 95.0627L55.5193 95.0726C55.2434 95.1122 54.9577 95.0529 54.692 94.8952L21.1441 74.868C20.3364 74.385 19.8438 73.5171 19.8438 72.5703V56.4878C19.8438 56.1033 20.0605 55.7976 20.356 55.6399C20.6319 55.492 20.9764 55.472 21.2919 55.6497L22.4539 56.3202L55.4406 75.2921C56.2185 75.7456 56.7013 76.5739 56.7013 77.4712Z" fill="url(#paint80_linear_15_343)"/>
<path d="M53.449 77.3189V90.9966C53.449 91.2451 53.3746 91.4607 53.2422 91.643C53.1675 91.7505 53.0766 91.8335 52.9689 91.908C52.8201 92.0158 52.6462 92.0821 52.4642 92.0985L52.4559 92.1068C52.2241 92.1401 51.9841 92.0903 51.7608 91.9578L23.5754 75.1318C22.8968 74.726 22.4829 73.9968 22.4829 73.2014V59.6896C22.4829 59.3665 22.665 59.1097 22.9133 58.9772C23.1451 58.8529 23.4345 58.8362 23.6995 58.9855L24.6758 59.5488L52.3897 75.4881C53.0433 75.8692 53.449 76.565 53.449 77.3189Z" fill="url(#paint81_linear_15_343)"/>
<path d="M2.27298 33.3138L1.19189 3.42011C1.19189 1.91659 2.75363 -0.188042 5.15649 1.13485L22.3958 11.3578C23.417 11.9593 24.2582 12.801 24.9189 13.8233L30.0248 21.8214C30.8057 23.024 31.2261 24.4672 31.2261 25.9707V49.3095C31.5865 51.8953 29.1837 53.4588 27.8623 52.6774L4.13494 36.681C2.99395 35.8996 2.27298 34.6363 2.27298 33.3138Z" fill="url(#paint82_linear_15_343)"/>
<path d="M0.170898 34.9369V4.38212C0.170898 2.87897 1.79289 1.97693 3.05404 2.75867L20.7141 13.2222C21.7952 13.8837 22.6962 14.7257 23.2971 15.808L27.9823 23.4452C28.7032 24.6478 29.1236 26.031 29.1236 27.4142V50.813C29.1236 52.3166 27.5016 53.2182 26.2405 52.4369L2.03285 38.1842C0.891867 37.5227 0.170898 36.2602 0.170898 34.9369Z" fill="url(#paint83_linear_15_343)"/>
<path fill-rule="evenodd" clip-rule="evenodd" d="M10.144 17.6041V16.5218C10.144 16.041 9.90371 15.6198 9.48333 15.3788L6.53992 13.6351C6.11953 13.3948 5.51873 13.6954 5.51873 14.2365V15.3188C5.51873 15.8 5.75905 16.2209 6.17943 16.4615L9.12284 18.2056C9.54322 18.4462 10.144 18.1452 10.144 17.6041ZM16.2078 20.0696V21.1519C16.2078 21.6931 15.607 21.994 15.1866 21.7534L12.9039 20.4305C12.4836 20.1899 12.2432 19.7691 12.2432 19.2879V18.2056C12.2432 17.6644 12.844 17.3639 13.2644 17.6041L15.5471 18.927C15.9675 19.1676 16.2078 19.6484 16.2078 20.0696ZM10.0189 27.6468V26.5645C10.0189 26.1436 9.77854 25.6624 9.35815 25.4219L6.41474 23.6781C5.99436 23.4375 5.39355 23.7384 5.39355 24.2796V25.3619C5.39355 25.8431 5.63388 26.2639 6.05426 26.5045L8.99767 28.2483C9.41805 28.4885 10.0189 28.1879 10.0189 27.6468ZM16.0896 31.2558V30.1735C16.0896 29.6924 15.8497 29.2715 15.4289 29.0309L13.1462 27.708C12.7258 27.4678 12.125 27.7684 12.125 28.3095V29.3918C12.125 29.873 12.3653 30.2938 12.7857 30.5344L15.0684 31.8573C15.4888 32.0976 16.0896 31.797 16.0896 31.2558ZM23.7789 34.6834V35.7657C23.7789 36.3072 23.1781 36.6077 22.7577 36.3668L19.2738 34.3221C18.8534 34.0815 18.6131 33.6607 18.6131 33.1795V32.0972C18.6131 31.556 19.2139 31.2555 19.6343 31.4957L23.1182 33.5404C23.5386 33.7813 23.7789 34.2022 23.7789 34.6834ZM23.7789 42.3801V41.2978C23.7789 40.8766 23.5386 40.4561 23.1182 40.1548L19.6343 38.1102C19.2139 37.8699 18.6131 38.1705 18.6131 38.7116V39.7939C18.6131 40.2755 18.8534 40.6963 19.2738 40.9369L22.7577 42.9816C23.1781 43.2222 23.7789 42.9213 23.7789 42.3801ZM10.0189 33.2398V34.3221C10.0189 34.8633 9.41805 35.1642 8.99767 34.9236L6.05426 33.1799C5.63388 32.9393 5.39355 32.5184 5.39355 32.0372V30.9549C5.39355 30.4138 5.99436 30.1132 6.41474 30.3535L9.35815 32.0972C9.77854 32.3378 10.0189 32.7587 10.0189 33.2398ZM16.0896 37.8707V36.7884C16.0896 36.3675 15.8497 35.9467 15.4289 35.6454L13.1462 34.3225C12.7258 34.0823 12.125 34.3828 12.125 34.924V36.0063C12.125 36.4875 12.3653 36.9087 12.7857 37.1493L15.0684 38.4722C15.4888 38.7127 16.0896 38.4118 16.0896 37.8707Z" fill="url(#paint84_linear_15_343)"/>
</g>
<defs>
<linearGradient id="paint0_linear_15_343" x1="-97.6433" y1="-165.915" x2="127.367" y2="153.977" gradientUnits="userSpaceOnUse">
<stop stop-color="#45DCA3"/>
<stop offset="0.4749" stop-color="#128D89"/>
<stop offset="1" stop-color="#333336"/>
</linearGradient>
<linearGradient id="paint1_linear_15_343" x1="34.3258" y1="51.408" x2="81.1709" y2="51.408" gradientUnits="userSpaceOnUse">
<stop stop-color="#45DCA3"/>
<stop offset="0.4749" stop-color="#128D89"/>
<stop offset="1" stop-color="#333336"/>
</linearGradient>
<linearGradient id="paint2_linear_15_343" x1="72.1094" y1="42.2837" x2="72.1295" y2="42.2837" gradientUnits="userSpaceOnUse">
<stop stop-color="#45DCA3"/>
<stop offset="0.4749" stop-color="#128D89"/>
<stop offset="1" stop-color="#333336"/>
</linearGradient>
<linearGradient id="paint3_linear_15_343" x1="49.337" y1="28.8181" x2="49.435" y2="28.8181" gradientUnits="userSpaceOnUse">
<stop stop-color="#45DCA3"/>
<stop offset="0.4749" stop-color="#128D89"/>
<stop offset="1" stop-color="#333336"/>
</linearGradient>
<linearGradient id="paint4_linear_15_343" x1="37.8272" y1="24.7367" x2="37.8864" y2="24.7367" gradientUnits="userSpaceOnUse">
<stop stop-color="#45DCA3"/>
<stop offset="0.4749" stop-color="#128D89"/>
<stop offset="1" stop-color="#333336"/>
</linearGradient>
<linearGradient id="paint5_linear_15_343" x1="49.8003" y1="37.8168" x2="49.9085" y2="37.8168" gradientUnits="userSpaceOnUse">
<stop stop-color="#45DCA3"/>
<stop offset="0.4749" stop-color="#128D89"/>
<stop offset="1" stop-color="#333336"/>
</linearGradient>
<linearGradient id="paint6_linear_15_343" x1="49.6475" y1="48.8358" x2="49.8047" y2="48.8358" gradientUnits="userSpaceOnUse">
<stop stop-color="#45DCA3"/>
<stop offset="0.4749" stop-color="#128D89"/>
<stop offset="1" stop-color="#333336"/>
</linearGradient>
<linearGradient id="paint7_linear_15_343" x1="49.8003" y1="52.0162" x2="49.9877" y2="52.0162" gradientUnits="userSpaceOnUse">
<stop stop-color="#45DCA3"/>
<stop offset="0.4749" stop-color="#128D89"/>
<stop offset="1" stop-color="#333336"/>
</linearGradient>
<linearGradient id="paint8_linear_15_343" x1="40.2061" y1="23.3515" x2="40.2858" y2="23.3515" gradientUnits="userSpaceOnUse">
<stop stop-color="#45DCA3"/>
<stop offset="0.4749" stop-color="#128D89"/>
<stop offset="1" stop-color="#333336"/>
</linearGradient>
<linearGradient id="paint9_linear_15_343" x1="49.337" y1="28.8772" x2="49.435" y2="28.8772" gradientUnits="userSpaceOnUse">
<stop stop-color="#45DCA3"/>
<stop offset="0.4749" stop-color="#128D89"/>
<stop offset="1" stop-color="#333336"/>
</linearGradient>
<linearGradient id="paint10_linear_15_343" x1="52.3999" y1="30.5985" x2="52.4096" y2="30.5985" gradientUnits="userSpaceOnUse">
<stop stop-color="#45DCA3"/>
<stop offset="0.4749" stop-color="#128D89"/>
<stop offset="1" stop-color="#333336"/>
</linearGradient>
<linearGradient id="paint11_linear_15_343" x1="-16.629" y1="-25.5873" x2="79.9577" y2="63.3844" gradientUnits="userSpaceOnUse">
<stop stop-color="#45DCA3"/>
<stop offset="0.4749" stop-color="#128D89"/>
<stop offset="1" stop-color="#333336"/>
</linearGradient>
<linearGradient id="paint12_linear_15_343" x1="-16.4649" y1="-25.7651" x2="80.1217" y2="63.2067" gradientUnits="userSpaceOnUse">
<stop stop-color="#45DCA3"/>
<stop offset="0.4749" stop-color="#128D89"/>
<stop offset="1" stop-color="#333336"/>
</linearGradient>
<linearGradient id="paint13_linear_15_343" x1="37.8272" y1="48.1213" x2="37.9252" y2="48.1213" gradientUnits="userSpaceOnUse">
<stop stop-color="#45DCA3"/>
<stop offset="0.4749" stop-color="#128D89"/>
<stop offset="1" stop-color="#333336"/>
</linearGradient>
<linearGradient id="paint14_linear_15_343" x1="43.337" y1="48.4605" x2="49.3356" y2="48.4605" gradientUnits="userSpaceOnUse">
<stop stop-color="#45DCA3"/>
<stop offset="0.4749" stop-color="#128D89"/>
<stop offset="1" stop-color="#333336"/>
</linearGradient>
<linearGradient id="paint15_linear_15_343" x1="72.1094" y1="42.2985" x2="72.1295" y2="42.2985" gradientUnits="userSpaceOnUse">
<stop stop-color="#45DCA3"/>
<stop offset="0.4749" stop-color="#128D89"/>
<stop offset="1" stop-color="#333336"/>
</linearGradient>
<linearGradient id="paint16_linear_15_343" x1="29.0751" y1="-10.5822" x2="108.914" y2="115.533" gradientUnits="userSpaceOnUse">
<stop stop-color="#45DCA3"/>
<stop offset="0.4749" stop-color="#128D89"/>
<stop offset="1" stop-color="#333336"/>
</linearGradient>
<linearGradient id="paint17_linear_15_343" x1="49.9839" y1="52.6909" x2="54.6822" y2="52.6909" gradientUnits="userSpaceOnUse">
<stop stop-color="#45DCA3"/>
<stop offset="0.4749" stop-color="#128D89"/>
<stop offset="1" stop-color="#333336"/>
</linearGradient>
<linearGradient id="paint18_linear_15_343" x1="49.337" y1="48.88" x2="49.6423" y2="48.88" gradientUnits="userSpaceOnUse">
<stop stop-color="#45DCA3"/>
<stop offset="0.4749" stop-color="#128D89"/>
<stop offset="1" stop-color="#333336"/>
</linearGradient>
<linearGradient id="paint19_linear_15_343" x1="37.8048" y1="55.8024" x2="37.8248" y2="55.8024" gradientUnits="userSpaceOnUse">
<stop stop-color="#45DCA3"/>
<stop offset="0.4749" stop-color="#128D89"/>
<stop offset="1" stop-color="#333336"/>
</linearGradient>
<linearGradient id="paint20_linear_15_343" x1="60.4127" y1="67.295" x2="60.5996" y2="67.295" gradientUnits="userSpaceOnUse">
<stop stop-color="#45DCA3"/>
<stop offset="0.4749" stop-color="#128D89"/>
<stop offset="1" stop-color="#333336"/>
</linearGradient>
<linearGradient id="paint21_linear_15_343" x1="60.5357" y1="71.8906" x2="60.5949" y2="71.8906" gradientUnits="userSpaceOnUse">
<stop stop-color="#45DCA3"/>
<stop offset="0.4749" stop-color="#128D89"/>
<stop offset="1" stop-color="#333336"/>
</linearGradient>
<linearGradient id="paint22_linear_15_343" x1="72.0537" y1="71.3333" x2="72.113" y2="71.3333" gradientUnits="userSpaceOnUse">
<stop stop-color="#45DCA3"/>
<stop offset="0.4749" stop-color="#128D89"/>
<stop offset="1" stop-color="#333336"/>
</linearGradient>
<linearGradient id="paint23_linear_15_343" x1="65.5894" y1="75.1144" x2="65.8261" y2="75.1144" gradientUnits="userSpaceOnUse">
<stop stop-color="#45DCA3"/>
<stop offset="0.4749" stop-color="#128D89"/>
<stop offset="1" stop-color="#333336"/>
</linearGradient>
<linearGradient id="paint24_linear_15_343" x1="-26.9221" y1="-14.4129" x2="69.6645" y2="74.5589" gradientUnits="userSpaceOnUse">
<stop stop-color="#45DCA3"/>
<stop offset="0.4749" stop-color="#128D89"/>
<stop offset="1" stop-color="#333336"/>
</linearGradient>
<linearGradient id="paint25_linear_15_343" x1="54.6856" y1="64.4352" x2="55.2174" y2="64.4352" gradientUnits="userSpaceOnUse">
<stop stop-color="#45DCA3"/>
<stop offset="0.4749" stop-color="#128D89"/>
<stop offset="1" stop-color="#333336"/>
</linearGradient>
<linearGradient id="paint26_linear_15_343" x1="60.0425" y1="61.3586" x2="60.2295" y2="61.3586" gradientUnits="userSpaceOnUse">
<stop stop-color="#45DCA3"/>
<stop offset="0.4749" stop-color="#128D89"/>
<stop offset="1" stop-color="#333336"/>
</linearGradient>
<linearGradient id="paint27_linear_15_343" x1="30.7048" y1="13.8345" x2="85.9669" y2="73.7623" gradientUnits="userSpaceOnUse">
<stop stop-color="#45DCA3"/>
<stop offset="0.4749" stop-color="#128D89"/>
<stop offset="1" stop-color="#333336"/>
</linearGradient>
<linearGradient id="paint28_linear_15_343" x1="41.7829" y1="54.8985" x2="42.6029" y2="26.9816" gradientUnits="userSpaceOnUse">
<stop stop-color="#45DCA3"/>
<stop offset="0.4749" stop-color="#128D89"/>
<stop offset="1" stop-color="#333336"/>
</linearGradient>
<linearGradient id="paint29_linear_15_343" x1="40.7807" y1="55.2291" x2="41.6167" y2="26.7654" gradientUnits="userSpaceOnUse">
<stop stop-color="#45DCA3"/>
<stop offset="0.4749" stop-color="#128D89"/>
<stop offset="1" stop-color="#333336"/>
</linearGradient>
<linearGradient id="paint30_linear_15_343" x1="31.5266" y1="19.2674" x2="50.0399" y2="39.22" gradientUnits="userSpaceOnUse">
<stop stop-color="#45DCA3"/>
<stop offset="0.4749" stop-color="#128D89"/>
<stop offset="1" stop-color="#333336"/>
</linearGradient>
<linearGradient id="paint31_linear_15_343" x1="38.3883" y1="41.652" x2="49.8043" y2="41.652" gradientUnits="userSpaceOnUse">
<stop stop-color="#45DCA3"/>
<stop offset="0.4749" stop-color="#128D89"/>
<stop offset="1" stop-color="#333336"/>
</linearGradient>
<linearGradient id="paint32_linear_15_343" x1="16.0537" y1="-2.33889" x2="95.8922" y2="123.776" gradientUnits="userSpaceOnUse">
<stop stop-color="#45DCA3"/>
<stop offset="0.4749" stop-color="#128D89"/>
<stop offset="1" stop-color="#333336"/>
</linearGradient>
<linearGradient id="paint33_linear_15_343" x1="18.9352" y1="-4.16301" x2="98.7737" y2="121.952" gradientUnits="userSpaceOnUse">
<stop stop-color="#45DCA3"/>
<stop offset="0.4749" stop-color="#128D89"/>
<stop offset="1" stop-color="#333336"/>
</linearGradient>
<linearGradient id="paint34_linear_15_343" x1="42.69" y1="50.8523" x2="47.1814" y2="50.8523" gradientUnits="userSpaceOnUse">
<stop stop-color="#45DCA3"/>
<stop offset="0.4749" stop-color="#128D89"/>
<stop offset="1" stop-color="#333336"/>
</linearGradient>
<linearGradient id="paint35_linear_15_343" x1="-7.19384" y1="-20.1283" x2="89.3929" y2="68.8433" gradientUnits="userSpaceOnUse">
<stop stop-color="#45DCA3"/>
<stop offset="0.4749" stop-color="#128D89"/>
<stop offset="1" stop-color="#333336"/>
</linearGradient>
<linearGradient id="paint36_linear_15_343" x1="40.2886" y1="46.558" x2="42.6919" y2="46.558" gradientUnits="userSpaceOnUse">
<stop stop-color="#45DCA3"/>
<stop offset="0.4749" stop-color="#128D89"/>
<stop offset="1" stop-color="#333336"/>
</linearGradient>
<linearGradient id="paint37_linear_15_343" x1="47.1822" y1="51.3104" x2="49.3393" y2="51.3104" gradientUnits="userSpaceOnUse">
<stop stop-color="#45DCA3"/>
<stop offset="0.4749" stop-color="#128D89"/>
<stop offset="1" stop-color="#333336"/>
</linearGradient>
<linearGradient id="paint38_linear_15_343" x1="-4.55987" y1="-21.4723" x2="92.0268" y2="67.4994" gradientUnits="userSpaceOnUse">
<stop stop-color="#45DCA3"/>
<stop offset="0.4749" stop-color="#128D89"/>
<stop offset="1" stop-color="#333336"/>
</linearGradient>
<linearGradient id="paint39_linear_15_343" x1="-18.9995" y1="-23.0137" x2="77.5872" y2="65.9579" gradientUnits="userSpaceOnUse">
<stop stop-color="#45DCA3"/>
<stop offset="0.4749" stop-color="#128D89"/>
<stop offset="1" stop-color="#333336"/>
</linearGradient>
<linearGradient id="paint40_linear_15_343" x1="57.772" y1="67.4482" x2="60.0474" y2="67.4482" gradientUnits="userSpaceOnUse">
<stop stop-color="#45DCA3"/>
<stop offset="0.4749" stop-color="#128D89"/>
<stop offset="1" stop-color="#333336"/>
</linearGradient>
<linearGradient id="paint41_linear_15_343" x1="25.6374" y1="-8.40609" x2="105.476" y2="117.709" gradientUnits="userSpaceOnUse">
<stop stop-color="#45DCA3"/>
<stop offset="0.4749" stop-color="#128D89"/>
<stop offset="1" stop-color="#333336"/>
</linearGradient>
<linearGradient id="paint42_linear_15_343" x1="-14.8445" y1="-27.5241" x2="81.7422" y2="61.4475" gradientUnits="userSpaceOnUse">
<stop stop-color="#45DCA3"/>
<stop offset="0.4749" stop-color="#128D89"/>
<stop offset="1" stop-color="#333336"/>
</linearGradient>
<linearGradient id="paint43_linear_15_343" x1="57.772" y1="56.5269" x2="60.0474" y2="56.5269" gradientUnits="userSpaceOnUse">
<stop stop-color="#45DCA3"/>
<stop offset="0.4749" stop-color="#128D89"/>
<stop offset="1" stop-color="#333336"/>
</linearGradient>
<linearGradient id="paint44_linear_15_343" x1="-0.960892" y1="-21.9039" x2="95.6258" y2="67.0678" gradientUnits="userSpaceOnUse">
<stop stop-color="#45DCA3"/>
<stop offset="0.4749" stop-color="#128D89"/>
<stop offset="1" stop-color="#333336"/>
</linearGradient>
<linearGradient id="paint45_linear_15_343" x1="-14.9719" y1="-27.3862" x2="81.6147" y2="61.5856" gradientUnits="userSpaceOnUse">
<stop stop-color="#45DCA3"/>
<stop offset="0.4749" stop-color="#128D89"/>
<stop offset="1" stop-color="#333336"/>
</linearGradient>
<linearGradient id="paint46_linear_15_343" x1="-20.0208" y1="-21.9052" x2="76.5659" y2="67.0665" gradientUnits="userSpaceOnUse">
<stop stop-color="#45DCA3"/>
<stop offset="0.4749" stop-color="#128D89"/>
<stop offset="1" stop-color="#333336"/>
</linearGradient>
<linearGradient id="paint47_linear_15_343" x1="-15.4031" y1="-26.9181" x2="81.1837" y2="62.0535" gradientUnits="userSpaceOnUse">
<stop stop-color="#45DCA3"/>
<stop offset="0.4749" stop-color="#128D89"/>
<stop offset="1" stop-color="#333336"/>
</linearGradient>
<linearGradient id="paint48_linear_15_343" x1="40.6062" y1="18.5733" x2="78.9542" y2="58.8251" gradientUnits="userSpaceOnUse">
<stop stop-color="#45DCA3"/>
<stop offset="0.4749" stop-color="#128D89"/>
<stop offset="1" stop-color="#333336"/>
</linearGradient>
<linearGradient id="paint49_linear_15_343" x1="38.104" y1="53.1643" x2="49.3426" y2="53.1643" gradientUnits="userSpaceOnUse">
<stop stop-color="#45DCA3"/>
<stop offset="0.4749" stop-color="#128D89"/>
<stop offset="1" stop-color="#333336"/>
</linearGradient>
<linearGradient id="paint50_linear_15_343" x1="52.4078" y1="58.2917" x2="55.3036" y2="58.2917" gradientUnits="userSpaceOnUse">
<stop stop-color="#45DCA3"/>
<stop offset="0.4749" stop-color="#128D89"/>
<stop offset="1" stop-color="#333336"/>
</linearGradient>
<linearGradient id="paint51_linear_15_343" x1="37.8272" y1="51.1536" x2="38.1031" y2="51.1536" gradientUnits="userSpaceOnUse">
<stop stop-color="#45DCA3"/>
<stop offset="0.4749" stop-color="#128D89"/>
<stop offset="1" stop-color="#333336"/>
</linearGradient>
<linearGradient id="paint52_linear_15_343" x1="60.4127" y1="67.4084" x2="60.5996" y2="67.4084" gradientUnits="userSpaceOnUse">
<stop stop-color="#45DCA3"/>
<stop offset="0.4749" stop-color="#128D89"/>
<stop offset="1" stop-color="#333336"/>
</linearGradient>
<linearGradient id="paint53_linear_15_343" x1="49.8003" y1="64.105" x2="49.8791" y2="64.105" gradientUnits="userSpaceOnUse">
<stop stop-color="#45DCA3"/>
<stop offset="0.4749" stop-color="#128D89"/>
<stop offset="1" stop-color="#333336"/>
</linearGradient>
<linearGradient id="paint54_linear_15_343" x1="67.0596" y1="74.3452" x2="67.1871" y2="74.3452" gradientUnits="userSpaceOnUse">
<stop stop-color="#45DCA3"/>
<stop offset="0.4749" stop-color="#128D89"/>
<stop offset="1" stop-color="#333336"/>
</linearGradient>
<linearGradient id="paint55_linear_15_343" x1="37.8048" y1="55.8124" x2="37.8248" y2="55.8124" gradientUnits="userSpaceOnUse">
<stop stop-color="#45DCA3"/>
<stop offset="0.4749" stop-color="#128D89"/>
<stop offset="1" stop-color="#333336"/>
</linearGradient>
<linearGradient id="paint56_linear_15_343" x1="60.5357" y1="71.9298" x2="60.5949" y2="71.9298" gradientUnits="userSpaceOnUse">
<stop stop-color="#45DCA3"/>
<stop offset="0.4749" stop-color="#128D89"/>
<stop offset="1" stop-color="#333336"/>
</linearGradient>
<linearGradient id="paint57_linear_15_343" x1="65.5894" y1="74.972" x2="65.8261" y2="74.972" gradientUnits="userSpaceOnUse">
<stop stop-color="#45DCA3"/>
<stop offset="0.4749" stop-color="#128D89"/>
<stop offset="1" stop-color="#333336"/>
</linearGradient>
<linearGradient id="paint58_linear_15_343" x1="-29.4771" y1="-11.6396" x2="67.1096" y2="77.3322" gradientUnits="userSpaceOnUse">
<stop stop-color="#45DCA3"/>
<stop offset="0.4749" stop-color="#128D89"/>
<stop offset="1" stop-color="#333336"/>
</linearGradient>
<linearGradient id="paint59_linear_15_343" x1="16.7105" y1="-2.75451" x2="96.549" y2="123.361" gradientUnits="userSpaceOnUse">
<stop stop-color="#45DCA3"/>
<stop offset="0.4749" stop-color="#128D89"/>
<stop offset="1" stop-color="#333336"/>
</linearGradient>
<linearGradient id="paint60_linear_15_343" x1="49.8751" y1="64.2035" x2="54.6819" y2="64.2035" gradientUnits="userSpaceOnUse">
<stop stop-color="#45DCA3"/>
<stop offset="0.4749" stop-color="#128D89"/>
<stop offset="1" stop-color="#333336"/>
</linearGradient>
<linearGradient id="paint61_linear_15_343" x1="49.8003" y1="62.7741" x2="57.7687" y2="62.7741" gradientUnits="userSpaceOnUse">
<stop stop-color="#45DCA3"/>
<stop offset="0.4749" stop-color="#128D89"/>
<stop offset="1" stop-color="#333336"/>
</linearGradient>
<linearGradient id="paint62_linear_15_343" x1="60.0425" y1="74.9223" x2="60.594" y2="74.9223" gradientUnits="userSpaceOnUse">
<stop stop-color="#45DCA3"/>
<stop offset="0.4749" stop-color="#128D89"/>
<stop offset="1" stop-color="#333336"/>
</linearGradient>
<linearGradient id="paint63_linear_15_343" x1="52.4078" y1="67.4722" x2="54.6832" y2="67.4722" gradientUnits="userSpaceOnUse">
<stop stop-color="#45DCA3"/>
<stop offset="0.4749" stop-color="#128D89"/>
<stop offset="1" stop-color="#333336"/>
</linearGradient>
<linearGradient id="paint64_linear_15_343" x1="49.8003" y1="67.1863" x2="52.4105" y2="67.1863" gradientUnits="userSpaceOnUse">
<stop stop-color="#45DCA3"/>
<stop offset="0.4749" stop-color="#128D89"/>
<stop offset="1" stop-color="#333336"/>
</linearGradient>
<linearGradient id="paint65_linear_15_343" x1="63.1656" y1="76.6185" x2="63.1856" y2="76.6185" gradientUnits="userSpaceOnUse">
<stop stop-color="#45DCA3"/>
<stop offset="0.4749" stop-color="#128D89"/>
<stop offset="1" stop-color="#333336"/>
</linearGradient>
<linearGradient id="paint66_linear_15_343" x1="69.7457" y1="80.5179" x2="69.7747" y2="80.5179" gradientUnits="userSpaceOnUse">
<stop stop-color="#45DCA3"/>
<stop offset="0.4749" stop-color="#128D89"/>
<stop offset="1" stop-color="#333336"/>
</linearGradient>
<linearGradient id="paint67_linear_15_343" x1="47.1822" y1="61.4717" x2="49.3393" y2="61.4717" gradientUnits="userSpaceOnUse">
<stop stop-color="#45DCA3"/>
<stop offset="0.4749" stop-color="#128D89"/>
<stop offset="1" stop-color="#333336"/>
</linearGradient>
<linearGradient id="paint68_linear_15_343" x1="37.8272" y1="59.1901" x2="47.1842" y2="59.1901" gradientUnits="userSpaceOnUse">
<stop stop-color="#45DCA3"/>
<stop offset="0.4749" stop-color="#128D89"/>
<stop offset="1" stop-color="#333336"/>
</linearGradient>
<linearGradient id="paint69_linear_15_343" x1="40.2886" y1="58.879" x2="44.3465" y2="58.879" gradientUnits="userSpaceOnUse">
<stop stop-color="#45DCA3"/>
<stop offset="0.4749" stop-color="#128D89"/>
<stop offset="1" stop-color="#333336"/>
</linearGradient>
<linearGradient id="paint70_linear_15_343" x1="42.69" y1="58.2676" x2="44.3446" y2="58.2676" gradientUnits="userSpaceOnUse">
<stop stop-color="#45DCA3"/>
<stop offset="0.4749" stop-color="#128D89"/>
<stop offset="1" stop-color="#333336"/>
</linearGradient>
<linearGradient id="paint71_linear_15_343" x1="-13.1972" y1="-29.3125" x2="83.3894" y2="59.6593" gradientUnits="userSpaceOnUse">
<stop stop-color="#45DCA3"/>
<stop offset="0.4749" stop-color="#128D89"/>
<stop offset="1" stop-color="#333336"/>
</linearGradient>
<linearGradient id="paint72_linear_15_343" x1="22.3138" y1="21.5723" x2="77.576" y2="81.5001" gradientUnits="userSpaceOnUse">
<stop stop-color="#45DCA3"/>
<stop offset="0.4749" stop-color="#128D89"/>
<stop offset="1" stop-color="#333336"/>
</linearGradient>
<linearGradient id="paint73_linear_15_343" x1="-23.1683" y1="-18.4881" x2="73.4184" y2="70.4836" gradientUnits="userSpaceOnUse">
<stop stop-color="#45DCA3"/>
<stop offset="0.4749" stop-color="#128D89"/>
<stop offset="1" stop-color="#333336"/>
</linearGradient>
<linearGradient id="paint74_linear_15_343" x1="22.6136" y1="-6.49167" x2="102.452" y2="119.623" gradientUnits="userSpaceOnUse">
<stop stop-color="#45DCA3"/>
<stop offset="0.4749" stop-color="#128D89"/>
<stop offset="1" stop-color="#333336"/>
</linearGradient>
<linearGradient id="paint75_linear_15_343" x1="55.355" y1="50.6551" x2="65.4213" y2="50.6551" gradientUnits="userSpaceOnUse">
<stop stop-color="#45DCA3"/>
<stop offset="0.4749" stop-color="#128D89"/>
<stop offset="1" stop-color="#333336"/>
</linearGradient>
<linearGradient id="paint76_linear_15_343" x1="52.7408" y1="60.639" x2="60.0492" y2="60.639" gradientUnits="userSpaceOnUse">
<stop stop-color="#45DCA3"/>
<stop offset="0.4749" stop-color="#128D89"/>
<stop offset="1" stop-color="#333336"/>
</linearGradient>
<linearGradient id="paint77_linear_15_343" x1="-20.465" y1="-21.4229" x2="76.1217" y2="67.5488" gradientUnits="userSpaceOnUse">
<stop stop-color="#45DCA3"/>
<stop offset="0.4749" stop-color="#128D89"/>
<stop offset="1" stop-color="#333336"/>
</linearGradient>
<linearGradient id="paint78_linear_15_343" x1="11.6529" y1="12.2816" x2="48.5158" y2="138.129" gradientUnits="userSpaceOnUse">
<stop stop-color="#45DCA3"/>
<stop offset="0.4749" stop-color="#128D89"/>
<stop offset="1" stop-color="#333336"/>
</linearGradient>
<linearGradient id="paint79_linear_15_343" x1="-24.3442" y1="82.6582" x2="59.0774" y2="71.8254" gradientUnits="userSpaceOnUse">
<stop stop-color="#45DCA3"/>
<stop offset="0.4749" stop-color="#128D89"/>
<stop offset="1" stop-color="#333336"/>
</linearGradient>
<linearGradient id="paint80_linear_15_343" x1="7.91427" y1="23.5389" x2="77.2666" y2="140.944" gradientUnits="userSpaceOnUse">
<stop stop-color="#45DCA3"/>
<stop offset="0.4749" stop-color="#128D89"/>
<stop offset="1" stop-color="#333336"/>
</linearGradient>
<linearGradient id="paint81_linear_15_343" x1="-4.2937" y1="6.71248" x2="-12.6611" y2="74.0479" gradientUnits="userSpaceOnUse">
<stop stop-color="#45DCA3"/>
<stop offset="0.4749" stop-color="#128D89"/>
<stop offset="1" stop-color="#333336"/>
</linearGradient>
<linearGradient id="paint82_linear_15_343" x1="-7.00884" y1="-40.2839" x2="26.721" y2="58.2782" gradientUnits="userSpaceOnUse">
<stop stop-color="#45DCA3"/>
<stop offset="0.4749" stop-color="#128D89"/>
<stop offset="1" stop-color="#333336"/>
</linearGradient>
<linearGradient id="paint83_linear_15_343" x1="-18.3204" y1="-31.5725" x2="56.1648" y2="108.852" gradientUnits="userSpaceOnUse">
<stop stop-color="#45DCA3"/>
<stop offset="0.4749" stop-color="#128D89"/>
<stop offset="1" stop-color="#333336"/>
</linearGradient>
<linearGradient id="paint84_linear_15_343" x1="14.5867" y1="28.3088" x2="65.3283" y2="128.967" gradientUnits="userSpaceOnUse">
<stop stop-color="#45DCA3"/>
<stop offset="0.4749" stop-color="#128D89"/>
<stop offset="1" stop-color="#333336"/>
</linearGradient>
<clipPath id="clip0_15_343">
<rect width="81" height="100" fill="white" transform="translate(0.170898 0.716553)"/>
</clipPath>
</defs>
</svg>
